<svg xmlns="http://www.w3.org/2000/svg" width="19.052" height="17.191" viewBox="0 0 19.052 17.191">
  <g id="Health_Blue" transform="translate(0 -25.006)">
    <path id="Path_1509" data-name="Path 1509" d="M9.521,26.587a5.586,5.586,0,0,0-8.59,7.052H5.037l.73-1.217a.558.558,0,0,1,.949-.012l1.541,2.422L10.5,30.089a.559.559,0,0,1,1-.026l1.926,3.576h4.684a5.593,5.593,0,0,0-8.59-7.052Z" transform="translate(0 0)" fill="#055f9b"/>
    <path id="Path_1510" data-name="Path 1510" d="M59.533,204.161l-1.56-2.9-2.206,4.658a.558.558,0,0,1-.975.061l-1.6-2.512-.428.714a.558.558,0,0,1-.479.271h-3.54c.111.116-.48-.474,7.313,7.279a.558.558,0,0,0,.787,0c7.674-7.634,7.2-7.163,7.313-7.279H60.025A.558.558,0,0,1,59.533,204.161Z" transform="translate(-46.932 -169.699)" fill="#055f9b"/>
  </g>
</svg>
