<svg xmlns="http://www.w3.org/2000/svg" width="32.154" height="32.154" viewBox="0 0 32.154 32.154">
  <g id="add_community" data-name="add community" transform="translate(112.244 93.005) rotate(45)">
    <g id="Group_99" data-name="Group 99" transform="translate(-133.764 2.236)">
      <path id="Path_430" data-name="Path 430" d="M24.368,35.736A11.368,11.368,0,1,0,13,24.368,11.382,11.382,0,0,0,24.368,35.736ZM20.282,21.6A.934.934,0,0,1,21.6,20.282l2.765,2.765,2.765-2.765A.934.934,0,0,1,28.455,21.6l-2.765,2.765,2.765,2.765a.934.934,0,0,1-1.321,1.321l-2.765-2.765L21.6,28.455a.934.934,0,0,1-1.321-1.321l2.765-2.765Z" transform="translate(-13 -13)" fill="#fff"/>
    </g>
  </g>
</svg>
