<svg xmlns="http://www.w3.org/2000/svg" width="17.784" height="17.329" viewBox="0 0 17.784 17.329">
  <g id="Channel_Normal" transform="translate(-291.608 -228.836)">
    <g id="Group_16792" data-name="Group 16792">
      <path id="Path_1744" data-name="Path 1744" d="M16.494,9.9H11l1.952-3.2a.589.589,0,0,0-1.006-.613L9.617,9.9H8.167L5.842,6.082A.589.589,0,0,0,4.836,6.7L6.788,9.9H1.29A1.292,1.292,0,0,0,0,11.189v10.65a1.292,1.292,0,0,0,1.29,1.29h15.2a1.292,1.292,0,0,0,1.29-1.29V11.189A1.292,1.292,0,0,0,16.494,9.9ZM12.472,20.29a.7.7,0,0,1-.7.7H2.795a.7.7,0,0,1-.7-.7V12.736a.7.7,0,0,1,.7-.7H11.77a.7.7,0,0,1,.7.7Zm2.6-.224a1.217,1.217,0,1,1,1.217-1.217A1.218,1.218,0,0,1,15.067,20.066Zm0-4.672a1.217,1.217,0,1,1,1.217-1.217A1.218,1.218,0,0,1,15.067,15.395Z" transform="translate(291.608 223.037)" fill="#647792"/>
    </g>
  </g>
</svg>
