<svg xmlns="http://www.w3.org/2000/svg" width="21.5" height="16.804" viewBox="0 0 21.5 16.804">
  <g id="Community_Normal" transform="translate(-11.954 -23.123)">
    <path id="Path_468" data-name="Path 468" d="M28.544,31.89a4.619,4.619,0,1,0-4.622,0,7.058,7.058,0,0,0-2.2,1.245h0a5.47,5.47,0,0,0-1.82-1.422,3.672,3.672,0,1,0-4.717,0A5.451,5.451,0,0,0,12.1,36.619a1.2,1.2,0,0,0,1.2,1.2h5.9v0a7.064,7.064,0,0,0-.045.752,1.2,1.2,0,0,0,1.2,1.2H32.1a1.2,1.2,0,0,0,1.2-1.2A7.083,7.083,0,0,0,28.544,31.89Zm-5.725-4a3.414,3.414,0,1,1,3.414,3.414A3.414,3.414,0,0,1,22.819,27.892ZM15.08,28.9a2.468,2.468,0,1,1,2.468,2.468A2.468,2.468,0,0,1,15.08,28.9Zm4.362,7.72H13.309a4.237,4.237,0,0,1,7.554-2.639l.005-.005A7.051,7.051,0,0,0,19.443,36.619Zm.925,1.954a5.866,5.866,0,0,1,11.731,0Z" transform="translate(0)" fill="#647792" stroke="#647792" stroke-width="0.3"/>
  </g>
</svg>
