<svg xmlns="http://www.w3.org/2000/svg" width="18" height="23.171" viewBox="0 0 18 23.171">
  <g id="Cook" transform="translate(-160.053)">
    <path id="Path_1639" data-name="Path 1639" d="M189.7,115a32.4,32.4,0,0,0-9.592,0q-1.392.208-2.787.54v6.115c0,2.165,1.577,4.077,3.392,5.336a7.674,7.674,0,0,0,4.179,1.569,8.656,8.656,0,0,0,4.208-1.546,7.125,7.125,0,0,0,3.413-5.686v-5.791q-1.4-.328-2.813-.537Zm0,0" transform="translate(-15.874 -105.389)" fill="#ffdda6" fill-rule="evenodd"/>
    <path id="Path_1640" data-name="Path 1640" d="M169.24,0a4.234,4.234,0,0,0-3.774,2.25h-2.058c-2.975,0-4.747,3.27-1.962,5V11.8q1.4-.33,2.787-.539a32.374,32.374,0,0,1,9.592,0q1.41.211,2.813.539V7.252c2.785-1.733,1.09-5-1.885-5h-2.213A3.242,3.242,0,0,0,169.268,0Zm0,0" transform="translate(0)" fill="#e6e6e6" fill-rule="evenodd"/>
    <path id="Path_1641" data-name="Path 1641" d="M324.329,32.878c2.785-1.733,1.09-5-1.885-5h-1.737c2.668,0,4.315,2.385,2.614,4.18-.546.575-.72.277-.72,1.081l-.007,3.929q.869.158,1.735.361Zm0,0" transform="translate(-147.691 -25.626)" fill="#c2c7cc" fill-rule="evenodd"/>
    <path id="Path_1642" data-name="Path 1642" d="M257.352,174.967a4.238,4.238,0,0,1-1.735-.788v1.52a7.125,7.125,0,0,1-3.415,5.686,8.635,8.635,0,0,1-4.208,1.546c-.047,0-.094,0-.143,0a5.026,5.026,0,0,0,1.88.357,8.656,8.656,0,0,0,4.208-1.546,7.126,7.126,0,0,0,3.413-5.686Zm0,0" transform="translate(-80.714 -160.125)" fill="#fcc368" fill-rule="evenodd"/>
    <path id="Path_1657" data-name="Path 1657" d="M333.25,140.1q-1.4-.331-2.813-.539a3.273,3.273,0,0,0,2.813,3.582Zm0,0" transform="translate(-156.612 -128.297)" fill="gray" fill-rule="evenodd"/>
    <path id="Path_1658" data-name="Path 1658" d="M180.107,139.559q-1.392.211-2.787.539v3.038A3.264,3.264,0,0,0,180.107,139.559Zm0,0" transform="translate(-15.873 -128.298)" fill="gray" fill-rule="evenodd"/>
    <path id="Path_1659" data-name="Path 1659" d="M345.828,142.127q-.865-.2-1.735-.361v2.615a4.241,4.241,0,0,0,1.735.788Zm0,0" transform="translate(-169.19 -130.326)" fill="#666" fill-rule="evenodd"/>
    <path id="Path_1660" data-name="Path 1660" d="M217.128,170.765a.629.629,0,0,1-.449-1.069,2.283,2.283,0,0,1,1.54-.513h.013a2.309,2.309,0,0,1,1.557.509.628.628,0,1,1-.891.886,1.671,1.671,0,0,0-1.322,0A.624.624,0,0,1,217.128,170.765Zm0,0" transform="translate(-51.892 -155.532)" fill="#666"/>
    <path id="Path_1661" data-name="Path 1661" d="M280.193,170.765a.629.629,0,0,1-.449-1.069,2.284,2.284,0,0,1,1.54-.513h.013a2.31,2.31,0,0,1,1.557.509.628.628,0,0,1-.892.886,1.67,1.67,0,0,0-1.322,0A.625.625,0,0,1,280.193,170.765Zm0,0" transform="translate(-109.868 -155.532)" fill="#666"/>
    <path id="Path_1662" data-name="Path 1662" d="M263.148,46.122a.629.629,0,0,1-.629-.628V42.609a.628.628,0,0,1,1.257,0v2.885A.628.628,0,0,1,263.148,46.122Zm0,0" transform="translate(-94.199 -38.593)" fill="#c2c7cc"/>
    <path id="Path_1663" data-name="Path 1663" d="M210.277,62.284a.629.629,0,0,1-.629-.628V58.773a.628.628,0,0,1,1.257,0v2.883A.628.628,0,0,1,210.277,62.284Zm0,0" transform="translate(-45.594 -53.453)" fill="#c2c7cc"/>
    <path id="Path_1664" data-name="Path 1664" d="M316.019,62.284a.628.628,0,0,1-.628-.628V58.773a.628.628,0,0,1,1.257,0v2.883A.629.629,0,0,1,316.019,62.284Zm0,0" transform="translate(-142.803 -53.453)" fill="#c2c7cc"/>
  </g>
</svg>
