<svg xmlns="http://www.w3.org/2000/svg" width="28.866" height="28.866" viewBox="0 0 28.866 28.866">
  <g id="Cry" transform="translate(0 0)">
    <circle id="Ellipse_82" data-name="Ellipse 82" cx="14.36" cy="14.36" r="14.36" transform="matrix(0.005, -1, 1, 0.005, 0, 28.719)" fill="#ffca44"/>
    <path id="Path_998" data-name="Path 998" d="M787.443,454.7a3.724,3.724,0,0,0-2.342,1.971.9.9,0,0,1-.934.546l-.014,0c-.377-.077-.578-.624-.324-1.153a5.135,5.135,0,0,1,3.231-2.719c.565-.16,1.07.132,1.081.516v.014A.9.9,0,0,1,787.443,454.7Z" transform="translate(-780.144 -447.877)" fill="#e6e7e8" style="mix-blend-mode: multiply;isolation: isolate"/>
    <path id="Path_999" data-name="Path 999" d="M872.567,454.7a3.724,3.724,0,0,1,2.342,1.971.9.9,0,0,0,.934.546l.014,0c.377-.077.578-.624.324-1.153a5.135,5.135,0,0,0-3.23-2.719c-.565-.16-1.07.132-1.081.516v.014A.9.9,0,0,0,872.567,454.7Z" transform="translate(-851 -447.877)" fill="#e6e7e8" style="mix-blend-mode: multiply;isolation: isolate"/>
    <g id="Group_16091" data-name="Group 16091" transform="translate(5.824 7.786)">
      <path id="Path_1000" data-name="Path 1000" d="M800.612,468.143a2.709,2.709,0,1,1-2.708-2.8A2.755,2.755,0,0,1,800.612,468.143Z" transform="translate(-795.197 -465.343)" fill="#87594a"/>
      <path id="Path_1001" data-name="Path 1001" d="M805.846,469.914a1.017,1.017,0,1,1-1.017-1.017A1.017,1.017,0,0,1,805.846,469.914Z" transform="translate(-802.121 -468.2)" fill="#fff"/>
    </g>
    <g id="Group_16092" data-name="Group 16092" transform="translate(17.627 7.786)">
      <path id="Path_1002" data-name="Path 1002" d="M860.763,468.143a2.709,2.709,0,1,1-2.708-2.8A2.755,2.755,0,0,1,860.763,468.143Z" transform="translate(-855.348 -465.343)" fill="#87594a"/>
      <path id="Path_1003" data-name="Path 1003" d="M866,469.914a1.017,1.017,0,1,1-1.017-1.017A1.017,1.017,0,0,1,866,469.914Z" transform="translate(-862.272 -468.2)" fill="#fff"/>
    </g>
    <path id="Path_1004" data-name="Path 1004" d="M815.236,527.415c-.789,1.011-2.311,1.381-3.849,1.616l-.16.024-.1.015c-.2.029-.391.055-.584.081a22.376,22.376,0,0,1-2.288.142h-.528a22.375,22.375,0,0,1-2.288-.142c-.193-.026-.388-.052-.583-.081l-.1-.015-.159-.024c-1.538-.235-3.062-.606-3.851-1.616a1.745,1.745,0,0,1-.173-1.789,2.81,2.81,0,0,1,.449-.768c1.1-1.382,3.723-2.719,6.973-2.7,3.25-.021,5.874,1.315,6.973,2.7a2.808,2.808,0,0,1,.449.768A1.745,1.745,0,0,1,815.236,527.415Z" transform="translate(-793.554 -503.226)" fill="#87594a"/>
    <path id="Path_1005" data-name="Path 1005" d="M828.551,552.025l-.16.024-.1.015c-.2.028-.391.055-.584.081a22.452,22.452,0,0,1-2.288.142h-.528a22.449,22.449,0,0,1-2.287-.142c-.193-.026-.388-.052-.583-.081l-.1-.015-.158-.024a5.224,5.224,0,0,1,6.8,0Z" transform="translate(-810.718 -526.219)" fill="#ee6571"/>
    <path id="Path_1006" data-name="Path 1006" d="M817.483,524.859H803.537c1.1-1.382,3.723-2.719,6.973-2.7C813.76,522.14,816.384,523.476,817.483,524.859Z" transform="translate(-796.077 -503.226)" fill="#fff"/>
    <g id="Group_16093" data-name="Group 16093" transform="translate(19.266 13.398)">
      <path id="Path_1007" data-name="Path 1007" d="M865.394,495.949a5.609,5.609,0,0,0,1.087-2,7.665,7.665,0,0,0,1.055,1.909c.6.7,3.164,3.517.8,5.777a2.78,2.78,0,0,1-3.968-.251C863.467,500.225,863.184,498.361,865.394,495.949Z" transform="translate(-863.698 -493.946)" fill="#45a1c4"/>
      <path id="Path_1008" data-name="Path 1008" d="M880.761,499.85a5.209,5.209,0,0,1-.61-.933,5.553,5.553,0,0,0,.6,1.114c.577.791,3.036,3.957.269,5.965a3.071,3.071,0,0,0,.548-.369C883.925,503.367,881.363,500.553,880.761,499.85Z" transform="translate(-876.922 -497.941)" fill="#e6e7e8" style="mix-blend-mode: multiply;isolation: isolate"/>
      <path id="Path_1009" data-name="Path 1009" d="M866.278,522.49a2.518,2.518,0,0,0,1.383,2.111.273.273,0,0,0,.263-.038c.107-.085.082-.2-.17-.349A3.933,3.933,0,0,1,866.278,522.49Z" transform="translate(-865.772 -516.889)" fill="#bcbec0" style="mix-blend-mode: screen;isolation: isolate"/>
    </g>
  </g>
</svg>
