<svg xmlns="http://www.w3.org/2000/svg" width="17.324" height="22.243" viewBox="0 0 17.324 22.243">
  <path id="Delete" d="M94.111,27.553H89.6V25.43a.441.441,0,0,0-.432-.43h-5.82a.441.441,0,0,0-.432.43v2.123H78.412a.4.4,0,0,0-.412.4v3.56a.4.4,0,0,0,.412.4h.795v14.1a.421.421,0,0,0,.409.43H92.908a.421.421,0,0,0,.409-.43v-14.1h.795a.4.4,0,0,0,.412-.4v-3.56a.4.4,0,0,0-.412-.4ZM83.755,25.835h5.013v1.717H83.755Zm8.726,19.772H80.042V31.916H92.481ZM93.688,31.08H78.835V28.388H93.688Z" transform="translate(-77.6 -24.6)" fill="#707070" stroke="#666" stroke-width="0.8"/>
</svg>
