<svg xmlns="http://www.w3.org/2000/svg" width="17.64" height="17.64" viewBox="0 0 17.64 17.64">
  <g id="Discover_Normal" transform="translate(-215.9 90.48)">
    <g id="Layer_2" data-name="Layer 2" transform="translate(216 -90.38)">
      <path id="Path_461" data-name="Path 461" d="M3,8.886a2.163,2.163,0,0,0,2.161,2.161H8.886a2.163,2.163,0,0,0,2.161-2.161V5.161A2.163,2.163,0,0,0,8.886,3H5.161A2.163,2.163,0,0,0,3,5.161ZM4.341,5.161a.821.821,0,0,1,.82-.82H8.886a.821.821,0,0,1,.82.82V8.886a.821.821,0,0,1-.82.82H5.161a.821.821,0,0,1-.82-.82Z" transform="translate(-3 -3)" fill="#647791" stroke="#647792" stroke-width="0.2"/>
      <path id="Path_462" data-name="Path 462" d="M3,22.886a2.163,2.163,0,0,0,2.161,2.161H8.886a2.163,2.163,0,0,0,2.161-2.161V19.161A2.163,2.163,0,0,0,8.886,17H5.161A2.163,2.163,0,0,0,3,19.161Zm1.341-3.725a.821.821,0,0,1,.82-.82H8.886a.821.821,0,0,1,.82.82v3.725a.821.821,0,0,1-.82.82H5.161a.821.821,0,0,1-.82-.82Z" transform="translate(-3 -7.607)" fill="#647791" stroke="#647792" stroke-width="0.2"/>
      <path id="Path_463" data-name="Path 463" d="M21.023,3a4.023,4.023,0,1,0,4.023,4.023A4.023,4.023,0,0,0,21.023,3Zm0,6.706a2.682,2.682,0,1,1,2.682-2.682A2.682,2.682,0,0,1,21.023,9.706Z" transform="translate(-7.607 -3)" fill="#647791" stroke="#647792" stroke-width="0.2"/>
      <path id="Path_464" data-name="Path 464" d="M19.161,17A2.163,2.163,0,0,0,17,19.161v3.725a2.163,2.163,0,0,0,2.161,2.161h3.725a2.163,2.163,0,0,0,2.161-2.161V19.161A2.163,2.163,0,0,0,22.886,17Zm4.545,2.161v3.725a.821.821,0,0,1-.82.82H19.161a.821.821,0,0,1-.82-.82V19.161a.821.821,0,0,1,.82-.82h3.725A.821.821,0,0,1,23.706,19.161Z" transform="translate(-7.607 -7.607)" fill="#647791" stroke="#647792" stroke-width="0.2"/>
    </g>
  </g>
</svg>
