<svg xmlns="http://www.w3.org/2000/svg" fill="none" width="20.222" height="20.215" viewBox="0 0 20.222 20.215">
  <g id="done" transform="translate(-16.917 -6.947)">
    <path id="Path_1515" data-name="Path 1515" d="M5.02,24.3,6.728,16.91A.791.791,0,0,1,7.4,16.3l9.552-.989a.239.239,0,0,0,0-.472L7.4,13.921a.742.742,0,0,1-.674-.584L5.02,5.965a.769.769,0,0,1,1.1-.854L24.8,14.46a.787.787,0,0,1,0,1.393l-18.676,9.3A.769.769,0,0,1,5.02,24.3Z" transform="translate(11.921 1.92)" fill="#106EAA"/>
  </g>
</svg>
