<svg xmlns="http://www.w3.org/2000/svg" width="21.796" height="21.796" viewBox="0 0 21.796 21.796">
  <g id="Flower" transform="translate(-24 -24)">
    <g id="Group_16801" data-name="Group 16801" transform="translate(25.879 25.879)">
      <path id="Path_1516" data-name="Path 1516" d="M0,0H3.854A5.165,5.165,0,0,1,9.019,5.165V6.388H5.165A5.165,5.165,0,0,1,0,1.224Z" transform="translate(15.408) rotate(90)" fill="#ff6aa0"/>
      <path id="Path_1517" data-name="Path 1517" d="M0,0H3.854A5.165,5.165,0,0,1,9.019,5.165V6.388H5.165A5.165,5.165,0,0,1,0,1.224Z" transform="translate(9.019 9.019) rotate(90)" fill="#ff6aa0"/>
      <path id="Path_1518" data-name="Path 1518" d="M0,0H3.854A5.165,5.165,0,0,1,9.019,5.165V6.388H5.165A5.165,5.165,0,0,1,0,1.224Z" transform="translate(18.038 15.408) rotate(180)" fill="#ff6aa0"/>
      <path id="Path_1519" data-name="Path 1519" d="M0,0H3.854A5.165,5.165,0,0,1,9.019,5.165V6.388H5.165A5.165,5.165,0,0,1,0,1.224V0Z" transform="translate(9.019 9.019) rotate(180)" fill="#ff6aa0"/>
    </g>
    <path id="Path_1520" data-name="Path 1520" d="M34.9,169.266,32.134,166.5a5.156,5.156,0,0,0-7.292,0l-.841.841,2.764,2.764a5.156,5.156,0,0,0,7.292,0Z" transform="translate(0 -134.368)" fill="#fd84b3"/>
    <path id="Path_1521" data-name="Path 1521" d="M266.9,210.207l-2.764-2.764a5.156,5.156,0,0,0-7.292,0l-.841.841,2.764,2.764a5.156,5.156,0,0,0,7.292,0Z" transform="translate(-221.102 -173.386)" fill="#fd84b3"/>
    <path id="Path_1522" data-name="Path 1522" d="M69.165,256h3.854v1.224a5.165,5.165,0,0,1-5.165,5.165H64v-1.224A5.165,5.165,0,0,1,69.165,256Z" transform="translate(-38.121 -221.102)" fill="#fda2c6"/>
    <path id="Path_1523" data-name="Path 1523" d="M261.165,120h3.854v1.224a5.165,5.165,0,0,1-5.165,5.165H256v-1.224A5.165,5.165,0,0,1,261.165,120Z" transform="translate(-221.102 -91.49)" fill="#fda2c6"/>
    <path id="Path_1524" data-name="Path 1524" d="M170.017,256l-2.725,2.725a5.165,5.165,0,0,0,0,7.3l.846.869,2.744-2.729a5.165,5.165,0,0,0,0-7.3Z" transform="translate(-135.119 -221.102)" fill="#fd84b3"/>
    <path id="Path_1525" data-name="Path 1525" d="M209.634,24l-2.744,2.729a5.165,5.165,0,0,0,0,7.3l.865.865,2.725-2.725a5.165,5.165,0,0,0,0-7.3Z" transform="translate(-172.857)" fill="#fd84b3"/>
    <path id="Path_1526" data-name="Path 1526" d="M5.165,0H9.019V1.224A5.165,5.165,0,0,1,3.854,6.388H0V5.165A5.165,5.165,0,0,1,5.165,0Z" transform="translate(34.898 43.917) rotate(-90)" fill="#fda2c6"/>
    <path id="Path_1527" data-name="Path 1527" d="M5.165,0H9.019V1.224A5.165,5.165,0,0,1,3.854,6.388H0V5.165A5.165,5.165,0,0,1,5.165,0Z" transform="translate(28.51 34.898) rotate(-90)" fill="#fda2c6"/>
    <circle id="Ellipse_136" data-name="Ellipse 136" cx="2.643" cy="2.643" r="2.643" transform="translate(32.255 32.255)" fill="#ffe76c"/>
  </g>
</svg>
