<svg id="Football" xmlns="http://www.w3.org/2000/svg" width="17.557" height="17.557" viewBox="0 0 17.557 17.557">
  <path id="Path_1555" data-name="Path 1555" d="M255.766,288.994l3.259-2.368,2.968.982.77,3.26a8.934,8.934,0,0,1-.791.906,8.743,8.743,0,0,1-3.344,2.1l-2.863-1.764Z" transform="translate(-246.988 -276.789)" fill="#f6f9f9"/>
  <path id="Path_1556" data-name="Path 1556" d="M164.052,181.177l-3.26-2.368,1.245-3.832h4.029l1.245,3.832Z" transform="translate(-155.273 -168.971)" fill="#135772"/>
  <path id="Path_1557" data-name="Path 1557" d="M55.774,286.625l3.26,2.368V292.1l-2.857,1.766a8.742,8.742,0,0,1-3.35-2.1,8.91,8.91,0,0,1-.785-.9l.767-3.29Z" transform="translate(-50.256 -276.788)" fill="#f6f9f9"/>
  <path id="Path_1558" data-name="Path 1558" d="M178.247,448.045a8.849,8.849,0,0,1-5.72,0l2.857-1.766Z" transform="translate(-166.606 -430.964)" fill="#135772"/>
  <path id="Path_1559" data-name="Path 1559" d="M6.831,103.8l-1.245,3.832-2.965.959L.07,106.372a8.707,8.707,0,0,1,1.594-4.854l3.355-.251Z" transform="translate(-0.068 -97.791)" fill="#ececef"/>
  <path id="Path_1560" data-name="Path 1560" d="M150.108,6.005h-4.029l-1.812-2.53,1.277-3.1a8.875,8.875,0,0,1,5.1,0l1.3,3.113Z" transform="translate(-139.316 0)" fill="#f6f9f9"/>
  <path id="Path_1561" data-name="Path 1561" d="M318.676,108.974l-2.968-.982-1.245-3.832,1.838-2.517,3.339.252a8.708,8.708,0,0,1,1.585,4.858Z" transform="translate(-303.67 -98.154)" fill="#ececef"/>
  <g id="Group_16826" data-name="Group 16826" transform="translate(0 0.374)">
    <path id="Path_1562" data-name="Path 1562" d="M1.786,255.516A8.712,8.712,0,0,1,0,250.207c0-.066,0-.132,0-.2l2.551,2.216Z" transform="translate(0 -241.803)" fill="#135772"/>
    <path id="Path_1563" data-name="Path 1563" d="M46.514,14.257a8.885,8.885,0,0,1,.975-1.156,8.734,8.734,0,0,1,3.657-2.2l-1.277,3.1Z" transform="translate(-44.918 -10.904)" fill="#135772"/>
    <path id="Path_1564" data-name="Path 1564" d="M334.792,14.3l-3.339-.252-1.3-3.113a8.734,8.734,0,0,1,3.654,2.2A8.887,8.887,0,0,1,334.792,14.3Z" transform="translate(-318.823 -10.929)" fill="#135772"/>
    <path id="Path_1565" data-name="Path 1565" d="M439.767,250.537c0,.06,0,.12,0,.179a8.712,8.712,0,0,1-1.78,5.3l-.77-3.26Z" transform="translate(-422.212 -242.312)" fill="#135772"/>
  </g>
  <path id="Path_1566" data-name="Path 1566" d="M255.766,288.994l3.259-2.368,2.968.982.77,3.26a8.934,8.934,0,0,1-.791.906,8.743,8.743,0,0,1-3.344,2.1l-2.863-1.764Z" transform="translate(-246.988 -276.789)" fill="#ececef"/>
  <path id="Path_1567" data-name="Path 1567" d="M318.676,108.974l-2.968-.982-1.245-3.832,1.838-2.517,3.339.252a8.708,8.708,0,0,1,1.585,4.858Z" transform="translate(-303.67 -98.154)" fill="#dddddf"/>
  <path id="Path_1568" data-name="Path 1568" d="M334.792,14.3l-3.339-.252-1.3-3.113a8.734,8.734,0,0,1,3.654,2.2A8.887,8.887,0,0,1,334.792,14.3Z" transform="translate(-318.823 -10.555)" fill="#093f61"/>
  <path id="Path_1569" data-name="Path 1569" d="M439.767,250.537c0,.06,0,.12,0,.179a8.712,8.712,0,0,1-1.78,5.3l-.77-3.26Z" transform="translate(-422.212 -241.938)" fill="#093f61"/>
  <path id="Path_1570" data-name="Path 1570" d="M255.767,448.521a8.792,8.792,0,0,0,2.863-.476l-2.863-1.764Z" transform="translate(-246.989 -430.964)" fill="#093f61"/>
  <path id="Path_1571" data-name="Path 1571" d="M259.62,3.489,258.32.375A8.809,8.809,0,0,0,255.767,0V6.005h2.015Z" transform="translate(-246.989 0)" fill="#ececef"/>
  <path id="Path_1572" data-name="Path 1572" d="M257.782,174.977h-2.015v6.2l3.26-2.368Z" transform="translate(-246.989 -168.971)" fill="#093f61"/>
</svg>
