<svg xmlns="http://www.w3.org/2000/svg" width="21.762" height="17.001" viewBox="0 0 21.762 17.001">
  <g id="Handshake" transform="translate(0 -55.999)">
    <g id="Group_16804" data-name="Group 16804" transform="translate(2.957 59.051)">
      <path id="Path_1534" data-name="Path 1534" d="M74.336,127.821l-3.89,1.137-.868,3.443a4.711,4.711,0,0,0,1.169,3.111l6.453,5.244.781.6c1.175.9,2.289-.359,1.4-1.293l-.04-.041a1.153,1.153,0,0,0,.937.277.825.825,0,0,0,.5-1.443.936.936,0,1,0,1.257-1.375,1.227,1.227,0,0,0,1.077-2.135l-.025-.027-2.67-3.974-3.581-2.294Z" transform="translate(-69.577 -127.821)" fill="#ffbc85" fill-rule="evenodd"/>
    </g>
    <g id="Group_16805" data-name="Group 16805" transform="translate(8.133 70.325)">
      <path id="Path_1535" data-name="Path 1535" d="M193.712,394.85a1,1,0,0,0-1.256-1.558l-.858.816a.272.272,0,0,1-.029.026c-.72.724.588,2.373,1.671,1.219Z" transform="translate(-191.363 -393.076)" fill="#ffe5c1" fill-rule="evenodd"/>
    </g>
    <g id="Group_16806" data-name="Group 16806" transform="translate(6.603 68.615)">
      <path id="Path_1536" data-name="Path 1536" d="M156.479,353.282l-.906.95,0,0a1,1,0,0,0,.4,1.511.936.936,0,0,0,1.121-.148l.971-.015-.084-.827.124-.117a1.055,1.055,0,1,0-1.524-1.46Z" transform="translate(-155.351 -352.833)" fill="#ffe5c1" fill-rule="evenodd"/>
    </g>
    <g id="Group_16807" data-name="Group 16807" transform="translate(4.898 66.889)">
      <path id="Path_1537" data-name="Path 1537" d="M116.455,313.1l-.849.9-.119.128c-.838.889.663,2.289,1.528,1.382l.149-.154c.012-.014.922-.108,1.021-.119l-.016-.936.29-.3a1.037,1.037,0,1,0-1.513-1.418Z" transform="translate(-115.241 -312.228)" fill="#ffe5c1" fill-rule="evenodd"/>
    </g>
    <g id="Group_16808" data-name="Group 16808" transform="translate(3.546 66.007)">
      <path id="Path_1538" data-name="Path 1538" d="M84.017,292.217l-.288.312c-.886.963.434,2.5,1.425,1.609l.813-.126.036-.776a1.079,1.079,0,0,0-1.7-1.331Z" transform="translate(-83.437 -291.482)" fill="#ffe5c1" fill-rule="evenodd"/>
    </g>
    <g id="Group_16809" data-name="Group 16809" transform="translate(0 56.095)">
      <path id="Path_1539" data-name="Path 1539" d="M5.342,58.509,1.4,62.3.281,63.381a.925.925,0,0,0-.026,1.3l1.672,1.743a.257.257,0,0,0,.361.007l.669-.644,4.759-4.58.591-.57a.256.256,0,0,0,.007-.362L6.642,58.535a.92.92,0,0,0-1.3-.026Z" transform="translate(0 -58.253)" fill="#7bacdf" fill-rule="evenodd"/>
    </g>
    <g id="Group_16810" data-name="Group 16810" transform="translate(11.64 62.946)">
      <path id="Path_1540" data-name="Path 1540" d="M275.068,219.46l-1.2.274.469.476,3.624,3.6.025.027a1.314,1.314,0,0,1,.367,1.36,1.247,1.247,0,0,0,.36-2.11l-.025-.027-1.087-1.081Z" transform="translate(-273.872 -219.46)" fill="#f5a96c" fill-rule="evenodd"/>
    </g>
    <g id="Group_16811" data-name="Group 16811" transform="translate(6.953 59.051)">
      <path id="Path_1541" data-name="Path 1541" d="M164.368,127.821l-.762.732,2.382,1.175.875-.678Z" transform="translate(-163.606 -127.821)" fill="#f5a96c" fill-rule="evenodd"/>
    </g>
    <g id="Group_16812" data-name="Group 16812" transform="translate(7.54 58.779)">
      <path id="Path_1542" data-name="Path 1542" d="M180.067,122.916l-.875.678-.824.637c-2.081,1.612-.355,3.2.88,2.658l1.389-.837.86-.2,1.2-.274,2.537,2.523,1.087,1.081a6.114,6.114,0,0,0,2.695-2.676l-1.587-3.32-3.706-1.775-.951.76c-.156.124-.109.1-.307.095a3.58,3.58,0,0,0-2.153.46Z" transform="translate(-177.397 -121.414)" fill="#ffe5c1" fill-rule="evenodd"/>
    </g>
    <g id="Group_16813" data-name="Group 16813" transform="translate(7.666 62.522)">
      <path id="Path_1543" data-name="Path 1543" d="M182.909,209.806l-1.389.837a1.355,1.355,0,0,1-1.152-.04,1.368,1.368,0,0,0,1.725.593l1.389-.837.86-.2,1.182-.27c-.547-.469-.645-.537-1.756-.282Z" transform="translate(-180.368 -209.464)" fill="#fed1a3" fill-rule="evenodd"/>
    </g>
    <g id="Group_16814" data-name="Group 16814" transform="translate(15.617 63.042)">
      <path id="Path_1544" data-name="Path 1544" d="M370.109,221.713a6.7,6.7,0,0,1-2.459,2.574,2.248,2.248,0,0,1-.216.095l.844.839a6.114,6.114,0,0,0,2.695-2.676Z" transform="translate(-367.434 -221.713)" fill="#fed1a3" fill-rule="evenodd"/>
    </g>
    <g id="Group_16815" data-name="Group 16815" transform="translate(3.995 56.095)">
      <path id="Path_1545" data-name="Path 1545" d="M93.99,59.806a.92.92,0,0,1,1.294.03l1.672,1.743a.257.257,0,0,1-.007.362l.762-.732.591-.57a.256.256,0,0,0,.007-.362l-1.672-1.743a.92.92,0,0,0-1.3-.026Z" transform="translate(-93.99 -58.251)" fill="#3987d0" fill-rule="evenodd"/>
    </g>
    <g id="Group_16816" data-name="Group 16816" transform="translate(3.546 66.523)">
      <path id="Path_1546" data-name="Path 1546" d="M83.448,304.879a1.053,1.053,0,0,0,1.717.873l.532-.565.316-.337a1,1,0,0,0,.045-1.24.932.932,0,0,1-.238.621l-.563.6-.284.3A.977.977,0,0,1,83.448,304.879Z" transform="translate(-83.448 -303.61)" fill="#fed1a3" fill-rule="evenodd"/>
    </g>
    <g id="Group_16817" data-name="Group 16817" transform="translate(4.937 67.101)">
      <path id="Path_1547" data-name="Path 1547" d="M116.154,319.753a1.059,1.059,0,0,0,1.735.535l.149-.154,0,0,.906-.95c.032-.036.063-.07.1-.1l.29-.3a1,1,0,0,0-.119-1.558,1,1,0,0,1-.289.976l-.29.3c-.032.031-.063.065-.1.1h0l-.906.95,0,0-.148.155A.949.949,0,0,1,116.154,319.753Z" transform="translate(-116.154 -317.215)" fill="#fed1a3" fill-rule="evenodd"/>
    </g>
    <g id="Group_16818" data-name="Group 16818" transform="translate(6.638 68.881)">
      <path id="Path_1548" data-name="Path 1548" d="M157.918,361.561l.661-.628.2-.188.124-.117a1.018,1.018,0,0,0-.063-1.543.967.967,0,0,1-.289.989l-.123.117-.35.332-.509.485-.029.025a.938.938,0,0,1-1.121.149,1.174,1.174,0,0,1-.228-.163,1.2,1.2,0,0,0,.581.716.936.936,0,0,0,1.121-.148Z" transform="translate(-156.188 -359.085)" fill="#fed1a3" fill-rule="evenodd"/>
    </g>
    <g id="Group_16819" data-name="Group 16819" transform="translate(8.134 70.654)">
      <path id="Path_1549" data-name="Path 1549" d="M193.724,402.253a.99.99,0,0,0,.045-1.445,1.116,1.116,0,0,1-.335.73l-.472.5a1,1,0,0,1-1.586.015,1.064,1.064,0,0,0,1.877.7Z" transform="translate(-191.376 -400.808)" fill="#fed1a3" fill-rule="evenodd"/>
    </g>
    <g id="Group_16820" data-name="Group 16820" transform="translate(13.757 67.152)">
      <path id="Path_1550" data-name="Path 1550" d="M325.323,320.3a.327.327,0,0,1-.224-.088l-1.323-1.232a.329.329,0,0,1,.448-.481l1.323,1.232a.329.329,0,0,1-.224.569Z" transform="translate(-323.671 -318.407)" fill="#f5a96c"/>
    </g>
    <g id="Group_16821" data-name="Group 16821" transform="translate(12.498 68.526)">
      <path id="Path_1551" data-name="Path 1551" d="M295.714,352.63a.327.327,0,0,1-.224-.088l-1.324-1.234a.329.329,0,0,1,.448-.481l1.324,1.234a.329.329,0,0,1-.224.569Z" transform="translate(-294.061 -350.739)" fill="#f5a96c"/>
    </g>
    <g id="Group_16822" data-name="Group 16822" transform="translate(11.756 70.342)">
      <path id="Path_1552" data-name="Path 1552" d="M277.6,394.741a.327.327,0,0,1-.223-.088l-.674-.627a.329.329,0,0,1,.447-.481l.674.627a.329.329,0,0,1-.224.569Z" transform="translate(-276.599 -393.458)" fill="#f5a96c"/>
    </g>
    <g id="Group_16823" data-name="Group 16823" transform="translate(13.376 55.999)">
      <path id="Path_1553" data-name="Path 1553" d="M315.2,58.779l4.428,4.263.864.832.318.306a.257.257,0,0,0,.361-.007l.873-.91.8-.833a.925.925,0,0,0-.026-1.3l-.773-.744-4.288-4.129a.92.92,0,0,0-1.3.026l-1.672,1.743a.256.256,0,0,0,.007.362Z" transform="translate(-314.712 -55.999)" fill="#fe636e" fill-rule="evenodd"/>
    </g>
    <g id="Group_16824" data-name="Group 16824" transform="translate(18.369 60.067)">
      <path id="Path_1554" data-name="Path 1554" d="M434.213,151.725h0Zm-.777,2.132-.873.911a.256.256,0,0,1-.361.006l.786.757.318.306a.257.257,0,0,0,.361-.007l.873-.91.8-.833a.925.925,0,0,0-.026-1.3l-.978-.941.083.081-.2-.2a.924.924,0,0,1,.022,1.3Z" transform="translate(-432.202 -151.725)" fill="#fb2a39" fill-rule="evenodd"/>
    </g>
  </g>
</svg>
