<svg id="Happy_1" xmlns="http://www.w3.org/2000/svg" width="28.721" height="28.721" viewBox="0 0 28.721 28.721">
  <circle id="Ellipse_89" data-name="Ellipse 89" cx="14.36" cy="14.36" r="14.36" fill="#ffca44"/>
  <path id="Path_1022" data-name="Path 1022" d="M436.9,456.166a3.724,3.724,0,0,0-2.935.871.9.9,0,0,1-1.075.128l-.011-.009c-.315-.221-.281-.8.164-1.187a5.135,5.135,0,0,1,4.048-1.2c.582.079.928.548.785.905l0,.013A.9.9,0,0,1,436.9,456.166Z" transform="translate(-427.534 -449.092)" fill="#e6e7e8" style="mix-blend-mode: multiply;isolation: isolate"/>
  <path id="Path_1023" data-name="Path 1023" d="M500.994,456.166a3.724,3.724,0,0,1,2.935.871.9.9,0,0,0,1.075.128l.011-.009c.315-.221.281-.8-.164-1.187a5.135,5.135,0,0,0-4.048-1.2c-.582.079-.928.548-.785.905l0,.013A.9.9,0,0,0,500.994,456.166Z" transform="translate(-481.64 -449.092)" fill="#e6e7e8" style="mix-blend-mode: multiply;isolation: isolate"/>
  <path id="Path_1024" data-name="Path 1024" d="M452.064,517.175a8.692,8.692,0,0,1-.414,1.255,9.087,9.087,0,0,1-5.1,4.957,9.336,9.336,0,0,1-6.753,0,9.1,9.1,0,0,1-5.1-4.957,8.8,8.8,0,0,1-.415-1.255.741.741,0,0,1,.722-.914h16.332A.74.74,0,0,1,452.064,517.175Z" transform="translate(-428.816 -498.556)" fill="#87594a"/>
  <path id="Path_1025" data-name="Path 1025" d="M469.219,548.182a9.337,9.337,0,0,1-6.752,0,5.844,5.844,0,0,1,6.752,0Z" transform="translate(-451.483 -523.35)" fill="#ee6571"/>
  <path id="Path_1026" data-name="Path 1026" d="M452.064,517.175a8.692,8.692,0,0,1-.414,1.255H434.7a8.8,8.8,0,0,1-.415-1.255.741.741,0,0,1,.722-.914h16.332A.74.74,0,0,1,452.064,517.175Z" transform="translate(-428.816 -498.556)" fill="#fff"/>
  <path id="Path_1027" data-name="Path 1027" d="M436.263,475.294a.815.815,0,0,1-.946-.255,4.03,4.03,0,0,0-5.812,0,.815.815,0,0,1-.946.255h0c-.276-.167-.262-.686.1-1.066a5.2,5.2,0,0,1,7.5,0c.362.38.377.9.1,1.066Z" transform="translate(-424.075 -463.487)" fill="#87594a"/>
  <path id="Path_1028" data-name="Path 1028" d="M497.659,475.294a.815.815,0,0,1-.946-.255,4.03,4.03,0,0,0-5.812,0,.815.815,0,0,1-.946.255h0c-.276-.167-.261-.686.1-1.066a5.2,5.2,0,0,1,7.5,0c.362.38.377.9.1,1.066Z" transform="translate(-473.422 -463.487)" fill="#87594a"/>
</svg>
