<svg xmlns="http://www.w3.org/2000/svg" width="20" height="20" viewBox="0 0 20 20">
  <g id="Happy" transform="translate(0.271 0.271)">
    <circle id="Ellipse_153" data-name="Ellipse 153" cx="10" cy="10" r="10" transform="translate(-0.271 -0.271)" fill="#ffd93b"/>
    <g id="Group_16886" data-name="Group 16886" transform="translate(4.234 6.348)">
      <path id="Path_1712" data-name="Path 1712" d="M115.709,169.239a1.891,1.891,0,0,1-.054.45,2.211,2.211,0,0,0-3.809,0,1.891,1.891,0,0,1-.054-.45,1.959,1.959,0,1,1,3.917,0Z" transform="translate(-111.792 -167.28)" fill="#3e4347"/>
      <path id="Path_1713" data-name="Path 1713" d="M301.293,169.239a1.891,1.891,0,0,1-.054.45,2.211,2.211,0,0,0-3.809,0,1.891,1.891,0,0,1-.054-.45,1.959,1.959,0,1,1,3.917,0Z" transform="translate(-290.305 -167.28)" fill="#3e4347"/>
      <path id="Path_1714" data-name="Path 1714" d="M136.206,335.787a.457.457,0,0,1,.663-.631,5.707,5.707,0,0,0,7.561,0,.457.457,0,0,1,.663.631A6.615,6.615,0,0,1,136.206,335.787Z" transform="translate(-135.155 -328.624)" fill="#3e4347"/>
    </g>
    <g id="Group_16887" data-name="Group 16887" transform="translate(2.665 11.022)">
      <circle id="Ellipse_154" data-name="Ellipse 154" cx="0.762" cy="0.762" r="0.762" transform="translate(13.128 2.161) rotate(-138.101)" fill="#e24b4b"/>
      <circle id="Ellipse_155" data-name="Ellipse 155" cx="0.762" cy="0.762" r="0.762" transform="translate(1.064 2.155) rotate(-134.307)" fill="#e24b4b"/>
    </g>
    <g id="Group_16888" data-name="Group 16888" transform="translate(3.712 3.859)">
      <path id="Path_1715" data-name="Path 1715" d="M302.661,102.665h0a.5.5,0,0,0,.583.453A3.579,3.579,0,0,1,306.9,104.4c-.027-.115-.68-2.077-3.564-2.45A.632.632,0,0,0,302.661,102.665Z" transform="translate(-294.862 -101.946)" fill="#e9b02c"/>
      <path id="Path_1716" data-name="Path 1716" d="M102.315,102.665h0a.5.5,0,0,1-.583.453A3.579,3.579,0,0,0,98.08,104.4c.027-.115.68-2.077,3.564-2.45A.633.633,0,0,1,102.315,102.665Z" transform="translate(-98.08 -101.946)" fill="#e9b02c"/>
    </g>
  </g>
</svg>
