<svg xmlns="http://www.w3.org/2000/svg" width="20.715" height="18.935" viewBox="0 0 20.715 18.935">
  <g id="Health" transform="translate(-105.65 -590.964)">
    <path id="Path_1757" data-name="Path 1757" d="M16.1,967.4a5.64,5.64,0,0,0-3.628,1.823,5.564,5.564,0,0,0,0,7.578l7.587,7.561a.741.741,0,0,0,1.071,0c2.531-2.642,4.885-4.919,7.416-7.561a5.562,5.562,0,0,0-.078-7.578A5.262,5.262,0,0,0,21.8,968.1l-1.344.861c-1.875-1.486-2.969-1.664-4.352-1.56Z" transform="translate(95.515 -375.54)" fill="none" stroke="#647791" stroke-width="1.7"/>
    <path id="Path_1758" data-name="Path 1758" d="M108.25,601.188h4.156l1.125-1.812,1.938,3.375c0-.125,2.719-5.75,2.719-5.75l2.188,4.188h3.594" fill="none" stroke="#647791" stroke-linecap="round" stroke-linejoin="round" stroke-width="1.5"/>
  </g>
</svg>
