<svg xmlns="http://www.w3.org/2000/svg" width="18.999" height="19" viewBox="0 0 18.999 19">
  <g id="Healthcare" transform="translate(-0.017)">
    <path id="Path_1528" data-name="Path 1528" d="M99.35,0a3.041,3.041,0,0,0-2.227,1A3.041,3.041,0,0,0,94.9,0,3.933,3.933,0,0,0,91,3.934C91,6.094,92.586,7.21,94.422,8.5a28.053,28.053,0,0,1,2.336,1.774l.364.316h0l.364-.315c.9-.778,1.755-1.388,2.51-1.925,1.815-1.292,3.249-2.313,3.249-4.418A3.933,3.933,0,0,0,99.35,0Z" transform="translate(-87.607)" fill="#ff6e83"/>
    <path id="Path_1529" data-name="Path 1529" d="M258.874,8.351c1.815-1.292,3.249-2.313,3.249-4.418A3.933,3.933,0,0,0,258.227,0,3.041,3.041,0,0,0,256,1v9.589l.364-.315C257.264,9.5,258.119,8.889,258.874,8.351Z" transform="translate(-246.484 0)" fill="#ff3b7f"/>
    <path id="Path_1530" data-name="Path 1530" d="M18.348,137.2c-1.136,0-1.429,5.277-1.451,5.388a4.327,4.327,0,0,1-1.578,2.607l-2.411,1.751-.668-.891,2.411-1.75c.955-.716,1.39-1.939.2-1.939a11,11,0,0,0-4.216,1.729,3.257,3.257,0,0,0-1.116,2.3A2.961,2.961,0,0,0,8.27,143.99a8.91,8.91,0,0,0-4.086-1.625c-1.194,0-.758,1.223.2,1.939l2.411,1.75-.668.891-2.411-1.751a4.327,4.327,0,0,1-1.578-2.607c-.022-.111-.315-5.388-1.451-5.388-.623.056-.694,1.87-.661,3.607.022,1.269.126,2.5.182,2.961.178,1.291,1.54,2.561,2.854,3.8a15.83,15.83,0,0,1,1.826,1.87,2.85,2.85,0,0,1,.735,1.674h7.793a2.85,2.85,0,0,1,.735-1.674,15.833,15.833,0,0,1,1.826-1.87c1.314-1.236,2.676-2.5,2.854-3.8.056-.456.16-1.692.182-2.961C19.042,139.069,18.972,137.255,18.348,137.2Z" transform="translate(0 -132.108)" fill="#ffe1ba"/>
    <path id="Path_1531" data-name="Path 1531" d="M260.63,149.434a15.834,15.834,0,0,1,1.826-1.87c1.314-1.236,2.676-2.5,2.854-3.8.056-.456.16-1.692.182-2.961.033-1.737-.037-3.551-.66-3.607-1.136,0-1.429,5.277-1.451,5.388a4.327,4.327,0,0,1-1.578,2.607l-2.411,1.751-.668-.891,2.411-1.75c.955-.716,1.39-1.939.2-1.939a11,11,0,0,0-4.216,1.729A3.257,3.257,0,0,0,256,146.4v4.71h3.9A2.85,2.85,0,0,1,260.63,149.434Z" transform="translate(-246.483 -132.108)" fill="#ffbfab"/>
    <path id="Path_1532" data-name="Path 1532" d="M213.227,92.113V91h-1.113v1.113H211v1.113h1.113V94.34h1.113V93.227h1.113V92.113Z" transform="translate(-203.154 -87.623)" fill="#ffe1ba"/>
    <path id="Path_1533" data-name="Path 1533" d="M256.557,93.227h1.113V92.113h-1.113V91H256v3.34h.557Z" transform="translate(-246.484 -87.623)" fill="#ffbfab"/>
  </g>
</svg>
