<svg xmlns="http://www.w3.org/2000/svg" width="19.317" height="17.124" viewBox="0 0 19.317 17.124">
  <g id="Heart_feel" transform="translate(-0.25 -3.25)">
    <path id="Path_452" data-name="Path 452" d="M17.444,2.915a4.739,4.739,0,0,0-7.567.545,7.215,7.215,0,0,0-.468.759A7.209,7.209,0,0,0,8.94,3.46a4.739,4.739,0,0,0-7.567-.544A5.7,5.7,0,0,0,0,6.7a6.985,6.985,0,0,0,1.924,4.583,42.828,42.828,0,0,0,4.815,4.5c.728.621,1.481,1.262,2.283,1.964l.024.021a.551.551,0,0,0,.726,0l.024-.021c.8-.7,1.555-1.343,2.283-1.964a42.822,42.822,0,0,0,4.814-4.5A6.985,6.985,0,0,0,18.817,6.7,5.7,5.7,0,0,0,17.444,2.915Zm-6.081,12.03c-.628.535-1.274,1.085-1.955,1.678-.681-.592-1.327-1.143-1.955-1.678C3.629,11.686,1.1,9.533,1.1,6.7A4.6,4.6,0,0,1,2.2,3.644,3.68,3.68,0,0,1,5,2.385,3.717,3.717,0,0,1,8.04,4.1a6.536,6.536,0,0,1,.844,1.678.551.551,0,0,0,1.048,0A6.536,6.536,0,0,1,10.776,4.1a3.639,3.639,0,0,1,5.84-.453,4.6,4.6,0,0,1,1.1,3.059C17.714,9.533,15.188,11.686,11.363,14.945Z" transform="translate(0.5 2.218)" fill="#fb1e4b" stroke="#fb1e4b" stroke-width="0.5"/>
    <path id="Path_988" data-name="Path 988" d="M.619,2.643C2.39,1.068,5.855.121,8.578,4.291c1.564-3.359,3.834-5.43,7.529-.811S8.578,15.932,8.578,15.932-3.81,6.579.619,2.643Z" transform="translate(1.657 3.31)" fill="#fb1e4b"/>
  </g>
</svg>
