<svg xmlns="http://www.w3.org/2000/svg" width="19.489" height="19.491" viewBox="0 0 19.489 19.491">
  <path id="home_r" d="M18.965,8.477h0L11.013.525a1.794,1.794,0,0,0-2.538,0L.529,8.471.521,8.48a1.794,1.794,0,0,0,1.194,3.057l.055,0h.317V17.39a2.1,2.1,0,0,0,2.1,2.1H7.3a.571.571,0,0,0,.571-.571V14.332a.959.959,0,0,1,.958-.958h1.835a.959.959,0,0,1,.958.958v4.587a.571.571,0,0,0,.571.571H15.3a2.1,2.1,0,0,0,2.1-2.1V11.539H17.7a1.794,1.794,0,0,0,1.27-3.062Zm0,0" transform="translate(0 0.001)" fill="#fff"/>
</svg>
