<svg xmlns="http://www.w3.org/2000/svg" width="28.721" height="28.721" viewBox="0 0 28.721 28.721">
  <g id="Like" transform="translate(-1.781 -1.781)">
    <circle id="Ellipse_90" data-name="Ellipse 90" cx="14.36" cy="14.36" r="14.36" transform="translate(1.781 1.781)" fill="#0a5f9b"/>
    <g id="Group_16103" data-name="Group 16103" transform="translate(7.46 7.023)">
      <path id="Path_1029" data-name="Path 1029" d="M1195.863,460.937a1.4,1.4,0,0,0-1.4-1.395H1189.8a1.207,1.207,0,0,1-.021-.487,7.692,7.692,0,0,1,.841-2.147c.345-.6.484-3.467-.15-3.9a1.4,1.4,0,0,0-1.94.358l-.789,2.881-1.568,2.275c-.283.411-1.752,2.109-1.752,2.109v7.615l2.442.708h5.4a28.755,28.755,0,0,1,2.361-3.254,1.389,1.389,0,0,1,.671-2.391,1.384,1.384,0,0,1,.561-2.369Z" transform="translate(-1178.5 -452.758)" fill="#fff"/>
      <rect id="Rectangle_3085" data-name="Rectangle 3085" width="5.084" height="8.988" transform="translate(0 7.205)" fill="#fff"/>
    </g>
  </g>
</svg>
