<svg xmlns="http://www.w3.org/2000/svg" width="13.329" height="13.331" viewBox="0 0 13.329 13.331">
  <g id="link" transform="translate(-0.039 0)">
    <g id="Group_16890" data-name="Group 16890" transform="translate(0.039 4.285)">
      <g id="Group_16889" data-name="Group 16889" transform="translate(0)">
        <path id="Path_1584" data-name="Path 1584" d="M8.172,165.525a3.024,3.024,0,0,0-.522-.42,3.11,3.11,0,0,0-3.876.42L.948,168.352a3.11,3.11,0,0,0,4.4,4.4l2.332-2.332a.222.222,0,0,0-.158-.38H7.43a3.739,3.739,0,0,1-1.422-.275.222.222,0,0,0-.242.049l-1.677,1.679A1.334,1.334,0,0,1,2.2,169.607l2.837-2.834a1.333,1.333,0,0,1,1.884,0,.911.911,0,0,0,1.248,0,.88.88,0,0,0,0-1.248Z" transform="translate(-0.039 -164.614)" fill="#fff"/>
      </g>
    </g>
    <g id="Group_16892" data-name="Group 16892" transform="translate(4.971 0)">
      <g id="Group_16891" data-name="Group 16891" transform="translate(0 0)">
        <path id="Path_1585" data-name="Path 1585" d="M196.987.911a3.11,3.11,0,0,0-4.4,0l-2.33,2.328a.223.223,0,0,0,.162.38h.082a3.732,3.732,0,0,1,1.419.278.222.222,0,0,0,.242-.049l1.673-1.67a1.334,1.334,0,0,1,1.886,1.886L193.64,6.145l-.018.02-.729.724a1.333,1.333,0,0,1-1.884,0,.911.911,0,0,0-1.248,0,.886.886,0,0,0,0,1.253,3.084,3.084,0,0,0,.889.622c.047.022.093.04.14.06s.1.036.142.053.1.033.142.047l.131.036c.089.022.178.04.269.056a3.092,3.092,0,0,0,.331.031h.169l.133-.016c.049,0,.1-.013.158-.013h.076l.153-.022.071-.013.129-.027h.024a3.11,3.11,0,0,0,1.442-.817l2.828-2.828A3.11,3.11,0,0,0,196.987.911Z" transform="translate(-189.502 0)" fill="#fff"/>
      </g>
    </g>
  </g>
</svg>
