<svg xmlns="http://www.w3.org/2000/svg" width="25.05" height="20" viewBox="0 0 25.05 20">
  <g id="Photo_Memory" transform="translate(-16.113 -485)">
    <rect id="Rectangle_3199" data-name="Rectangle 3199" width="22.697" height="14.118" transform="translate(18.465 487.706)" fill="#117994"/>
    <g id="image-gallery_1_" data-name="image-gallery (1)" transform="translate(16.113 485)">
      <g id="Group_16351" data-name="Group 16351" transform="translate(0 0)">
        <path id="Path_1517" data-name="Path 1517" d="M33.251,3.05H14.036a2.836,2.836,0,0,0-2.923,2.733V20.306a2.844,2.844,0,0,0,2.923,2.744H33.251a2.834,2.834,0,0,0,2.912-2.744V5.784A2.826,2.826,0,0,0,33.251,3.05Zm.857,15.741a.918.918,0,0,1-.805.443H14.333A.931.931,0,0,1,13.6,18.9a.812.812,0,0,1-.142-.758l3.608-8.313a1.379,1.379,0,0,1,1.117-.918,1.449,1.449,0,0,1,1.371.538l3.293,5.343a1.462,1.462,0,0,0,1.933.327L27.812,11a1.476,1.476,0,0,1,1.064-.2,1.406,1.406,0,0,1,.9.572l4.292,6.543A.806.806,0,0,1,34.108,18.791Z" transform="translate(-11.113 -3.05)" fill="#50b4ce"/>
      </g>
    </g>
  </g>
</svg>
