<svg xmlns="http://www.w3.org/2000/svg" width="17.762" height="22.518" viewBox="0 0 17.762 22.518">
  <g id="Plant" transform="translate(-54.069)">
    <path id="Path_1585" data-name="Path 1585" d="M290.446,45.536a8.913,8.913,0,0,1-1.062,7.328,4.758,4.758,0,0,1-3.673,2.482,4.758,4.758,0,0,1-.341-4.42A8.913,8.913,0,0,1,290.446,45.536Z" transform="translate(-220.771 -43.533)" fill="#80c56e"/>
    <path id="Path_1586" data-name="Path 1586" d="M305.97,45.536l-4.736,9.81h0a4.758,4.758,0,0,0,3.673-2.482A8.913,8.913,0,0,0,305.97,45.536Z" transform="translate(-236.294 -43.533)" fill="#66ad66"/>
    <path id="Path_1588" data-name="Path 1588" d="M95.344,45.536a8.913,8.913,0,0,0,1.062,7.328,4.758,4.758,0,0,0,3.673,2.482,4.758,4.758,0,0,0,.341-4.42A8.913,8.913,0,0,0,95.344,45.536Z" transform="translate(-39.119 -43.533)" fill="#80c56e"/>
    <path id="Path_1589" data-name="Path 1589" d="M108.171,50.926a8.913,8.913,0,0,0-5.077-5.39c2.8,5.349,4.311,8.775,4.747,9.794A4.773,4.773,0,0,0,108.171,50.926Z" transform="translate(-46.869 -43.533)" fill="#66ad66"/>
    <path id="Path_1590" data-name="Path 1590" d="M175.872,0c-.338.328-4.24,4.282-3.619,11.466a7.726,7.726,0,0,0,3.619,6.223,7.726,7.726,0,0,0,3.619-6.223C180.112,4.282,176.21.328,175.872,0Z" transform="translate(-112.922)" fill="#80c56e"/>
    <path id="Path_1591" data-name="Path 1591" d="M256,0V17.689a7.726,7.726,0,0,0,3.619-6.223C260.24,4.282,256.338.328,256,0Z" transform="translate(-193.05)" fill="#66ad66"/>
    <path id="Path_1592" data-name="Path 1592" d="M264.355,144.2a14.138,14.138,0,0,0,.486-4.869,44.239,44.239,0,0,0-4.968,2.926A10.081,10.081,0,0,0,256,148.018h3.246A5.315,5.315,0,0,0,264.355,144.2Z" transform="translate(-193.05 -133.206)" fill="#80c56e"/>
    <path id="Path_1593" data-name="Path 1593" d="M264.841,139.333s-3.652,7.215-8.841,8.684h3.246a5.315,5.315,0,0,0,5.109-3.815A14.14,14.14,0,0,0,264.841,139.333Z" transform="translate(-193.05 -133.205)" fill="#66ad66"/>
    <path id="Path_1594" data-name="Path 1594" d="M54.6,144.2a14.139,14.139,0,0,1-.486-4.869,44.237,44.237,0,0,1,4.968,2.926,10.081,10.081,0,0,1,3.873,5.758H59.7A5.314,5.314,0,0,1,54.6,144.2Z" transform="translate(0 -133.206)" fill="#80c56e"/>
    <path id="Path_1595" data-name="Path 1595" d="M63.83,148.017a10.081,10.081,0,0,0-3.873-5.758,44.239,44.239,0,0,0-4.968-2.926S58.641,146.548,63.83,148.017Z" transform="translate(-0.879 -133.205)" fill="#66ad66"/>
    <path id="Path_1596" data-name="Path 1596" d="M130.2,348.426h-4.7a2.585,2.585,0,0,1-2.541-2.112l-1.007-5.413h11.791l-1.007,5.413A2.585,2.585,0,0,1,130.2,348.426Z" transform="translate(-64.901 -325.908)" fill="#fec37d"/>
    <path id="Path_1597" data-name="Path 1597" d="M261.071,340.9l-1.007,5.413a2.585,2.585,0,0,1-2.541,2.112H259.8a2.585,2.585,0,0,0,2.541-2.112l1.007-5.413h-2.281Z" transform="translate(-194.506 -325.908)" fill="#f9ae5d"/>
    <path id="Path_1598" data-name="Path 1598" d="M110.023,329.638h-12.2a.9.9,0,0,1-.9-.9h0a.9.9,0,0,1,.9-.9h12.2a.9.9,0,0,1,.9.9h0A.9.9,0,0,1,110.023,329.638Z" transform="translate(-40.972 -313.428)" fill="#f2a559"/>
    <path id="Path_1599" data-name="Path 1599" d="M363.538,327.846H362.1v1.791h1.434a.9.9,0,0,0,.9-.9h0A.9.9,0,0,0,363.538,327.846Z" transform="translate(-294.487 -313.427)" fill="#ea8f3d"/>
  </g>
</svg>
