<svg xmlns="http://www.w3.org/2000/svg" width="32.769" height="33.533" viewBox="0 0 32.769 33.533">
  <g id="reminder" transform="translate(-47.785 -20.652)">
    <path id="Path_535" data-name="Path 535" d="M184.452,304.027a3.48,3.48,0,1,1-3.48-3.48A3.48,3.48,0,0,1,184.452,304.027Zm0,0" transform="translate(-117.686 -253.954)" fill="#fc8c29"/>
    <path id="Path_536" data-name="Path 536" d="M174.78,301.944a4.113,4.113,0,1,1,4.113-4.112A4.117,4.117,0,0,1,174.78,301.944Zm0-6.959a2.847,2.847,0,1,0,2.847,2.847A2.85,2.85,0,0,0,174.78,294.985Zm0,0" transform="translate(-111.494 -247.759)" fill="#055f9b"/>
    <path id="Path_538" data-name="Path 538" d="M182.553,26.98h-4.429a.633.633,0,0,1-.633-.633V23.5a2.847,2.847,0,1,1,5.694,0v2.847a.633.633,0,0,1-.633.633Zm-3.8-1.266h3.163V23.5a1.582,1.582,0,1,0-3.163,0Zm0,0" transform="translate(-117.685)" fill="#055f9b"/>
    <path id="Path_539" data-name="Path 539" d="M81.5,83.125h-.949V73a11.389,11.389,0,0,0-22.777,0V83.125h-.949a2.215,2.215,0,0,0,0,4.429H81.5a2.215,2.215,0,0,0,0-4.429Zm0,0" transform="translate(-6.195 -37.164)" fill="#ffce56"/>
    <path id="Path_540" data-name="Path 540" d="M75.308,81.992H50.633a2.847,2.847,0,1,1,0-5.694h.316V66.807a12.021,12.021,0,1,1,24.042,0V76.3h.316a2.847,2.847,0,0,1,0,5.694ZM50.633,77.563a1.582,1.582,0,0,0,0,3.163H75.308a1.582,1.582,0,1,0,0-3.163h-.949a.633.633,0,0,1-.633-.633V66.807a10.756,10.756,0,0,0-21.512,0V76.93a.633.633,0,0,1-.633.633Zm0,0" transform="translate(0 -30.97)" fill="#055f9b"/>
    <path id="Path_541" data-name="Path 541" d="M285.621,109.562A5.562,5.562,0,1,1,280.059,104,5.562,5.562,0,0,1,285.621,109.562Zm0,0" transform="translate(-205.699 -75.623)" fill="#fff"/>
    <g id="Group_310" data-name="Group 310" transform="translate(54.113 27.745)">
      <path id="Path_542" data-name="Path 542" d="M273.863,109.566a6.195,6.195,0,1,1,6.195-6.195A6.2,6.2,0,0,1,273.863,109.566Zm0-11.124a4.929,4.929,0,1,0,4.929,4.929A4.935,4.935,0,0,0,273.863,98.442Zm0,0" transform="translate(-253.617 -97.176)" fill="#055f9b"/>
      <path id="Path_543" data-name="Path 543" d="M310.045,136.47a.633.633,0,0,1-.447-1.08l1.508-1.507v-2.156a.633.633,0,1,1,1.265,0v2.418a.632.632,0,0,1-.185.447l-1.693,1.693A.63.63,0,0,1,310.045,136.47Zm0,0" transform="translate(-291.492 -127.951)" fill="#03426b"/>
      <path id="Path_544" data-name="Path 544" d="M213.523,288.16h-1.265a.633.633,0,1,1,0-1.265h1.265a.633.633,0,1,1,0,1.265Zm0,0" transform="translate(-202.767 -269.311)" fill="#055f9b"/>
      <path id="Path_545" data-name="Path 545" d="M123.225,288.16h-6.538a.633.633,0,0,1,0-1.265h6.538a.633.633,0,0,1,0,1.265Zm0,0" transform="translate(-116.055 -269.311)" fill="#055f9b"/>
    </g>
    <path id="Path_546" data-name="Path 546" d="M96.625,81.658v2.61c2.27,1.19,5.7.1,8.134-2.745,2.73-3.192,3.167-7.375.975-9.344a3.78,3.78,0,0,0-.891-.6,10.176,10.176,0,0,0-8.218,10.075Zm0,0" transform="translate(-44.313 -46.21)" fill="#ffec95"/>
  </g>
</svg>
