<svg xmlns="http://www.w3.org/2000/svg" width="19.601" height="22.168" viewBox="0 0 19.601 22.168">
  <g id="reminder_r" transform="translate(-8 -2.5)">
    <path id="Path_502" data-name="Path 502" d="M26.6,17.294H25.081l-.607-1.89a7.661,7.661,0,0,1-.35-2.287V11.344a6.323,6.323,0,0,0-5.32-6.23V3.5a1,1,0,0,0-2.007,0v1.61a6.323,6.323,0,0,0-5.32,6.23v1.773a7.661,7.661,0,0,1-.35,2.287l-.607,1.89H9A1,1,0,1,0,9,19.3H26.6a1,1,0,0,0,1-1A1.011,1.011,0,0,0,26.6,17.294Z" transform="translate(0 0)" fill="#fff"/>
    <path id="Path_503" data-name="Path 503" d="M34.8,82.3a3.547,3.547,0,0,0,7.094,0Z" transform="translate(-20.546 -61.179)" fill="#fff"/>
  </g>
</svg>
