<svg xmlns="http://www.w3.org/2000/svg" width="14.513" height="19.244" viewBox="0 0 14.513 19.244">
  <g id="Repost_line" transform="translate(-5.9 19.244) rotate(-90)">
    <g id="Group_16004" data-name="Group 16004" transform="translate(0 5.9)">
      <path id="Path_985" data-name="Path 985" d="M11.226,18.769H6.415a1.608,1.608,0,0,1-1.6-1.6v-8.5l1.844,1.844a.775.775,0,0,0,1.123,0,.775.775,0,0,0,0-1.123L4.57,6.181l-.12-.12-.04-.04c-.04,0-.04-.04-.08-.04s-.04,0-.08-.04c-.04,0-.04,0-.08-.04a.883.883,0,0,1-.321.04c-.04,0-.04,0-.08.04-.04,0-.04,0-.08.04a.124.124,0,0,0-.08.04.039.039,0,0,0-.04.04c-.04,0-.08.04-.12.08L.241,9.388a.775.775,0,0,0,0,1.123.775.775,0,0,0,1.123,0L3.207,8.666v8.5a3.217,3.217,0,0,0,3.207,3.207h4.811a.8.8,0,1,0,0-1.6Z" transform="translate(0 -5.9)"/>
      <path id="Path_986" data-name="Path 986" d="M29.787,15.863a.775.775,0,0,0-1.123,0L26.82,17.707v-8.5A3.217,3.217,0,0,0,23.613,6H18.8a.8.8,0,1,0,0,1.6h4.811a1.608,1.608,0,0,1,1.6,1.6v8.5l-1.844-1.844a.794.794,0,1,0-1.123,1.123l3.207,3.207.12.12.04.04c.04,0,.04.04.08.04s.04,0,.08.04c.04,0,.04,0,.08.04h.321c.04,0,.04,0,.08-.04.04,0,.04,0,.08-.04.04,0,.04-.04.08-.04a.039.039,0,0,0,.04-.04l.12-.12,3.207-3.207A.775.775,0,0,0,29.787,15.863Z" transform="translate(-10.783 -5.96)"/>
    </g>
  </g>
</svg>
