<svg xmlns="http://www.w3.org/2000/svg" width="23.817" height="21.772" viewBox="0 0 23.817 21.772">
  <g id="Report" transform="translate(0 -20.882)">
    <g id="Group_16945" data-name="Group 16945" transform="translate(0 20.882)">
      <path id="Path_1751" data-name="Path 1751" d="M219.449,333.382a1.224,1.224,0,1,0,0,2.448,1.224,1.224,0,0,0,0-2.448Z" transform="translate(-207.541 -318.082)" fill="#666"/>
      <path id="Path_1752" data-name="Path 1752" d="M23.237,40.52a4.18,4.18,0,0,0,.01-4.23L15.58,23.012a4.224,4.224,0,0,0-7.334,0L.569,36.3a4.24,4.24,0,0,0,3.672,6.355H19.555A4.216,4.216,0,0,0,23.237,40.52Zm-1.665-.96a2.314,2.314,0,0,1-2.022,1.17H4.236a2.282,2.282,0,0,1-2-1.146,2.317,2.317,0,0,1,0-2.335L9.91,23.962a2.306,2.306,0,0,1,4,0l7.672,13.288A2.286,2.286,0,0,1,21.573,39.56Z" transform="translate(0 -20.882)" fill="#666"/>
      <path id="Path_1753" data-name="Path 1753" d="M218.67,157.211a1.331,1.331,0,0,0-.945,1.337c.029.387.054.778.083,1.165.083,1.474.166,2.918.25,4.392a.9.9,0,0,0,.916.862.915.915,0,0,0,.916-.891c0-.3,0-.583.029-.891.054-.945.113-1.89.166-2.835.029-.612.083-1.224.113-1.836a1.512,1.512,0,0,0-.113-.612A1.227,1.227,0,0,0,218.67,157.211Z" transform="translate(-207.065 -150.503)" fill="#666"/>
    </g>
  </g>
</svg>
