<svg version="1.2" baseProfile="tiny-ps" xmlns="http://www.w3.org/2000/svg" viewBox="0 0 15 20" width="15" height="20">
	<title>Repost_line-svg</title>
	<style>
		tspan { white-space:pre }
		.shp0 { fill: #000000 } 
	</style>
	<g id="Repost_line">
		<g id="Group_16004">
			<path id="Path_985" class="shp0" d="M12.87 8.02L12.87 12.83C12.87 13.04 12.83 13.25 12.75 13.44C12.66 13.63 12.55 13.81 12.4 13.96C12.25 14.11 12.07 14.22 11.88 14.31C11.69 14.39 11.48 14.43 11.27 14.43L2.77 14.43L4.61 12.59C4.69 12.51 4.75 12.43 4.79 12.33C4.83 12.23 4.85 12.13 4.85 12.02C4.85 11.92 4.83 11.81 4.79 11.72C4.75 11.62 4.69 11.53 4.61 11.46C4.54 11.39 4.45 11.33 4.36 11.28C4.26 11.24 4.16 11.22 4.05 11.22C3.95 11.22 3.84 11.24 3.75 11.28C3.65 11.33 3.56 11.39 3.49 11.46L0.28 14.67L0.16 14.79L0.12 14.83C0.12 14.87 0.08 14.87 0.08 14.91C0.08 14.95 0.08 14.95 0.04 14.99C0.04 15.03 0.04 15.03 0 15.07C0.01 15.1 0.02 15.13 0.02 15.15C0.03 15.18 0.03 15.21 0.04 15.23C0.04 15.26 0.04 15.29 0.04 15.31C0.04 15.34 0.04 15.37 0.04 15.39C0.04 15.44 0.04 15.44 0.08 15.48C0.08 15.52 0.08 15.52 0.12 15.55C0.12 15.56 0.12 15.57 0.13 15.58C0.13 15.58 0.13 15.59 0.13 15.6C0.14 15.61 0.14 15.61 0.15 15.62C0.15 15.62 0.16 15.63 0.16 15.64C0.16 15.64 0.16 15.65 0.16 15.65C0.17 15.66 0.17 15.66 0.17 15.66C0.18 15.67 0.18 15.67 0.19 15.67C0.19 15.67 0.2 15.68 0.2 15.68C0.2 15.71 0.24 15.76 0.28 15.8L3.49 19C3.56 19.08 3.65 19.14 3.74 19.18C3.84 19.22 3.94 19.24 4.05 19.24C4.15 19.24 4.26 19.22 4.35 19.18C4.45 19.14 4.54 19.08 4.61 19C4.69 18.93 4.75 18.84 4.79 18.75C4.83 18.65 4.85 18.55 4.85 18.44C4.85 18.34 4.83 18.23 4.79 18.14C4.75 18.04 4.69 17.95 4.61 17.88L2.77 16.04L11.27 16.04C11.69 16.04 12.1 15.95 12.49 15.79C12.88 15.63 13.23 15.39 13.53 15.09C13.83 14.8 14.06 14.44 14.23 14.06C14.39 13.67 14.47 13.25 14.47 12.83L14.47 8.02C14.47 7.81 14.39 7.6 14.24 7.45C14.09 7.3 13.89 7.22 13.67 7.22C13.46 7.22 13.26 7.3 13.11 7.45C12.96 7.6 12.87 7.81 12.87 8.02L12.87 8.02Z" />
			<path id="Path_986" class="shp0" d="M9.9 0.24C9.83 0.31 9.77 0.4 9.72 0.5C9.68 0.59 9.66 0.7 9.66 0.8C9.66 0.91 9.68 1.01 9.72 1.11C9.77 1.2 9.83 1.29 9.9 1.36L11.75 3.21L3.25 3.21C2.83 3.21 2.41 3.29 2.02 3.45C1.63 3.62 1.28 3.85 0.98 4.15C0.68 4.45 0.45 4.8 0.29 5.19C0.13 5.58 0.04 5.99 0.04 6.41L0.04 11.23C0.04 11.44 0.12 11.64 0.27 11.79C0.42 11.94 0.63 12.03 0.84 12.03C1.05 12.03 1.26 11.94 1.41 11.79C1.56 11.64 1.64 11.44 1.64 11.23L1.64 6.42C1.64 6.21 1.68 6 1.76 5.8C1.84 5.61 1.96 5.44 2.11 5.29C2.26 5.14 2.44 5.02 2.63 4.94C2.82 4.86 3.03 4.82 3.24 4.82L11.74 4.82L9.9 6.66C9.75 6.81 9.66 7.01 9.66 7.22C9.66 7.43 9.75 7.63 9.9 7.78C10.04 7.93 10.25 8.02 10.46 8.02C10.67 8.02 10.87 7.93 11.02 7.78L14.23 4.58L14.35 4.46L14.39 4.42C14.39 4.38 14.43 4.38 14.43 4.34C14.43 4.3 14.43 4.3 14.47 4.26C14.47 4.22 14.47 4.22 14.51 4.18L14.51 3.86C14.51 3.82 14.51 3.82 14.47 3.78C14.47 3.74 14.47 3.74 14.43 3.7C14.43 3.66 14.39 3.66 14.39 3.62C14.39 3.61 14.39 3.6 14.38 3.6C14.38 3.59 14.38 3.59 14.37 3.59C14.37 3.58 14.37 3.58 14.36 3.58C14.36 3.58 14.35 3.57 14.35 3.58L14.23 3.46L11.02 0.25C10.95 0.17 10.86 0.11 10.77 0.07C10.67 0.03 10.57 0.01 10.46 0.01C10.36 0.01 10.26 0.03 10.16 0.07C10.06 0.11 9.98 0.17 9.9 0.24Z" />
		</g>
	</g>
</svg>