<svg version="1.2" baseProfile="tiny-ps" xmlns="http://www.w3.org/2000/svg" viewBox="0 0 20 18" width="20" height="18">
	<title>Share_Line-svg</title>
	<style>
		tspan { white-space:pre }
		.shp0 { fill: #000000;stroke: #ffffff;stroke-width: 0.1 } 
	</style>
	<path id="Share_Line" fill-rule="evenodd" class="shp0" d="M0.82 17.41C0.8 17.41 0.79 17.41 0.77 17.4C0.76 17.4 0.74 17.4 0.73 17.4C0.71 17.39 0.7 17.39 0.68 17.39C0.6 17.37 0.51 17.33 0.43 17.29C0.36 17.24 0.29 17.18 0.23 17.11C0.17 17.04 0.13 16.96 0.1 16.87C0.07 16.79 0.05 16.7 0.05 16.61L0.05 14.98C0.05 13.59 0.33 12.22 0.86 10.94C1.39 9.65 2.17 8.49 3.15 7.5C4.13 6.52 5.3 5.74 6.58 5.21C7.87 4.68 9.24 4.4 10.63 4.4L10.9 4.4L10.9 0.88C10.9 0.71 10.95 0.55 11.04 0.42C11.13 0.28 11.26 0.18 11.41 0.12C11.56 0.06 11.73 0.04 11.88 0.08C12.04 0.11 12.19 0.19 12.3 0.31L19.35 7.63C19.43 7.71 19.48 7.8 19.52 7.9C19.56 7.99 19.58 8.1 19.58 8.2C19.58 8.3 19.56 8.41 19.52 8.5C19.48 8.6 19.43 8.69 19.35 8.76L12.3 16.09C12.19 16.21 12.04 16.29 11.88 16.32C11.73 16.35 11.56 16.34 11.41 16.28C11.26 16.22 11.13 16.11 11.04 15.98C10.95 15.85 10.9 15.69 10.9 15.52L10.9 12L9.61 12C8.78 12 7.96 12.11 7.16 12.33C6.37 12.56 5.6 12.89 4.9 13.33C4.2 13.76 3.56 14.29 3 14.91C2.44 15.52 1.97 16.21 1.61 16.95C1.57 17.02 1.53 17.08 1.48 17.14C1.42 17.19 1.36 17.24 1.3 17.28C1.23 17.32 1.16 17.35 1.09 17.38C1.02 17.4 0.94 17.41 0.86 17.41C0.85 17.41 0.83 17.41 0.82 17.41ZM10.63 6.03C9.55 6.03 8.48 6.23 7.47 6.61C6.46 6.99 5.52 7.56 4.71 8.27C3.9 8.99 3.23 9.84 2.72 10.8C2.21 11.75 1.88 12.79 1.75 13.86C2.24 13.31 2.79 12.81 3.39 12.38C3.99 11.94 4.63 11.57 5.31 11.27C5.98 10.97 6.69 10.74 7.41 10.59C8.14 10.44 8.87 10.36 9.61 10.37L11.71 10.37C11.82 10.37 11.93 10.39 12.02 10.43C12.12 10.47 12.21 10.53 12.29 10.61C12.36 10.68 12.42 10.77 12.47 10.87C12.51 10.97 12.53 11.07 12.53 11.18L12.53 13.5L17.64 8.2L12.53 2.89L12.53 5.22C12.53 5.32 12.51 5.43 12.47 5.53C12.42 5.63 12.36 5.72 12.29 5.79C12.21 5.87 12.12 5.93 12.02 5.97C11.93 6.01 11.82 6.03 11.71 6.03L10.63 6.03Z" />
</svg>