<svg xmlns="http://www.w3.org/2000/svg" width="18" height="18" viewBox="0 0 18 18">
  <g id="Smiling" transform="translate(-0.138 -0.138)">
    <circle id="Ellipse_137" data-name="Ellipse 137" cx="9" cy="9" r="9" transform="translate(0.138 0.138)" fill="#ffca28"/>
    <g id="Group_16834" data-name="Group 16834" transform="translate(3.437 4.598)">
      <path id="Path_1600" data-name="Path 1600" d="M291.663,131.165a.569.569,0,0,1-.569-.569,1.138,1.138,0,0,0-2.276,0,.569.569,0,1,1-1.138,0,2.276,2.276,0,0,1,4.552,0A.568.568,0,0,1,291.663,131.165Z" transform="translate(-280.852 -128.32)" fill="#6d4c41"/>
      <path id="Path_1601" data-name="Path 1601" d="M99.663,131.165a.569.569,0,0,1-.569-.569,1.138,1.138,0,1,0-2.276,0,.569.569,0,0,1-1.138,0,2.276,2.276,0,0,1,4.552,0A.568.568,0,0,1,99.663,131.165Z" transform="translate(-95.68 -128.32)" fill="#6d4c41"/>
    </g>
    <path id="Path_1602" data-name="Path 1602" d="M83.445,288.546a.57.57,0,0,0-.453-.226H70.953a.571.571,0,0,0-.548.724,6.825,6.825,0,0,0,13.134,0A.564.564,0,0,0,83.445,288.546Z" transform="translate(-67.846 -278.032)" fill="#fafafa"/>
  </g>
</svg>
