<svg xmlns="http://www.w3.org/2000/svg" width="20" height="15" viewBox="0 0 20 15">
  <g id="sort" transform="translate(-2 -5)">
    <g id="Group_386" data-name="Group 386">
      <path id="Path_823" data-name="Path 823" d="M6,8.414,3.707,10.707A1,1,0,1,1,2.293,9.293l4-4a1,1,0,0,1,1.414,0l4,4a1,1,0,1,1-1.414,1.414L8,8.414V19.077A.964.964,0,0,1,7,20a.964.964,0,0,1-1-.923Zm10,8.172V5.923a1,1,0,0,1,2,0V16.586l2.293-2.293a1,1,0,0,1,1.414,1.414l-4,4a1,1,0,0,1-1.414,0l-4-4a1,1,0,0,1,1.414-1.414Z" fill="#111"/>
    </g>
  </g>
</svg>
