<svg xmlns="http://www.w3.org/2000/svg" width="21.415" height="17.012" viewBox="0 0 21.415 17.012">
  <g id="speaker-filled-audio-tool" transform="translate(-70 215.435)">
    <path id="Path_990" data-name="Path 990" d="M10.714,24.746a.972.972,0,0,1-1.593.749L3.8,21.089H.972A.972.972,0,0,1,0,20.117V16.242a.973.973,0,0,1,.972-.973H3.8l5.317-4.406a.973.973,0,0,1,1.593.749V24.746Zm3.737-1.52-.07,0a.971.971,0,0,1-.688-.285l-.13-.131a.972.972,0,0,1-.094-1.267,5.655,5.655,0,0,0-.15-6.93.972.972,0,0,1,.067-1.3l.13-.13a.951.951,0,0,1,.736-.283.974.974,0,0,1,.7.356,7.788,7.788,0,0,1,.2,9.58A.973.973,0,0,1,14.451,23.226Zm4.021,3.005a.973.973,0,0,1-.7.344h-.041a.972.972,0,0,1-.688-.285l-.128-.128a.973.973,0,0,1-.057-1.314,10.364,10.364,0,0,0-.172-13.541.973.973,0,0,1,.039-1.331l.128-.128a.947.947,0,0,1,.717-.286.973.973,0,0,1,.7.326,12.487,12.487,0,0,1,.2,16.34Z" transform="translate(70 -225)" fill="#fff"/>
  </g>
</svg>
