<svg xmlns="http://www.w3.org/2000/svg" width="158" height="167.755" viewBox="0 0 158 167.755">
  <g id="Thank_You" data-name="Thank You" transform="translate(-101 -162.245)">
    <g id="nice" transform="translate(75 193.621)">
      <g id="Group_16870" data-name="Group 16870" transform="translate(61 27.821)">
        <path id="Path_1693" data-name="Path 1693" d="M88.365,169.889H64.421A3.421,3.421,0,0,1,61,166.469V125.421A3.421,3.421,0,0,1,64.421,122H88.365a6.841,6.841,0,0,1,6.841,6.841v34.207A6.841,6.841,0,0,1,88.365,169.889Z" transform="translate(-61 -122)" fill="#64e1dc"/>
      </g>
      <path id="Path_1694" data-name="Path 1694" d="M61,227v20.524a3.421,3.421,0,0,0,3.421,3.421H88.365a6.842,6.842,0,0,0,6.841-6.841V227Z" transform="translate(0 -175.234)" fill="#00c8c7"/>
      <g id="Nice_3_" transform="translate(61 55.415)">
        <g id="Group_16871" data-name="Group 16871" transform="translate(0 27.137)">
          <path id="Path_1695" data-name="Path 1695" d="M184.421,362A3.419,3.419,0,0,0,181,365.421v27.365a3.421,3.421,0,1,0,6.841,0V365.421A3.419,3.419,0,0,0,184.421,362Z" transform="translate(-153.635 -362)" fill="#00c8c7"/>
          <path id="Path_1696" data-name="Path 1696" d="M78.1,362a3.419,3.419,0,0,0-3.421,3.421v12.874l-7.2-14.4A3.42,3.42,0,0,0,61,365.421v27.365a3.421,3.421,0,0,0,6.841,0V379.912l7.2,14.4a3.42,3.42,0,0,0,6.481-1.53V365.421A3.419,3.419,0,0,0,78.1,362Z" transform="translate(-61 -362)" fill="#00c8c7"/>
          <path id="Path_1697" data-name="Path 1697" d="M251.262,368.841a3.425,3.425,0,0,1,3.421,3.421,3.421,3.421,0,0,0,6.841,0,10.262,10.262,0,0,0-20.524,0v13.683a10.262,10.262,0,0,0,20.524,0,3.421,3.421,0,0,0-6.841,0,3.421,3.421,0,0,1-6.841,0V372.262A3.425,3.425,0,0,1,251.262,368.841Z" transform="translate(-199.952 -362)" fill="#00c8c7"/>
          <path id="Path_1698" data-name="Path 1698" d="M378.1,389.365H367.841v-6.841h3.421a3.421,3.421,0,0,0,0-6.841h-3.421v-6.841H378.1a3.421,3.421,0,1,0,0-6.841H364.421A3.419,3.419,0,0,0,361,365.421v27.365a3.419,3.419,0,0,0,3.421,3.421H378.1a3.421,3.421,0,0,0,0-6.841Z" transform="translate(-292.587 -362)" fill="#00c8c7"/>
        </g>
        <g id="Group_16872" data-name="Group 16872" transform="translate(13.341 0)">
          <ellipse id="Ellipse_147" data-name="Ellipse 147" cx="3.5" cy="3" rx="3.5" ry="3" transform="translate(0.128 -0.035)" fill="#593b35"/>
        </g>
      </g>
      <path id="Path_1699" data-name="Path 1699" d="M235.49,67.647l6.925-27.816a10.33,10.33,0,0,0-10.249-12.009H218.627a3.421,3.421,0,0,1-3.421-3.421V10.262A10.262,10.262,0,0,0,204.945,0a3.421,3.421,0,0,0-3.421,3.421V20.98a6.841,6.841,0,0,1-6.841,6.841H181V75.711h44.469A10.19,10.19,0,0,0,235.49,67.647Z" transform="translate(-92.635)" fill="#ffd9b3"/>
      <path id="Path_1700" data-name="Path 1700" d="M181,227v23.945h44.469a10.191,10.191,0,0,0,10.021-8.064L239.444,227Z" transform="translate(-92.635 -175.234)" fill="#fb9"/>
    </g>
    <rect id="Rectangle_3205" data-name="Rectangle 3205" width="158" height="9" rx="4.5" transform="translate(101 321)" fill="#c3c3c3" opacity="0.2"/>
    <g id="yay" transform="translate(-289.073 1004)">
      <g id="yay_2_" transform="translate(438.277 -847.755)">
        <g id="Group_16876" data-name="Group 16876" transform="translate(7.844 48.927)">
          <path id="Path_1706" data-name="Path 1706" d="M56.472,161.774,50.9,158.012a2.035,2.035,0,0,1,2.257-3.386l5.572,3.762a2.035,2.035,0,1,1-2.257,3.386Z" transform="translate(-49.994 -154.287)" fill="#ff73a5"/>
        </g>
        <g id="Group_16877" data-name="Group 16877" transform="translate(1.073 44.412)">
          <circle id="Ellipse_148" data-name="Ellipse 148" cx="2" cy="2" r="2" transform="translate(-0.276 -0.035)" fill="#ff73a5"/>
        </g>
        <g id="Group_16878" data-name="Group 16878" transform="translate(17.485 38.444)">
          <path id="Path_1707" data-name="Path 1707" d="M129.212,95.312a2.033,2.033,0,0,1-2.035-2.035,17.5,17.5,0,0,0-5.158-12.454l-.35-.35a2.034,2.034,0,0,1,2.877-2.877l.35.35a21.546,21.546,0,0,1,6.35,15.331A2.033,2.033,0,0,1,129.212,95.312Z" transform="translate(-121.074 -77.001)" fill="#ff73a5"/>
        </g>
        <g id="Group_16879" data-name="Group 16879" transform="translate(11.382 32.34)">
          <circle id="Ellipse_149" data-name="Ellipse 149" cx="2" cy="2" r="2" transform="translate(0.415 0.037)" fill="#ff73a5"/>
        </g>
        <g id="Group_16880" data-name="Group 16880" transform="translate(54.107 26.548)">
          <path id="Path_1708" data-name="Path 1708" d="M391.414,161.2a2.035,2.035,0,0,1,.564-2.821l5.572-3.762A2.035,2.035,0,1,1,399.807,158l-5.572,3.762A2.035,2.035,0,0,1,391.414,161.2Z" transform="translate(-391.072 -154.273)" fill="#ff73a5"/>
        </g>
        <g id="Group_16881" data-name="Group 16881" transform="translate(66.451 22.035)">
          <circle id="Ellipse_150" data-name="Ellipse 150" cx="2" cy="2" r="2" transform="translate(0.346 -0.035)" fill="#ff73a5"/>
        </g>
        <g id="Group_16882" data-name="Group 16882" transform="translate(43.935 16.067)">
          <path id="Path_1709" data-name="Path 1709" d="M318.108,95.312a2.033,2.033,0,0,1-2.035-2.035,21.547,21.547,0,0,1,6.35-15.331l.35-.35a2.034,2.034,0,0,1,2.877,2.877l-.35.35a17.5,17.5,0,0,0-5.158,12.454A2.033,2.033,0,0,1,318.108,95.312Z" transform="translate(-316.073 -77.001)" fill="#ff73a5"/>
        </g>
        <g id="Group_16883" data-name="Group 16883" transform="translate(56.142 9.963)">
          <circle id="Ellipse_151" data-name="Ellipse 151" cx="2" cy="2" r="2" transform="translate(-0.346 0.037)" fill="#ff73a5"/>
        </g>
        <g id="Group_16884" data-name="Group 16884" transform="translate(33.762 13.761)">
          <path id="Path_1710" data-name="Path 1710" d="M243.108,80.617a2.033,2.033,0,0,1-2.035-2.035V62.035a2.035,2.035,0,1,1,4.069,0V78.582A2.033,2.033,0,0,1,243.108,80.617Z" transform="translate(-241.073 -60)" fill="#ff73a5"/>
        </g>
        <g id="Group_16885" data-name="Group 16885" transform="translate(33.762 5.622)">
          <circle id="Ellipse_152" data-name="Ellipse 152" cx="2" cy="2" r="2" transform="translate(0.035 0.378)" fill="#ff73a5"/>
        </g>
      </g>
    </g>
  </g>
</svg>
