<svg xmlns="http://www.w3.org/2000/svg" width="19" height="19" viewBox="0 0 19 19">
  <g id="Travel" transform="translate(-0.001)">
    <g id="Group_16830" data-name="Group 16830" transform="translate(0.785 10.9)">
      <path id="Path_1573" data-name="Path 1573" d="M24.112,297.1l-2.824-2.221a.345.345,0,0,1-.112-.455h0a1.811,1.811,0,0,1,2.181-.56l2.554,1.449Z" transform="translate(-21.13 -293.724)" fill="#ff2c5c"/>
      <path id="Path_1574" data-name="Path 1574" d="M127.039,363.812l2.227,2.83a.345.345,0,0,0,.455.112l.168-.116a1.532,1.532,0,0,0,.474-1.845l-1.531-2.774Z" transform="translate(-123.109 -359.485)" fill="#ff2c5c"/>
    </g>
    <path id="Path_1575" data-name="Path 1575" d="M64.483,311.655l-1.6,1.587,1.433,1.127,1.8-1.787Z" transform="translate(-60.551 -300.09)" fill="#e62753"/>
    <g id="Group_16831" data-name="Group 16831" transform="translate(4.246 2.013)">
      <path id="Path_1576" data-name="Path 1576" d="M114.7,57.813h0a.977.977,0,0,1-.066-1.309c.453-.556,1.021-1.175,1.362-1.516a3.414,3.414,0,0,1,1-.715.186.186,0,0,1,.229.027l.984.984a.186.186,0,0,1,.027.229,3.414,3.414,0,0,1-.715,1c-.341.341-.96.908-1.516,1.362A.977.977,0,0,1,114.7,57.813Z" transform="translate(-114.412 -54.246)" fill="#c3d3db"/>
      <path id="Path_1577" data-name="Path 1577" d="M354.2,297.317h0a.977.977,0,0,1-.066-1.309c.453-.556,1.021-1.175,1.362-1.516a3.413,3.413,0,0,1,1-.715.186.186,0,0,1,.229.027l.984.984a.186.186,0,0,1,.027.229,3.415,3.415,0,0,1-.715,1c-.341.341-.96.908-1.516,1.362A.977.977,0,0,1,354.2,297.317Z" transform="translate(-345.028 -284.862)" fill="#c3d3db"/>
    </g>
    <path id="Path_1578" data-name="Path 1578" d="M8.978,61.877l3.484-3.484L1.669,55a.61.61,0,0,0-.59.144l-.912.912a.712.712,0,0,0,.257,1.1Z" transform="translate(0 -52.939)" fill="#ff2c5c"/>
    <path id="Path_1579" data-name="Path 1579" d="M189.388,126.308l-3.11,3.11,2.065,1.14,3.484-3.484Z" transform="translate(-179.365 -121.621)" fill="#e62753"/>
    <path id="Path_1580" data-name="Path 1580" d="M271.16,179.676l3.484-3.484,3.391,10.793a.61.61,0,0,1-.144.59l-.912.912a.712.712,0,0,1-1.1-.257Z" transform="translate(-261.097 -169.654)" fill="#ff2c5c"/>
    <path id="Path_1581" data-name="Path 1581" d="M88.894,5.074,83.04,10.927a31.727,31.727,0,0,1-3.119,2.737L77.136,15.8a1.41,1.41,0,0,1-1.824.142h0a1.41,1.41,0,0,1,.142-1.824l2.136-2.785a31.726,31.726,0,0,1,2.737-3.119l5.853-5.853A9.721,9.721,0,0,1,88.871.437C89.707.043,90.6-.2,91.027.227s.185,1.32-.209,2.156A9.719,9.719,0,0,1,88.894,5.074Z" transform="translate(-72.254)" fill="#e0f3fc"/>
    <path id="Path_1582" data-name="Path 1582" d="M91.32.251a.856.856,0,0,0-.6-.226,3.709,3.709,0,0,1-.436,1.567,9.719,9.719,0,0,1-1.925,2.69L82.5,10.135a31.722,31.722,0,0,1-3.119,2.737L76.6,15.008a1.779,1.779,0,0,1-1.256.406.945.945,0,0,0,.262.552h0a1.41,1.41,0,0,0,1.824-.142l2.785-2.136a31.725,31.725,0,0,0,3.119-2.737L89.186,5.1a9.721,9.721,0,0,0,1.925-2.69C91.5,1.572,91.751.683,91.32.251Z" transform="translate(-72.546 -0.024)" fill="#c3d3db"/>
    <path id="Path_1583" data-name="Path 1583" d="M402.072,49.24l-.2.2c-.186.186-2.262-1.891-2.076-2.076l.2-.2a.42.42,0,0,1,.461-.1h0a3.421,3.421,0,0,1,1.714,1.714h0A.42.42,0,0,1,402.072,49.24Z" transform="translate(-384.948 -45.287)" fill="#51c4f5"/>
    <path id="Path_1584" data-name="Path 1584" d="M92.219,342.553a.278.278,0,0,1-.2-.475l2.431-2.431a.278.278,0,0,1,.394.394l-2.431,2.43A.277.277,0,0,1,92.219,342.553Z" transform="translate(-88.528 -326.965)" fill="#e62753"/>
  </g>
</svg>
