<svg id="Whatsapp" xmlns="http://www.w3.org/2000/svg" width="19.738" height="19.738" viewBox="0 0 19.738 19.738">
  <path id="Path_436" data-name="Path 436" d="M9.871,0h0A9.863,9.863,0,0,0,1.879,15.653L.649,19.32l3.793-1.213A9.867,9.867,0,1,0,9.871,0Z" fill="#4caf50"/>
  <path id="Path_437" data-name="Path 437" d="M118.743,126.51a2.785,2.785,0,0,1-1.937,1.393c-.516.11-1.189.2-3.457-.743a12.363,12.363,0,0,1-4.913-4.34,5.637,5.637,0,0,1-1.172-2.977,3.151,3.151,0,0,1,1.009-2.4,1.434,1.434,0,0,1,1.009-.354c.122,0,.232.006.331.011.29.012.435.03.627.487.238.574.818,1.99.887,2.135a.587.587,0,0,1,.042.534,1.706,1.706,0,0,1-.32.453c-.146.168-.284.3-.429.476-.133.157-.284.324-.116.614a8.76,8.76,0,0,0,1.6,1.99,7.255,7.255,0,0,0,2.314,1.427.624.624,0,0,0,.7-.11,11.944,11.944,0,0,0,.771-1.021.551.551,0,0,1,.708-.215c.266.093,1.676.79,1.966.934s.481.215.551.337A2.458,2.458,0,0,1,118.743,126.51Z" transform="translate(-103.129 -112.574)" fill="#fafafa"/>
</svg>
