<svg height="512" viewBox="0 0 47.604 48" width="512" xmlns="http://www.w3.org/2000/svg"><g id="Layer_2" data-name="Layer 2"><g id="Layer_1-2" data-name="Layer 1"><g id="fitness_tracker" data-name="fitness tracker"><path d="m34.854 0a8.5 8.5 0 0 0 -6 2.823c3.853 3.877 6.518 11.377 6.728 20.077h12.007c-.304-12.741-5.889-22.9-12.735-22.9z" fill="#e49a61"/><path d="m35.582 22.9c.009.365.021.728.021 1.1 0 9.17-2.734 17.138-6.75 21.178a8.507 8.507 0 0 0 6 2.822c7.047 0 12.747-10.745 12.747-24 0-.367-.006-.732-.015-1.1z" fill="#f1bb6b"/><path d="m46.1 24c0-.367-.007-.732-.015-1.1-3 2.945-9.009 2.943-12.007-.006.009.367.02.732.02 1.1 0 8.282-2.233 15.572-5.624 19.886a14.927 14.927 0 0 0 1.126 1.298 9.025 9.025 0 0 0 4.895 2.722c6.505-1.089 11.605-11.37 11.605-23.9z" fill="#7a8e9b"/><path d="m28.479 4.114c3.237 4.12 5.415 10.96 5.6 18.784 3 2.949 9 2.951 12.007.006-.286-12.027-5.274-21.745-11.586-22.804a9.007 9.007 0 0 0 -4.9 2.723 14.755 14.755 0 0 0 -1.121 1.291z" fill="#525c6b"/><path d="m28.478 43.886c-3.391-4.314-5.624-11.6-5.624-19.886s2.234-15.572 5.625-19.886a14.755 14.755 0 0 1 1.121-1.291 9.007 9.007 0 0 1 4.9-2.723 6.951 6.951 0 0 0 -1.146-.1h-9.754c-7.042 0-12.75 10.745-12.75 24s5.711 24 12.75 24h9.751a6.9 6.9 0 0 0 1.141-.1 9.025 9.025 0 0 1 -4.892-2.722 14.927 14.927 0 0 1 -1.122-1.292z" fill="#e49a61"/><path d="m33.354 48h-12c-7.044 0-12.754-10.745-12.754-24s5.71-24 12.752-24h12a8.5 8.5 0 0 0 -6 2.823c-4.015 4.04-6.752 12.006-6.752 21.177s2.733 17.138 6.749 21.178a8.507 8.507 0 0 0 6.005 2.822z" fill="#f1bb6b"/><path d="m8.349 34.616a46.338 46.338 0 0 1 -1.537-10.616 45.947 45.947 0 0 1 1.522-10.561 1.848 1.848 0 0 1 1.801-1.439h11.457a1.847 1.847 0 0 1 1.787 2.309 38.758 38.758 0 0 0 -1.179 9.691 38.727 38.727 0 0 0 1.181 9.69 1.846 1.846 0 0 1 -1.789 2.31h-11.456a1.845 1.845 0 0 1 -1.787-1.384z" fill="#c6c6c6"/><path d="m21.592 36.75h-11.456a2.6 2.6 0 0 1 -2.513-1.945 48.157 48.157 0 0 1 -1.561-10.805 46.178 46.178 0 0 1 1.546-10.749 2.573 2.573 0 0 1 2.527-2h11.457a2.6 2.6 0 0 1 2.513 3.249 37.975 37.975 0 0 0 -1.157 9.5 37.944 37.944 0 0 0 1.157 9.5 2.6 2.6 0 0 1 -2.513 3.247zm-12.517-2.321a1.1 1.1 0 0 0 1.061.821h11.456a1.1 1.1 0 0 0 1.061-1.371 39.485 39.485 0 0 1 -1.205-9.879 39.491 39.491 0 0 1 1.2-9.879 1.1 1.1 0 0 0 -1.061-1.371h-11.452a1.1 1.1 0 0 0 -1.069.855 44.65 44.65 0 0 0 -1.504 10.395 46.575 46.575 0 0 0 1.513 10.429z" fill="#525c6b"/><path d="m20.005 20.852a4.973 4.973 0 0 0 -9.261-2.524 4.974 4.974 0 0 0 -9.262 2.524c0 5.866 9.262 11.523 9.262 11.523s9.261-5.657 9.261-11.523z" fill="#f87670"/><path d="m11.98 25.851-2.755-2.757-2.615 2.614h-6.61v-1.5h5.989l3.236-3.235 2.755 2.757 3.694-3.694h9.264v1.5h-8.643z" fill="#db5743"/><g fill="#c6c6c6"><path d="m37.038 30.263h5.975v1.875h-5.975z"/><path d="m34.95 36.023h5.976v1.875h-5.976z"/><path d="m32.513 41.063h3.985v1.875h-3.985z"/><path d="m37.038 15.863h5.975v1.875h-5.975z"/><path d="m34.949 10.102h5.976v1.875h-5.976z"/><path d="m32.513 5.063h3.984v1.875h-3.984z"/></g></g></g></g></svg>