<svg height="512" viewBox="0 0 64 64" width="512" xmlns="http://www.w3.org/2000/svg"><g id="Icons"><g><g><path d="m28 26h-16v11.593c.415.147.8.377 1.122.699l4.908 4.908c-.015-.144-.03-.289-.03-.436v-.764c0-1.495.835-2.786 2.053-3.473-.023-.174-.053-.346-.053-.527v-4c0-4.411 3.589-8 8-8z" fill="#f0f0f0"/></g><g><path d="m52 37.594v-11.594h-16c2.769 0 5.098 1.887 5.787 4.441 1.306.659 2.213 1.999 2.213 3.559v4.556c1.19.694 2 1.97 2 3.444v.764c0 .149-.015.294-.03.439l4.91-4.91c.322-.322.706-.551 1.12-.699z" fill="#f0f0f0"/></g><g><circle cx="32" cy="12" fill="#3cc8b4" r="8"/></g><g><path d="m25.983 12c0-4.082 3.059-7.443 7.009-7.932-.326-.041-.656-.068-.992-.068-4.418 0-8 3.582-8 8s3.582 8 8 8c.336 0 .666-.027.991-.068-3.949-.489-7.008-3.85-7.008-7.932z" fill="#1eaa96"/></g><g><path d="m36 11h-3v-3h-2v3h-3v2h3v3h2v-3h3z" fill="#f0f0f0"/></g><g><path d="m46 12h6v12h-6z" fill="#46aad2"/></g><g><path d="m44 8h10v4h-10z" fill="#64c8f0"/></g><g><path d="m41.992 11.851c.001.05.008.099.008.149 0 5.514-4.486 10-10 10s-10-4.486-10-10c0-.05.007-.099.008-.149l-18.008 14.149h56z" fill="#64c8f0"/></g><g><path d="m22 12c0-.05.007-.099.008-.149l-18.008 14.149h4l14.381-11.299c-.242-.861-.381-1.764-.381-2.701z" fill="#46aad2"/></g><g><path d="m28 54v-4.343h8v4.343l-4 4z" fill="#d2aa82"/></g><g><path d="m42 40h-2v-6c0-1.105-.895-2-2-2h-12c-1.105 0-2 .895-2 2v6h-2c-1.105 0-2 .895-2 2v.764c0 .758.428 1.45 1.106 1.789l2.894 1.447v.343c0 1.061.421 2.078 1.172 2.828l1.657 1.657c.75.75 1.768 1.172 2.828 1.172h4.686c1.061 0 2.078-.421 2.828-1.172l1.657-1.657c.75-.75 1.172-1.768 1.172-2.828v-.343l2.894-1.447c.678-.339 1.106-1.032 1.106-1.789v-.764c0-1.105-.895-2-2-2z" fill="#f0c8a0"/></g><g><path d="m42 42c-2.209 0-4-1.791-4-4v-6h2c1.105 0 2 .895 2 2z" fill="#d2d2d2"/></g><g><path d="m36 28h-8c-3.314 0-6 2.686-6 6v4c0 1.105.895 2 2 2h5.029c3.183 0 6.235-1.264 8.485-3.515l1.314-1.314c.75-.75 1.172-1.768 1.172-2.828v-.343c0-2.209-1.791-4-4-4z" fill="#f0f0f0"/></g><g><path d="m32 48.5c-.668 0-1.296-.26-1.768-.732l-.586-.585c-.195-.195-.195-.512 0-.707s.512-.195.707 0l.586.585c.566.566 1.555.566 2.121 0l.586-.585c.195-.195.512-.195.707 0s.195.512 0 .707l-.586.585c-.471.472-1.099.732-1.767.732z" fill="#be7800"/></g><g><circle cx="29" cy="43" fill="#be7800" r="1"/></g><g><circle cx="35" cy="43" fill="#be7800" r="1"/></g><g><path d="m30 42.5h-4c-.276 0-.5-.224-.5-.5s.224-.5.5-.5h4c.276 0 .5.224.5.5s-.224.5-.5.5z" fill="#f0f0f0"/></g><g><path d="m38 42.5h-4c-.276 0-.5-.224-.5-.5s.224-.5.5-.5h4c.276 0 .5.224.5.5s-.224.5-.5.5z" fill="#f0f0f0"/></g><g><path d="m10.001 56h12v4h-12z" fill="#3cc8b4"/></g><g><path d="m10.001 56h4v4h-4z" fill="#1eaa96"/></g><g><path d="m42.001 56h12v4h-12z" fill="#3cc8b4"/></g><g><path d="m42.001 56h4v4h-4z" fill="#1eaa96"/></g><g><path d="m59.995 30h-.299c-.978 0-1.812.707-1.973 1.671l-1.3 7.8c-.274 1.645-1.055 3.163-2.234 4.341l-2.188 2.188 1.578-3.156c.278-.555.422-1.168.422-1.789v-.642c0-.891-1.077-1.337-1.707-.707l-5.95 5.95c-1.5 1.5-2.343 3.535-2.343 5.657v4.687h8v-1.929c0-1.326.527-2.598 1.464-3.535l4.191-4.191c1.501-1.501 2.344-3.531 2.343-5.653-.001-4.14-.003-10.691-.004-10.692z" fill="#f0c8a0"/></g><g><path d="m13.122 38.292 2.878 2.878v-15.17h-4v11.593c.415.148.8.377 1.122.699z" fill="#d2d2d2"/></g><g><path d="m4.008 30h.299c.978 0 1.812.707 1.973 1.671l1.3 7.8c.274 1.645 1.055 3.163 2.234 4.341l2.187 2.188-1.578-3.156c-.278-.555-.422-1.168-.422-1.789v-.642c0-.891 1.077-1.337 1.707-.707l5.95 5.95c1.5 1.5 2.343 3.535 2.343 5.657v4.687h-8v-1.929c0-1.326-.527-2.598-1.464-3.535l-4.191-4.191c-1.501-1.501-2.344-3.531-2.343-5.653.001-4.14.004-10.691.005-10.692z" fill="#f0c8a0"/></g><g><path d="m40 56-4-2-4 4-4-4-4 1.987v4.013h16z" fill="#fa6450"/></g><g><path d="m28.664 54.664-.664-.664-4 1.987v4.013h2v-4.013z" fill="#dc4632"/></g></g></g></svg>