<svg id="Layer_1" enable-background="new 0 0 504.5 504.5" height="512" viewBox="0 0 504.5 504.5" width="512" xmlns="http://www.w3.org/2000/svg"><g><g><path d="m227.089 504.5c-58.457 0-106.015-47.457-106.015-105.79v-11.851c0-4.142 3.358-7.5 7.5-7.5s7.5 3.358 7.5 7.5v11.851c0 50.062 40.829 90.79 91.015 90.79s91.015-40.728 91.015-90.79v-141.982c0-29.094 23.669-52.763 52.763-52.763h20.98c4.142 0 7.5 3.358 7.5 7.5s-3.358 7.5-7.5 7.5h-20.98c-20.823 0-37.763 16.94-37.763 37.763v141.982c0 58.333-47.558 105.79-106.015 105.79z" fill="#6d7e8f"/></g><g><g><path d="m219.263 151.182c-4.142 0-7.5-3.358-7.5-7.5v-94.095c0-15.865-12.926-28.772-28.814-28.772h-11.199c-4.142 0-7.5-3.358-7.5-7.5s3.358-7.5 7.5-7.5h11.199c24.159 0 43.814 19.636 43.814 43.772v94.095c0 4.142-3.358 7.5-7.5 7.5z" fill="#6d7e8f"/></g><g><path d="m36.492 149.79c-4.142 0-7.5-3.358-7.5-7.5v-92.703c0-24.136 19.655-43.772 43.814-43.772h9.694c4.142 0 7.5 3.358 7.5 7.5s-3.358 7.5-7.5 7.5h-9.693c-15.888 0-28.814 12.907-28.814 28.772v92.703c-.001 4.142-3.359 7.5-7.501 7.5z" fill="#6d7e8f"/></g><path d="m219.263 127.886c-8.659 0-15.678 7.011-15.678 15.66v62.052c0 41.944-34.368 76.022-76.454 75.614-41.678-.404-74.96-34.947-74.96-76.579v-61.088c0-8.649-7.019-15.66-15.678-15.66s-15.678 7.011-15.678 15.66v60.876c0 39.536 21.261 74.47 53.061 93.325v44.477c0 30.126 24.538 54.636 54.699 54.636 30.162 0 54.7-24.509 54.7-54.636v-45.148c30.947-18.767 51.667-52.75 51.667-91.477v-62.052c-.001-8.649-7.02-15.66-15.679-15.66zm-67.345 214.338c0 12.857-10.472 23.316-23.343 23.316s-23.343-10.459-23.343-23.316v-32.122c7.099 1.548 14.463 2.389 22.021 2.432 8.483.049 16.74-.897 24.666-2.721v32.411z" fill="#ff5e57"/><g><path d="m219.263 127.886c-7.073 0-13.047 4.68-15 11.107.438 1.441.678 2.969.678 4.553v62.052c0 34.007-15.976 64.355-40.824 83.955-6.787 5.354-10.842 13.444-10.842 22.088v30.582c0 24.931-16.811 45.999-39.7 52.53 4.77 1.361 9.798 2.106 15 2.106 30.162 0 54.7-24.509 54.7-54.636v-45.148c30.947-18.767 51.667-52.75 51.667-91.478v-62.052c-.001-8.648-7.02-15.659-15.679-15.659z" fill="#f7372f"/></g><g fill="#c2d8ed"><path d="m101.017 26.385h-14.31c-7.286 0-13.192-5.906-13.192-13.192-.001-7.287 5.906-13.193 13.192-13.193h14.31c7.286 0 13.192 5.906 13.192 13.192 0 7.287-5.906 13.193-13.192 13.193z"/><path d="m169.048 26.385h-14.31c-7.286 0-13.192-5.906-13.192-13.192 0-7.287 5.906-13.193 13.192-13.193h14.31c7.286 0 13.193 5.906 13.193 13.192 0 7.287-5.907 13.193-13.193 13.193z"/></g><g><ellipse cx="435.594" cy="211.414" fill="#c2d8ed" rx="48.092" ry="48.035"/><path d="m435.594 163.379c-5.24 0-10.278.848-15 2.396 19.212 6.296 33.092 24.344 33.092 45.639 0 21.296-13.879 39.343-33.092 45.64 4.722 1.547 9.76 2.396 15 2.396 26.56 0 48.092-21.506 48.092-48.035 0-26.53-21.532-48.036-48.092-48.036z" fill="#b4cae0"/><ellipse cx="435.594" cy="211.414" fill="#ff5e57" rx="12.386" ry="12.372"/></g></g></g></svg>