<svg id="Book_Lab_test" data-name="Book Lab test" xmlns="http://www.w3.org/2000/svg" width="17.767" height="24.326" viewBox="0 0 17.767 24.326">
  <path id="Path_1866" data-name="Path 1866" d="M346.085,26.641l1.112-.4a.248.248,0,0,0-.115.328l.859,2.361-1.158.422-.859-2.361A.269.269,0,0,1,346.085,26.641Z" transform="translate(-340.384 -26.236)" fill="#bed9fd"/>
  <path id="Path_1867" data-name="Path 1867" d="M252.477,74.876l-2.911-8a.27.27,0,0,0-.346-.162l-3.957,1.44a.27.27,0,0,0-.162.346l2.911,8a.27.27,0,0,0,.346.162l3.957-1.44A.27.27,0,0,0,252.477,74.876Z" transform="translate(-239.886 -64.673)" fill="#6cbff8"/>
  <path id="Path_1868" data-name="Path 1868" d="M308.746,89.188l.956-.348a.254.254,0,0,0-.127.334l2.911,8a.254.254,0,0,0,.312.174l-.956.348a.27.27,0,0,1-.346-.162l-2.911-8A.27.27,0,0,1,308.746,89.188Z" transform="translate(-303.371 -85.705)" fill="#5fa7ee"/>
  <path id="Path_1869" data-name="Path 1869" d="M278.754,253.2l.471,1.294a.271.271,0,0,0,.326.194l-1.212.441a.294.294,0,0,1-.377-.176l-.471-1.294Z" transform="translate(-268.567 -241.837)" fill="#bed9fd"/>
  <path id="Path_1870" data-name="Path 1870" d="M237.771,167.187v4.906l-8.986-.5h-1.376a3.294,3.294,0,0,1-3.243-3.873l1.9-10.666a1.362,1.362,0,0,1,1.34-1.122h4.039v1.863h-2.725a.688.688,0,0,0-.688.688V166.3a1.385,1.385,0,0,0,1.385,1.385H231.1Z" transform="translate(-224.114 -149.436)" fill="#ddebfd"/>
  <path id="Path_1871" data-name="Path 1871" d="M403.556,167.719l1.9-10.666a1.362,1.362,0,0,1,1.34-1.122h1.376a1.362,1.362,0,0,0-1.34,1.122l-1.9,10.666a3.294,3.294,0,0,0,3.243,3.873H406.8A3.294,3.294,0,0,1,403.556,167.719Z" transform="translate(-403.504 -149.436)" fill="#bed9fd"/>
  <path id="Path_1872" data-name="Path 1872" d="M155.866,468.938v1.654a.258.258,0,0,1-.258.258H142.291a.258.258,0,0,1-.258-.258V468.68h13.576A.258.258,0,0,1,155.866,468.938Z" transform="translate(-138.1 -446.524)" fill="#407194"/>
  <path id="Path_1873" data-name="Path 1873" d="M388.223,468.679v1.911a.258.258,0,0,0,.258.258h-1.313a.258.258,0,0,1-.258-.258v-1.911Z" transform="translate(-382.977 -446.523)" fill="#365f7e"/>
  <path id="Path_1874" data-name="Path 1874" d="M200.434,350.576v1.506a.258.258,0,0,1-.258.258h-8.357a.258.258,0,0,1-.258-.258v-1.506a.258.258,0,0,1,.258-.258h8.357A.258.258,0,0,1,200.434,350.576Z" transform="translate(-185.147 -334.089)" fill="#407194"/>
  <path id="Path_1875" data-name="Path 1875" d="M337.641,350.318h1.313a.258.258,0,0,0-.258.258v1.506a.258.258,0,0,0,.258.258h-1.313a.258.258,0,0,1-.258-.258v-1.506A.258.258,0,0,1,337.641,350.318Z" transform="translate(-330.969 -334.089)" fill="#365f7e"/>
  <g id="Group_17022" data-name="Group 17022" transform="matrix(-0.987, -0.16, 0.16, -0.987, 8.829, 10.182)">
    <ellipse id="Ellipse_144" data-name="Ellipse 144" cx="2.354" cy="2.354" rx="2.354" ry="2.354" transform="translate(0 0)" fill="#df646e"/>
    <ellipse id="Ellipse_145" data-name="Ellipse 145" cx="0.785" cy="0.785" rx="0.785" ry="0.785" transform="translate(1.57 1.57)" fill="#ddebfd"/>
  </g>
</svg>
