<svg id="Consult_online" data-name="Consult online" xmlns="http://www.w3.org/2000/svg" width="20.092" height="17.012" viewBox="0 0 20.092 17.012">
  <path id="Path_1818" data-name="Path 1818" d="M18.879,122.108H1.213A1.213,1.213,0,0,1,0,120.9V110.6a1.213,1.213,0,0,1,1.213-1.213H18.879a1.213,1.213,0,0,1,1.213,1.213V120.9A1.213,1.213,0,0,1,18.879,122.108Z" transform="translate(0 -105.096)" fill="#655e67"/>
  <path id="Path_1819" data-name="Path 1819" d="M451.4,109.388H450.19A1.213,1.213,0,0,1,451.4,110.6v10.294a1.213,1.213,0,0,1-1.213,1.213H451.4a1.213,1.213,0,0,0,1.213-1.213V110.6A1.213,1.213,0,0,0,451.4,109.388Z" transform="translate(-432.524 -105.095)" fill="#544f56"/>
  <path id="Path_1820" data-name="Path 1820" d="M30.9,150.465V140.414a.121.121,0,0,1,.121-.121H48.45a.121.121,0,0,1,.121.121v10.051a.121.121,0,0,1-.121.121H31.026A.121.121,0,0,1,30.9,150.465Z" transform="translate(-29.692 -134.788)" fill="#ecf5ff"/>
  <path id="Path_1821" data-name="Path 1821" d="M448.312,140.294H447.1a.121.121,0,0,1,.121.121v10.051a.121.121,0,0,1-.121.121h1.213a.121.121,0,0,0,.121-.121V140.415A.121.121,0,0,0,448.312,140.294Z" transform="translate(-429.554 -134.789)" fill="#dceafc"/>
  <g id="Group_17019" data-name="Group 17019" transform="translate(3.783)">
    <g id="Group_17018" data-name="Group 17018">
      <path id="Path_1824" data-name="Path 1824" d="M108.927,208.888v-3.279a2.02,2.02,0,0,0-1.377-1.915l-2.927-.984a.673.673,0,0,1-.459-.638v-1.1h-3v1.1a.673.673,0,0,1-.459.638l-2.927.984a2.02,2.02,0,0,0-1.377,1.915v3.279Z" transform="translate(-96.401 -193.089)" fill="#b3e59f"/>
      <g id="Group_17013" data-name="Group 17013" transform="translate(4.763 7.887)">
        <path id="Path_1825" data-name="Path 1825" d="M224.164,203.694l-2.927-.984a.673.673,0,0,1-.459-.638v-1.1h-3v.606h1.787v1.1a.673.673,0,0,0,.459.638l2.927.984a2.02,2.02,0,0,1,1.377,1.915v2.673h1.213v-3.279A2.02,2.02,0,0,0,224.164,203.694Z" transform="translate(-217.779 -200.976)" fill="#95d6a4"/>
      </g>
      <path id="Path_1826" data-name="Path 1826" d="M205.5,202.718l1.844,1.842a.243.243,0,0,0,.343,0l1.827-1.825-.073-.025a.673.673,0,0,1-.459-.638v-1.1h-3v1.1a.673.673,0,0,1-.459.638Z" transform="translate(-201.22 -193.089)" fill="#f1ccbd"/>
      <path id="Path_1827" data-name="Path 1827" d="M263.315,202.679a.673.673,0,0,0,.459.638l.526.177.76-.759-.073-.025a.673.673,0,0,1-.459-.638v-1.1h-1.213v1.7Z" transform="translate(-256.765 -193.089)" fill="#eaad9c"/>
      <g id="Group_17016" data-name="Group 17016" transform="translate(2.74)">
        <path id="Path_1828" data-name="Path 1828" d="M173.281,4.127h-7.045v-2.6A1.529,1.529,0,0,1,167.765,0h3.986a1.529,1.529,0,0,1,1.529,1.529v2.6Z" transform="translate(-166.236 0)" fill="#c17d4f"/>
        <path id="Path_1829" data-name="Path 1829" d="M277.1,0h-1.213a1.529,1.529,0,0,1,1.529,1.529v2.6h1.213v-2.6A1.529,1.529,0,0,0,277.1,0Z" transform="translate(-271.583)" fill="#b16e3d"/>
        <g id="Group_17014" data-name="Group 17014" transform="translate(0 2.36)">
          <path id="Path_1830" data-name="Path 1830" d="M169.746,66.251a3.545,3.545,0,0,1-3.51-3.557V61.461a7.771,7.771,0,0,0,2.924-.556,7.658,7.658,0,0,0,1.372-.722.184.184,0,0,1,.246.042,3.19,3.19,0,0,0,2.5,1.236v1.27a3.519,3.519,0,0,1-2.023,3.185,1.607,1.607,0,0,1-.7-.007s-.324.315-.523.33Q169.893,66.251,169.746,66.251Z" transform="translate(-166.236 -60.153)" fill="#f1ccbd"/>
        </g>
        <g id="Group_17015" data-name="Group 17015" transform="translate(1.387 3.42)">
          <path id="Path_1831" data-name="Path 1831" d="M206.038,87.156v.912a3.521,3.521,0,0,1-3.535,3.519,3.483,3.483,0,0,1-.91-.124,3.477,3.477,0,0,0,2.123.73,3.521,3.521,0,0,0,3.535-3.519V87.4A3.229,3.229,0,0,1,206.038,87.156Z" transform="translate(-201.593 -87.156)" fill="#eaad9c"/>
        </g>
      </g>
      <path id="Path_1832" data-name="Path 1832" d="M344.229,261.445a.3.3,0,0,0,.4-.148,3.63,3.63,0,0,0,.212-2.462l-.722-.243a3.03,3.03,0,0,1-.041,2.451A.3.3,0,0,0,344.229,261.445Z" transform="translate(-334.335 -248.445)" fill="#dfdce0"/>
      <path id="Path_1833" data-name="Path 1833" d="M345.806,258.592a3.062,3.062,0,0,1,.237,1.1,2.018,2.018,0,0,1,.6.361c.005-.071.009-.141.01-.212a3.656,3.656,0,0,0-.123-1Z" transform="translate(-336.019 -248.445)" fill="#c7c2c9"/>
      <path id="Path_1834" data-name="Path 1834" d="M150.325,259.068a.3.3,0,0,0,.286.2.308.308,0,0,0,.286-.4,2.754,2.754,0,0,1-.156-.789,2.814,2.814,0,0,1,.225-1.229l-.722.243a3.333,3.333,0,0,0,.081,1.978Z" transform="translate(-148.023 -246.768)" fill="#dfdce0"/>
      <g id="Group_17017" data-name="Group 17017" transform="translate(1.042 11.895)">
        <path id="Path_1835" data-name="Path 1835" d="M125.54,306.18h-.283a.3.3,0,0,1,0-.606h.189v-.9a.939.939,0,1,0-1.879,0v.9h.189a.3.3,0,0,1,0,.606h-.283a.512.512,0,0,1-.512-.512v-1a1.546,1.546,0,1,1,3.091,0v1A.512.512,0,0,1,125.54,306.18Z" transform="translate(-122.961 -303.125)" fill="#f1eff1"/>
      </g>
      <ellipse id="Ellipse_143" data-name="Ellipse 143" cx="1.088" cy="1.087" rx="1.088" ry="1.087" transform="translate(9.004 12.473)" fill="#f1eff1"/>
    </g>
  </g>
</svg>
