<svg xmlns="http://www.w3.org/2000/svg" width="20" height="20" viewBox="0 0 20 20">
  <g id="Contact_us" data-name="Contact us" transform="translate(-0.008)">
    <path id="Path_1885" data-name="Path 1885" d="M.554,8.484A6.986,6.986,0,0,1,.022,5.519,2.423,2.423,0,0,1,.777,3.891c.508-.479.987-.983,1.486-1.47a1.406,1.406,0,0,1,2.116,0c.4.394.8.8,1.2,1.2C5.964,4,6.354,4.39,6.74,4.78a1.41,1.41,0,0,1,0,2.169c-.487.487-.971.979-1.466,1.458A.3.3,0,0,0,5.2,8.8a8.707,8.707,0,0,0,1.324,2.124,15.212,15.212,0,0,0,3.7,3.367c.309.191.646.333.967.508a.3.3,0,0,0,.41-.077c.483-.5.979-.991,1.474-1.482a1.4,1.4,0,0,1,2.112,0q1.194,1.182,2.376,2.376a1.412,1.412,0,0,1-.008,2.153c-.451.455-.926.885-1.348,1.361a2.677,2.677,0,0,1-2.283.869A9.483,9.483,0,0,1,10.3,18.938a19.758,19.758,0,0,1-6.551-5.125A18.062,18.062,0,0,1,.554,8.484ZM20.008,9.938A9.951,9.951,0,0,0,10.07,0V1.893a8.056,8.056,0,0,1,8.046,8.046Zm-5.442,0h1.893A6.4,6.4,0,0,0,10.07,3.55V5.442a4.493,4.493,0,0,1,4.5,4.5Z" transform="translate(0)" fill="#666"/>
  </g>
</svg>
