<svg id="Emergency" xmlns="http://www.w3.org/2000/svg" width="18.092" height="18.092" viewBox="0 0 18.092 18.092">
  <path id="Path_1803" data-name="Path 1803" d="M17.754,5.985A.754.754,0,0,1,17.221,4.7l1.6-1.6a.754.754,0,1,1,1.066,1.066l-1.6,1.6a.752.752,0,0,1-.533.221Z" transform="translate(-4.185 -0.709)" fill="#ffc107"/>
  <path id="Path_1804" data-name="Path 1804" d="M22.446,12.508H21.5A.754.754,0,0,1,21.5,11h.942a.754.754,0,0,1,0,1.508Z" transform="translate(-5.108 -2.708)" fill="#ffc107"/>
  <path id="Path_1805" data-name="Path 1805" d="M14.988,16.423H5.565A.566.566,0,0,1,5,15.857V12.277a5.277,5.277,0,0,1,10.553,0v3.581A.566.566,0,0,1,14.988,16.423Z" transform="translate(-1.231 -1.723)" fill="#f44336"/>
  <path id="Path_1806" data-name="Path 1806" d="M7.754,13.523A.754.754,0,0,1,7,12.769,3.773,3.773,0,0,1,10.769,9a.754.754,0,0,1,0,1.508,2.264,2.264,0,0,0-2.261,2.261A.754.754,0,0,1,7.754,13.523Z" transform="translate(-1.723 -2.216)" fill="#fff"/>
  <g id="Group_17012" data-name="Group 17012">
    <path id="Path_1807" data-name="Path 1807" d="M11.754,3.769A.754.754,0,0,1,11,3.015V.754a.754.754,0,1,1,1.508,0V3.015A.754.754,0,0,1,11.754,3.769Z" transform="translate(-2.708)" fill="#ffc107"/>
    <path id="Path_1808" data-name="Path 1808" d="M5.232,5.985A.752.752,0,0,1,4.7,5.765l-1.6-1.6A.754.754,0,0,1,4.166,3.1l1.6,1.6a.754.754,0,0,1-.533,1.287Z" transform="translate(-0.709 -0.709)" fill="#ffc107"/>
    <path id="Path_1809" data-name="Path 1809" d="M1.508,12.508H.754A.754.754,0,1,1,.754,11h.754a.754.754,0,1,1,0,1.508Z" transform="translate(0 -2.708)" fill="#ffc107"/>
  </g>
  <path id="Path_1810" data-name="Path 1810" d="M16.772,22.523H1.319A1.321,1.321,0,0,1,0,21.2V19.319A1.321,1.321,0,0,1,1.319,18H16.772a1.321,1.321,0,0,1,1.319,1.319V21.2A1.321,1.321,0,0,1,16.772,22.523Z" transform="translate(0 -4.431)" fill="#607d8b"/>
  <path id="Path_1811" data-name="Path 1811" d="M10.277,7A5.283,5.283,0,0,0,5,12.277v3.015h5.277V10.015a2.264,2.264,0,0,0-2.261,2.261.754.754,0,1,1-1.508,0,3.773,3.773,0,0,1,3.769-3.769Z" transform="translate(-1.231 -1.723)" fill="#d43a2f"/>
  <path id="Path_1812" data-name="Path 1812" d="M10.769,9A3.773,3.773,0,0,0,7,12.769a.754.754,0,0,0,1.508,0,2.264,2.264,0,0,1,2.261-2.261Z" transform="translate(-1.723 -2.216)" fill="#dedede"/>
  <path id="Path_1813" data-name="Path 1813" d="M11.754,0A.754.754,0,0,0,11,.754V3.015a.754.754,0,0,0,.754.754Z" transform="translate(-2.708)" fill="#dea806"/>
  <path id="Path_1814" data-name="Path 1814" d="M3.633,2.879A.754.754,0,0,0,3.1,4.166l1.6,1.6A.754.754,0,1,0,5.765,4.7l-1.6-1.6a.752.752,0,0,0-.533-.221Z" transform="translate(-0.709 -0.709)" fill="#dea806"/>
  <path id="Path_1815" data-name="Path 1815" d="M1.508,11H.754a.754.754,0,1,0,0,1.508h.754a.754.754,0,1,0,0-1.508Z" transform="translate(0 -2.708)" fill="#dea806"/>
  <path id="Path_1816" data-name="Path 1816" d="M9.046,18H1.319A1.321,1.321,0,0,0,0,19.319V21.2a1.321,1.321,0,0,0,1.319,1.319H9.046Z" transform="translate(0 -4.431)" fill="#546d79"/>
</svg>
