<svg xmlns="http://www.w3.org/2000/svg" width="19.994" height="19.892" viewBox="0 0 19.994 19.892">
  <g id="Events" transform="translate(0 -1.303)">
    <path id="Path_1783" data-name="Path 1783" d="M108.137,208.415c-.716,2.241-3.55,3.79-5.892,3.857-2.429.073-5.465-1.54-6.205-3.857a.588.588,0,0,1,1.12-.358c.576,1.8,3.186,3.123,5.085,3.038,1.848-.064,4.221-1.316,4.771-3.038a.588.588,0,0,1,1.12.358Z" transform="translate(-92.25 -198.255)" fill="#fabe2c"/>
    <path id="Path_1784" data-name="Path 1784" d="M59.742,191.4h-.98a.589.589,0,1,0-1.176,0h-.98a.588.588,0,0,0,0,1.176h.98v4.43a.588.588,0,0,0,1.176,0v-4.43h.98a.588.588,0,0,0,0-1.176Z" transform="translate(-53.823 -182.044)" fill="#fabe2c"/>
    <path id="Path_1785" data-name="Path 1785" d="M66.448,334.788a1.845,1.845,0,0,0-2.43,1.746v1.254a.588.588,0,0,0,.588.588h2.509a.588.588,0,0,0,.588-.588v-1.254A1.846,1.846,0,0,0,66.448,334.788Z" transform="translate(-61.509 -320.318)" fill="#fed843"/>
    <path id="Path_1786" data-name="Path 1786" d="M65.859,126.733a1.842,1.842,0,1,0,1.31,3.136A1.844,1.844,0,0,0,65.859,126.733Z" transform="translate(-61.507 -120.513)" fill="#fed843"/>
    <path id="Path_1787" data-name="Path 1787" d="M260.91,208.415c-.716,2.241-3.55,3.79-5.891,3.857v-1.177c1.848-.064,4.221-1.316,4.771-3.038a.588.588,0,0,1,1.12.358Z" transform="translate(-245.022 -198.255)" fill="#ff9100"/>
    <path id="Path_1788" data-name="Path 1788" d="M345.587,191.4h.98a.589.589,0,1,1,1.176,0h.98a.588.588,0,1,1,0,1.176h-.98v4.43a.588.588,0,1,1-1.176,0v-4.43h-.98a.588.588,0,1,1,0-1.176Z" transform="translate(-331.475 -182.044)" fill="#ff9100"/>
    <path id="Path_1789" data-name="Path 1789" d="M354.253,334.788a1.845,1.845,0,0,1,2.43,1.746v1.254a.588.588,0,0,1-.588.588h-2.509a.588.588,0,0,1-.588-.588v-1.254A1.846,1.846,0,0,1,354.253,334.788Z" transform="translate(-339.162 -320.318)" fill="#fabe2c"/>
    <path id="Path_1790" data-name="Path 1790" d="M354.84,126.733a1.842,1.842,0,1,1-1.311,3.136A1.844,1.844,0,0,1,354.84,126.733Z" transform="translate(-339.16 -120.513)" fill="#fabe2c"/>
    <path id="Path_1791" data-name="Path 1791" d="M176.219,4.311l-1.154,1.124.272,1.588a.588.588,0,0,1-.58.688c-.2,0-.139,0-1.693-.814-.009,0,.1-.058-1.432.747a.588.588,0,0,1-.853-.62l.272-1.588L169.9,4.311a.589.589,0,0,1,.326-1l1.594-.232.713-1.444a.588.588,0,0,1,1.054,0l.713,1.444,1.594.232a.589.589,0,0,1,.326,1Z" transform="translate(-163.068 0)" fill="#fed843"/>
    <path id="Path_1792" data-name="Path 1792" d="M258.172,4.32l-1.154,1.124.272,1.588a.588.588,0,0,1-.58.688c-.2,0-.139,0-1.693-.814V1.313a.587.587,0,0,1,.521.328l.713,1.444,1.594.232A.589.589,0,0,1,258.172,4.32Z" transform="translate(-245.022 -0.009)" fill="#fabe2c"/>
    <path id="Path_1793" data-name="Path 1793" d="M19.4,408.32H.588a.588.588,0,0,1-.459-.955l2.38-3.142H17.522l2.341,3.142A.588.588,0,0,1,19.4,408.32Z" transform="translate(0 -387.125)" fill="#ff435b"/>
    <path id="Path_1794" data-name="Path 1794" d="M264.426,408.32h-9.408v-4.1h7.526l2.341,3.142A.588.588,0,0,1,264.426,408.32Z" transform="translate(-245.022 -387.125)" fill="#dd2a49"/>
  </g>
</svg>
