<svg xmlns="http://www.w3.org/2000/svg" width="18.111" height="18.464" viewBox="0 0 18.111 18.464">
  <g id="health-insurance" transform="translate(-4.903)">
    <g id="Group_17024" data-name="Group 17024" transform="translate(4.903 0)">
      <g id="Group_17023" data-name="Group 17023" transform="translate(0)">
        <path id="Path_1876" data-name="Path 1876" d="M13.959,18.464c9.321-3.817,9.055-14.558,9.055-14.558C20.084.976,13.959,0,13.959,0S7.834.976,4.9,3.906C4.9,3.906,4.638,14.647,13.959,18.464Z" transform="translate(-4.903 0)" fill="#a2c6fd"/>
        <path id="Path_1877" data-name="Path 1877" d="M13.959,18.509C4.638,14.691,4.9,3.95,4.9,3.95,7.77,1.084,13.695.088,13.95.046A17.461,17.461,0,0,0,7.51,2.8,3.011,3.011,0,0,0,6.349,5.438C6.609,8.523,7.874,15.569,13.959,18.509Z" transform="translate(-4.903 -0.044)" fill="#7898d5"/>
        <path id="Path_1878" data-name="Path 1878" d="M67.825,70.069A11.98,11.98,0,0,1,61.716,63a17.3,17.3,0,0,1-.931-4.447,18.769,18.769,0,0,1,7.038-2.762,18.916,18.916,0,0,1,7.042,2.763A17.3,17.3,0,0,1,73.934,63,11.979,11.979,0,0,1,67.825,70.069Z" transform="translate(-58.77 -53.775)" fill="#f5f0f0"/>
        <path id="Path_1879" data-name="Path 1879" d="M67.826,70.069A11.98,11.98,0,0,1,61.717,63a17.292,17.292,0,0,1-.931-4.447,18.775,18.775,0,0,1,7.038-2.762,18.513,18.513,0,0,0-3.471,1.145,3.955,3.955,0,0,0-2.252,4.42c.11.522.249,1.076.424,1.644A11.629,11.629,0,0,0,67.826,70.069Z" transform="translate(-58.771 -53.775)" fill="#e8ded8"/>
      </g>
    </g>
    <g id="Group_17025" data-name="Group 17025" transform="translate(10.45 5.113)">
      <path id="Path_1880" data-name="Path 1880" d="M165.225,143.821q-.55-.024-1.1-.038a.416.416,0,0,1-.405-.405q-.015-.55-.038-1.1a.413.413,0,0,0-.33-.389,5.806,5.806,0,0,0-2.269,0,.413.413,0,0,0-.33.389q-.024.55-.038,1.1a.416.416,0,0,1-.405.405q-.55.015-1.1.038a.413.413,0,0,0-.389.33,5.805,5.805,0,0,0,0,2.269.413.413,0,0,0,.389.33q.55.024,1.1.038a.416.416,0,0,1,.405.405q.015.55.038,1.1a.413.413,0,0,0,.33.389,5.807,5.807,0,0,0,2.269,0,.413.413,0,0,0,.33-.389q.024-.55.038-1.1a.416.416,0,0,1,.405-.405q.55-.015,1.1-.038a.413.413,0,0,0,.389-.33,5.807,5.807,0,0,0,0-2.269A.413.413,0,0,0,165.225,143.821Z" transform="translate(-158.708 -141.778)" fill="#dd636e"/>
    </g>
  </g>
</svg>
