<svg xmlns="http://www.w3.org/2000/svg" xmlns:xlink="http://www.w3.org/1999/xlink" width="260" height="80" viewBox="0 0 260 80">
  <defs>
    <clipPath id="clip-path">
      <rect id="Rectangle_3410" data-name="Rectangle 3410" width="100" height="80" rx="7" transform="translate(-33 3909)" fill="#fff" stroke="#707070" stroke-width="1"/>
    </clipPath>
  </defs>
  <g id="Invite_frnd" data-name="Invite frnd" transform="translate(-4206 -7926)">
    <g id="Group_17043" data-name="Group 17043" transform="translate(4191 7016)">
      <rect id="Rectangle_3409" data-name="Rectangle 3409" width="283" height="80" rx="7" transform="translate(15 910)" fill="#ffe08b"/>
      <text id="Invite_Friends" data-name="Invite Friends" transform="translate(104 948)" fill="#063e70" font-size="22" font-family="HelveticaRounded-Bold, Helvetica Rounded" font-weight="700"><tspan x="0" y="0">Invite Friends</tspan></text>
      <text id="And_get_Rs.100_in_your_wallet" data-name="And get Rs.100 in your wallet" transform="translate(104 969)" fill="#063e70" font-size="14" font-family="Roboto-Medium, Roboto" font-weight="500"><tspan x="0" y="0">And get Rs.100 in your wallet</tspan></text>
    </g>
    <g id="Mask_Group_100" data-name="Mask Group 100" transform="translate(4240 4017)" clip-path="url(#clip-path)">
      <g id="Group_17042" data-name="Group 17042" transform="translate(-232.541 1959.043)">
        <path id="Path_1895" data-name="Path 1895" d="M277.815,2859.025l-1.175-2.248-2.518-.307a.348.348,0,0,1-.207-.59l1.775-1.812-.487-2.489a.348.348,0,0,1,.5-.379l2.272,1.128,2.217-1.232a.349.349,0,0,1,.514.356l-.371,2.509,1.857,1.728a.348.348,0,0,1-.179.6l-2.5.423-1.069,2.3A.349.349,0,0,1,277.815,2859.025Z" transform="translate(-53.217 -831.893)" fill="#65cefe"/>
        <path id="Path_1896" data-name="Path 1896" d="M648.8,1945.534a1.508,1.508,0,0,1,1.683-1.279,1.5,1.5,0,1,1-1.683,1.279Zm.794-2.208.395-6.472a.938.938,0,0,1,1.04-.875l.644.072a.937.937,0,0,1,.821,1.081l-1.034,6.4Z" transform="translate(-394.102)" fill="#ff6e53"/>
        <g id="Group_17034" data-name="Group 17034" transform="translate(226.97 1977.323)">
          <path id="Path_1897" data-name="Path 1897" d="M548.737,2525.21c.044,1.605.458,5.05,4.1,5.619,2.26.354,5.154-1.676,4.967-3.167s-.6-5.288-2.96-6.157C552.872,2520.779,548.64,2521.628,548.737,2525.21Z" transform="translate(-530.115 -2509.41)" fill="#031322"/>
          <path id="Path_1898" data-name="Path 1898" d="M882.87,3131.691c.515,2.161.92,5.28,1.07,5.454.072.083.222.628.295.717,2.351.855,4.417-.027,6.054-1a24.156,24.156,0,0,1-3.253-.634c-.893-.63-.68-2.875-.841-4.89C885.56,3131.453,884.017,3131.051,882.87,3131.691Z" transform="translate(-833.875 -3064.003)" fill="#f7a491"/>
          <path id="Path_1899" data-name="Path 1899" d="M894.108,3192.494a6.59,6.59,0,0,0,.734,2.674c.2,0,7.268-.615,7.934-1.7.4-.652-.688-.822-2.27-1.134C898.868,3193.307,894.3,3193.029,894.108,3192.494Z" transform="translate(-844.091 -3119.474)" fill="#064c91"/>
          <path id="Path_1900" data-name="Path 1900" d="M460.478,3188.488a32.177,32.177,0,0,1-3.5,2.4c-.1.048-.665.046-.77.092-1.453,2.036-1.157,4.262-.66,6.1a18.607,18.607,0,0,1,1.482-2.964,34.529,34.529,0,0,1,4.523-2.182C460.662,3190.965,460.787,3189.765,460.478,3188.488Z" transform="translate(-445.032 -3115.976)" fill="#f7a491"/>
          <path id="Path_1901" data-name="Path 1901" d="M453.114,2691.665l-5.049,9.186s-3.376,4.249-5.114,6.43c.374.612.736,1.24,1.06,1.885a60.443,60.443,0,0,0,6.722-6.316c1.941-2.548,5.452-8.6,5.452-8.6Z" transform="translate(-433.946 -2664.317)" fill="#f7a491"/>
          <path id="Path_1902" data-name="Path 1902" d="M648.249,2867.526l-5.4,7.967s-.31-.534,1.624.174,14.407,3.037,15.145,3.918c.522.623,4.391,12.859,5.136,14.429,1.122.455,2.754-.05,3.906-.216.073-5.894-3.048-16.624-3.88-17.882-1.861-2.812-10.723-5.85-14.712-7.553-.647-.276-1.149-.524-1.46-.674C648.376,2867.577,648.249,2867.526,648.249,2867.526Z" transform="translate(-615.656 -2824.191)" fill="#4054e7"/>
          <path id="Path_1903" data-name="Path 1903" d="M441,3213.5a5.719,5.719,0,0,0-2.555-.044c-.052.2-1.355,7.167-.489,8.1.521.56.976-.442,1.7-1.884C439.162,3217.837,440.434,3213.549,441,3213.5Z" transform="translate(-429.139 -3138.568)" fill="#064c91"/>
          <path id="Path_1904" data-name="Path 1904" d="M522.747,2855.1c.047-.6,1.326-4.091,1.779-5.45.014-.043-.32-.829-.682-1.961l-.518.083-7.678.348s-3.092,5.223-2.732,7.622c.5,3.35,5.346,15.257,4.609,15.818-1.329,1.013-7.841,4.786-11.187,7.029a10.114,10.114,0,0,0,1.634,4.139c2.723-.947,14.49-5.69,15.7-9.33C524.741,2870.188,522.667,2856.12,522.747,2855.1Z" transform="translate(-491.571 -2806.161)" fill="#6577ff"/>
          <path id="Path_1905" data-name="Path 1905" d="M651.872,2606.2s-2.115,3.322-3.362,3.442l4.41,4.081s3-4.5,3.318-5.277C656.238,2608.45,653.5,2606.014,651.872,2606.2Z" transform="translate(-620.82 -2586.616)" fill="#e6a748"/>
          <path id="Path_1906" data-name="Path 1906" d="M551.394,2659.377a11.746,11.746,0,0,0,.366,3.83c-1.773.381-8.059,1.182-9.6-.689-.055-.067,2.177-4,1.87-5.611a31.054,31.054,0,0,0-2.585-6.607c-.274-.361-1.281,1.51-1.281,1.51-1.179.006-3.88-2.735-3.88-2.735s2.793-4.866,3.562-5.324,7.119-1.149,7.124-1.149c.467-.034,1.744,1.074,2.095,1.424C553.081,2648.031,552,2653.77,551.394,2659.377Z" transform="translate(-518.797 -2619.713)" fill="#83acff"/>
          <path id="Path_1907" data-name="Path 1907" d="M614.455,2605.278a18.026,18.026,0,0,1,.7,3.217c0,.93.376,2.2,2.325,2s.35-2.154.074-3.037a34.681,34.681,0,0,1-.609-3.671Z" transform="translate(-589.86 -2584.432)" fill="#f7a491"/>
          <path id="Path_1908" data-name="Path 1908" d="M617.127,2605.188c-.109-.761-.185-1.4-.185-1.4l-2.487,1.487s.142.468.3,1.066A2.294,2.294,0,0,0,617.127,2605.188Z" transform="translate(-589.86 -2584.432)" fill="#f47458"/>
          <path id="Path_1909" data-name="Path 1909" d="M578.789,2539.216a3.517,3.517,0,0,0-1.288,2.065c-.263,1.35.539,4.679,3.434,5.2s3.837-2.275,3.042-4.305S581.649,2537.632,578.789,2539.216Z" transform="translate(-556.223 -2525.273)" fill="#f7a491"/>
          <path id="Path_1910" data-name="Path 1910" d="M640.189,2557.255c0,.567-.262,1.028-.593,1.03s-.6-.457-.6-1.024.263-1.028.593-1.03S640.186,2556.688,640.189,2557.255Z" transform="translate(-612.167 -2541.195)" fill="#f7a491"/>
          <path id="Path_1911" data-name="Path 1911" d="M577.344,2593.738c.381.457.44,1.036.131,1.293s-.867.1-1.248-.361-.44-1.035-.131-1.293S576.963,2593.282,577.344,2593.738Z" transform="translate(-554.808 -2574.854)" fill="#f7a491"/>
          <path id="Path_1912" data-name="Path 1912" d="M363.506,2403.505c.114-1.555,1.214-7.339-2.324-7.888s-4.294,3.317-6.256-1.886c-1.817-4.82-7.219-2.954-7.445.707a3.237,3.237,0,0,0-1.538.242,3.5,3.5,0,0,0-1.739,4.634c.123.291.053.579.233.82a6.451,6.451,0,0,0,1.1,5.268c3.361,5.056,6.733-.266,9.006.017s.792,2.061,2.76,3.448,3.554,1.024,6.759-2.76l.791-1.043A1.35,1.35,0,0,1,363.506,2403.505Z" transform="translate(-343.906 -2390.834)" fill="#031322"/>
        </g>
        <g id="Group_17035" data-name="Group 17035" transform="translate(221.702 1967.719)">
          <path id="Path_1913" data-name="Path 1913" d="M337.5,2337.847l-16.715-48.69a5.927,5.927,0,0,0-7.48-3.66l-23.338,7.772a5.8,5.8,0,0,0-3.69,7.38l16.715,48.69a5.927,5.927,0,0,0,7.48,3.659l23.338-7.772A5.8,5.8,0,0,0,337.5,2337.847Zm-5.668,1.229-23.578,7.852a3.418,3.418,0,0,1-4.314-2.111l-15.459-45.034a3.343,3.343,0,0,1,2.128-4.256l23.578-7.852a3.418,3.418,0,0,1,4.314,2.111l15.46,45.034A3.343,3.343,0,0,1,331.827,2339.076Z" transform="translate(-285.958 -2285.19)" fill="#063e70"/>
        </g>
        <path id="Path_1914" data-name="Path 1914" d="M429.977,2860.267a5.414,5.414,0,0,0-.67.425l.016-.033c.11-.115.487-.519.49-.521.5-.378.235-.783-.228-.532a4.942,4.942,0,0,0-.733.474,5.8,5.8,0,0,0,.8-.907c-.012-.4-.616-.357-1.155.426-.472.686.224,1.885.426,2.168a1.448,1.448,0,0,0,.565.6l.123-.782a1.286,1.286,0,0,1,.593-.789C430.654,2860.594,430.441,2860.016,429.977,2860.267Z" transform="translate(-193.691 -839.05)" fill="#f7a491"/>
        <g id="Group_17037" data-name="Group 17037" transform="translate(230.703 1945.417)">
          <path id="Path_1915" data-name="Path 1915" d="M399.952,2048.4l-8.426,4.015a1.994,1.994,0,0,1-2.657-.942l-2.261-4.745a1.994,1.994,0,0,1,.942-2.657l8.426-4.015a1.993,1.993,0,0,1,2.657.942l2.261,4.745A1.994,1.994,0,0,1,399.952,2048.4Z" transform="translate(-386.282 -2039.861)" fill="#c9edf9"/>
          <path id="Path_1916" data-name="Path 1916" d="M386.776,2139.117l-1.8,5.377,4.008-2.964Z" transform="translate(-384.971 -2130.094)" fill="#c9edf9"/>
          <g id="Group_17036" data-name="Group 17036" transform="translate(4.644 2.825)">
            <path id="Path_1917" data-name="Path 1917" d="M436.2,2075.054l1.066-.542s.864-1.67.731-2.048-.722-1.027-.558-1.224a.783.783,0,0,1,1.084-.151c.371.244.811,1.582.978,1.6a6.329,6.329,0,0,0,1.177-.5.887.887,0,0,1,.916.079h0a.472.472,0,0,1,.152.575l-.142.317.311.159a.473.473,0,0,1,.206.633l-.119.236.2.085a.472.472,0,0,1,.23.665l-.111.2.048.034a.472.472,0,0,1,.132.625l-.115.194-2.839,1.442a2.19,2.19,0,0,1-.855.233l-1.083.342a.246.246,0,0,1-.3-.127l-1.224-2.5A.246.246,0,0,1,436.2,2075.054Z" transform="translate(-436.061 -2070.935)" fill="#fff"/>
          </g>
        </g>
        <path id="Path_1918" data-name="Path 1918" d="M220.627,2569.959l-2.1.419.261,1.98-2.052.5.016,1.923-1.474.629.318.746,1.971-.84-.015-1.822,2.135-.525-.257-1.947,1.9-.38Z" transform="translate(0 -576.353)" fill="#ff6e53"/>
        <path id="Path_1919" data-name="Path 1919" d="M225.932,2303.908l-1.175.361-.789-1.826-1.782.315-.814-1.27-.643.412,1.088,1.7,1.689-.3.821,1.9,1.768-.542Z" transform="translate(-4.957 -332.288)" fill="#65cefe"/>
        <g id="Group_17041" data-name="Group 17041" transform="translate(254.59 1959.278)">
          <path id="Path_1920" data-name="Path 1920" d="M697.25,2402.583a4.31,4.31,0,0,0-1.844-.658c-.476-.043-2.557-.042-2.827.459s1.915,1.918,2.032,2.507-1.265,9.737-1.664,11.553a24.612,24.612,0,0,1-1.667,4.064,8.161,8.161,0,0,1,3.074,1.606,27.5,27.5,0,0,0,2.175-5.87C696.79,2413.883,697.661,2402.921,697.25,2402.583Z" transform="translate(-687.322 -2382.856)" fill="#f7a491"/>
          <g id="Group_17040" data-name="Group 17040" transform="translate(0 0)">
            <g id="Group_17038" data-name="Group 17038" transform="translate(11.38 3.946)">
              <path id="Path_1921" data-name="Path 1921" d="M777.5,2235.741c-.709-.06-4.418,2.769-4.418,2.769l-.166.222a50.017,50.017,0,0,0,5.242.689C778.793,2239,778.082,2235.79,777.5,2235.741Zm-4.406,2.855a27.315,27.315,0,0,1,4.235-2.182,5.718,5.718,0,0,1,.454,2.4C777.192,2238.769,774.559,2238.829,773.094,2238.6Z" transform="translate(-772.916 -2235.74)" fill="#65cefe"/>
            </g>
            <g id="Group_17039" data-name="Group 17039" transform="translate(6.566)">
              <path id="Path_1922" data-name="Path 1922" d="M723.947,2193.939c-.642-1.717-1.268-1.637-1.713-1.579s-2.442,1.472-2.255,2.56,4.184,4.264,4.184,4.264l.265-.306A16.227,16.227,0,0,0,723.947,2193.939Zm-3.36.875c-.093-.542,1.292-1.7,1.748-1.844a.715.715,0,0,1,.267,0c.085.024.389.181.766,1.189a18.98,18.98,0,0,1,.837,4.668A17.62,17.62,0,0,1,720.587,2194.814Z" transform="translate(-719.967 -2192.338)" fill="#65cefe"/>
            </g>
            <path id="Rectangle_3406" data-name="Rectangle 3406" d="M.519,0h.44a.519.519,0,0,1,.519.519v0a.519.519,0,0,1-.519.519H.519A.519.519,0,0,1,0,.52v0A.519.519,0,0,1,.519,0Z" transform="translate(10.405 7.407) rotate(-74.067)" fill="#65cefe"/>
            <path id="Path_1923" data-name="Path 1923" d="M662.595,2259.706l-13.791-3.938a1.471,1.471,0,0,1-1.034-1.725l2.44-11.284,17.96,5.128-4.048,11.323A1.215,1.215,0,0,1,662.595,2259.706Z" transform="translate(-647.736 -2238.175)" fill="#ff6e53"/>
            <path id="Path_1924" data-name="Path 1924" d="M677.994,2248.3l-19.508-5.53.151-1.312a1.281,1.281,0,0,1,1.628-1.085l17.629,5.086c.627.181,1.007.708.824,1.14Z" transform="translate(-657.509 -2235.961)" fill="#ffcb83"/>
            <rect id="Rectangle_3407" data-name="Rectangle 3407" width="2.764" height="0.386" transform="matrix(0.274, -0.962, 0.962, 0.274, 10.334, 9.469)" fill="#65cefe"/>
            <rect id="Rectangle_3408" data-name="Rectangle 3408" width="10.388" height="0.482" transform="translate(7.861 19.553) rotate(-74.066)" fill="#65cefe"/>
          </g>
          <path id="Path_1925" data-name="Path 1925" d="M698.538,2391.141l.05-.587a13,13,0,0,1-1.3-.449l-.076-.448c-.248-.614-.523-.176-.6-.036a3.2,3.2,0,0,0,.068.88s.93.982,1.327,1.353c.2.184.824.693.824.693l.5-.692Z" transform="translate(-692.164 -2371.429)" fill="#f7a491"/>
        </g>
      </g>
    </g>
  </g>
</svg>
