<svg xmlns="http://www.w3.org/2000/svg" width="19.539" height="19.539" viewBox="0 0 19.539 19.539">
  <g id="logout" transform="translate(0 -0.004)">
    <path id="Path_1888" data-name="Path 1888" d="M12.212,10.587a.814.814,0,0,0-.814.814v3.257a.815.815,0,0,1-.814.814H8.141V3.26A1.641,1.641,0,0,0,7.032,1.713l-.241-.081h3.792a.815.815,0,0,1,.814.814V4.888a.814.814,0,1,0,1.628,0V2.446A2.445,2.445,0,0,0,10.583,0H1.832a.639.639,0,0,0-.087.018C1.705.018,1.668,0,1.628,0A1.63,1.63,0,0,0,0,1.632V16.286a1.641,1.641,0,0,0,1.109,1.548l4.9,1.633a1.685,1.685,0,0,0,.5.076,1.63,1.63,0,0,0,1.628-1.628V17.1h2.442a2.445,2.445,0,0,0,2.442-2.442V11.4a.814.814,0,0,0-.814-.814Zm0,0" transform="translate(0 0)" fill="#666"/>
    <path id="Path_1889" data-name="Path 1889" d="M286.049,110.161l-3.257-3.256a.814.814,0,0,0-1.39.576v2.442h-3.256a.814.814,0,1,0,0,1.628H281.4v2.442a.814.814,0,0,0,1.39.576l3.257-3.257A.813.813,0,0,0,286.049,110.161Zm0,0" transform="translate(-266.749 -102.591)" fill="#666"/>
  </g>
</svg>
