<svg xmlns="http://www.w3.org/2000/svg" width="20.588" height="16.713" viewBox="0 0 20.588 16.713">
  <g id="News" transform="translate(0 -48.183)">
    <g id="Group_17003" data-name="Group 17003" transform="translate(0 56.025)">
      <path id="Path_1772" data-name="Path 1772" d="M1.059,243.2A1.059,1.059,0,0,0,0,244.26v7.812H7.771l1.908-3.243L7.771,243.2H1.059Z" transform="translate(0 -243.201)" fill="#c1c7e6"/>
      <path id="Path_1773" data-name="Path 1773" d="M193.259,243.2h7.9v8.871h-7.9Z" transform="translate(-185.488 -243.202)" fill="#b1b3cf"/>
    </g>
    <g id="Group_17008" data-name="Group 17008" transform="translate(1.139 48.183)">
      <g id="Group_17004" data-name="Group 17004" transform="translate(2.344 0)">
        <path id="Path_1774" data-name="Path 1774" d="M87.786,48.183v7.842l-1.154,6.834h9.149l1.437-9.312-1.437-5.364Z" transform="translate(-86.632 -48.183)" fill="#f1f1f1"/>
        <path id="Path_1775" data-name="Path 1775" d="M314.141,48.183V62.859h6.1A1.857,1.857,0,0,0,322.1,61V48.183Z" transform="translate(-304.992 -48.183)" fill="#e2e2f1"/>
      </g>
      <g id="Group_17005" data-name="Group 17005" transform="translate(6.471 2.923)">
        <path id="Path_1776" data-name="Path 1776" d="M189.259,120.864v4.274h5.022l.874-2.137-.874-2.137Z" transform="translate(-189.259 -120.864)" fill="#63e1ce"/>
        <path id="Path_1777" data-name="Path 1777" d="M314.141,120.864h5.183v4.274h-5.183Z" transform="translate(-309.119 -120.864)" fill="#4fbbbf"/>
      </g>
      <path id="Path_1778" data-name="Path 1778" d="M30.635,250.036a1.17,1.17,0,0,1-1.17-1.17v-4.53A1.135,1.135,0,0,0,28.33,243.2H31.8v5.665A1.17,1.17,0,0,1,30.635,250.036Z" transform="translate(-28.33 -235.36)" fill="#d6d6ea"/>
      <g id="Group_17006" data-name="Group 17006" transform="translate(6.433 10.963)">
        <path id="Path_1779" data-name="Path 1779" d="M335.879,320.811h4.347v1.206h-4.347Z" transform="translate(-329.944 -320.811)" fill="#495a83"/>
        <path id="Path_1780" data-name="Path 1780" d="M188.3,320.811h4.214v1.206H188.3Z" transform="translate(-188.297 -320.811)" fill="#617296"/>
      </g>
      <g id="Group_17007" data-name="Group 17007" transform="translate(6.433 8.55)">
        <path id="Path_1781" data-name="Path 1781" d="M188.3,260.811v1.206h5.06l.461-.6-.461-.6Z" transform="translate(-188.297 -260.811)" fill="#617296"/>
        <path id="Path_1782" data-name="Path 1782" d="M314.141,260.811h5.221v1.206h-5.221Z" transform="translate(-309.081 -260.811)" fill="#495a83"/>
      </g>
    </g>
  </g>
</svg>
