<svg xmlns="http://www.w3.org/2000/svg" width="17.85" height="23.434" viewBox="0 0 17.85 23.434">
  <g id="TnC" transform="translate(-61)">
    <path id="Path_1886" data-name="Path 1886" d="M73.312,6.865a1.6,1.6,0,0,1-1.6-1.6V0H63.517A2.52,2.52,0,0,0,61,2.517v18.4a2.52,2.52,0,0,0,2.517,2.517H76.333a2.52,2.52,0,0,0,2.517-2.517V6.865Zm-8.559,9.611h3.328a.687.687,0,1,1,0,1.373H64.753a.687.687,0,1,1,0-1.373ZM64.067,13.5a.687.687,0,0,1,.687-.687H74.822a.687.687,0,1,1,0,1.373H64.753A.687.687,0,0,1,64.067,13.5ZM74.822,9.154a.687.687,0,1,1,0,1.373H64.753a.687.687,0,1,1,0-1.373Z" transform="translate(0)" fill="#666"/>
    <path id="Path_1887" data-name="Path 1887" d="M325,11.2a.229.229,0,0,0,.229.229h5.232a2.511,2.511,0,0,0-.481-.628l-4.413-4.175a2.524,2.524,0,0,0-.566-.4V11.2Z" transform="translate(-251.917 -5.936)" fill="#666"/>
  </g>
</svg>
