<svg xmlns="http://www.w3.org/2000/svg" width="21.54" height="32.31" viewBox="0 0 21.54 32.31">
  <g id="books" transform="translate(-154.483)">
    <path id="Path_1607" data-name="Path 1607" d="M154.483,25.13V2.992A2.992,2.992,0,0,1,157.475,0h18.548V22.737h0" fill="#ea9d2d"/>
    <g id="Group_16836" data-name="Group 16836" transform="translate(161.065 2.393)">
      <rect id="Rectangle_3194" data-name="Rectangle 3194" width="12.565" height="7.18" rx="1" fill="#b47923"/>
    </g>
    <path id="Path_1608" data-name="Path 1608" d="M158.671,0V25.13h-4.188V2.992A2.992,2.992,0,0,1,157.475,0Z" fill="#d68f29"/>
    <path id="Path_1609" data-name="Path 1609" d="M168.843,340.236H156.876a2.393,2.393,0,0,1-2.393-2.393h0a2.393,2.393,0,0,1,2.393-2.393h19.147v4.787H173.63" transform="translate(0 -312.712)" fill="#dbdbdb"/>
    <path id="Path_1610" data-name="Path 1610" d="M156.876,373.152h19.147v-2.393h-21.54A2.393,2.393,0,0,0,156.876,373.152Z" transform="translate(0 -345.629)" fill="#b9b9b9"/>
    <path id="Path_1611" data-name="Path 1611" d="M366.345,370.759h4.787v7.18l-2.393-2.393-2.393,2.393Z" transform="translate(-197.502 -345.629)" fill="#dc4d41"/>
    <rect id="Rectangle_3198" data-name="Rectangle 3198" width="4.787" height="1.795" transform="translate(168.843 25.13)" fill="#c7463b"/>
  </g>
</svg>
