<svg xmlns="http://www.w3.org/2000/svg" width="13.333" height="13.827" viewBox="0 0 13.333 13.827">
  <g id="Book_Appointment" data-name="Book Appointment" transform="translate(-5 -4.001)">
    <path id="Path_1615" data-name="Path 1615" d="M7.973,33.269a4.935,4.935,0,0,0,7.387,0,4.652,4.652,0,0,1,2.973,4.338v.78a1.481,1.481,0,0,1-1.481,1.481H6.481A1.481,1.481,0,0,1,5,38.387v-.78a4.652,4.652,0,0,1,2.973-4.338Z" transform="translate(0 -22.041)" fill="#fff" fill-rule="evenodd"/>
    <path id="Path_1616" data-name="Path 1616" d="M19.952,11.9a3.95,3.95,0,1,1,3.95-3.95A3.95,3.95,0,0,1,19.952,11.9Z" transform="translate(-8.285)" fill="#fff" fill-rule="evenodd"/>
  </g>
</svg>
