<svg xmlns="http://www.w3.org/2000/svg" width="17.52" height="17.635" viewBox="0 0 17.52 17.635">
  <g id="call" transform="translate(-61.994 39.218)">
    <g id="Call-2" data-name="Call" transform="translate(52.263 -48.657)">
      <path id="Path_1601" data-name="Path 1601" d="M27.14,24.21c-.368.63-1.943,2.94-2.862,2.862-3.113-.267-6.8-2.967-9.189-5.356S10,15.64,9.733,12.527c-.079-.919,2.232-2.494,2.862-2.862s1.764,0,3.518,3.833a2.273,2.273,0,0,1-.84,2.888,17.149,17.149,0,0,0,2.284,2.862,17.149,17.149,0,0,0,2.862,2.284,2.273,2.273,0,0,1,2.888-.84C27.144,22.447,27.507,23.58,27.14,24.21ZM19.82,10.623a5.517,5.517,0,0,1,5.719,5.729.59.59,0,0,0,.565.615h.025a.59.59,0,0,0,.589-.565,6.7,6.7,0,0,0-6.944-6.958.59.59,0,0,0-.567.612.579.579,0,0,0,.613.567ZM19.329,13.2a.591.591,0,0,0,.612.567,2.332,2.332,0,0,1,1.76.693,2.356,2.356,0,0,1,.693,1.758.59.59,0,0,0,.565.615h.025a.59.59,0,0,0,.589-.565,3.55,3.55,0,0,0-3.677-3.68.59.59,0,0,0-.567.612Z" fill="#17a401"/>
    </g>
  </g>
</svg>
