<svg xmlns="http://www.w3.org/2000/svg" width="28.726" height="36.982" viewBox="0 0 28.726 36.982">
  <g id="Cooking" transform="translate(-160.053 0.008)">
    <path id="Path_1639" data-name="Path 1639" d="M197.074,115.209a51.7,51.7,0,0,0-15.307,0q-2.222.331-4.447.861v9.758c0,3.455,2.517,6.506,5.413,8.516,2.364,1.647,4.982,2.594,6.669,2.5a13.813,13.813,0,0,0,6.714-2.467c3.038-2.073,5.446-5.293,5.446-9.073v-9.242q-2.239-.523-4.489-.858Zm0,0" transform="translate(-15.043 -99.877)" fill="#ffdda6" fill-rule="evenodd"/>
    <path id="Path_1640" data-name="Path 1640" d="M174.714,0a6.757,6.757,0,0,0-6.022,3.59h-3.285c-4.747,0-7.575,5.218-3.131,7.984v7.258q2.228-.527,4.448-.861a51.663,51.663,0,0,1,15.307,0q2.25.336,4.489.861V11.573c4.444-2.766,1.739-7.984-3.007-7.984H179.98A5.174,5.174,0,0,0,174.759,0Zm0,0" fill="#e6e6e6" fill-rule="evenodd"/>
    <path id="Path_1641" data-name="Path 1641" d="M326.487,35.859c4.444-2.766,1.739-7.984-3.007-7.984h-2.772c4.257,0,6.886,3.807,4.171,6.67-.872.917-1.148.442-1.148,1.726l-.011,6.269q1.386.253,2.768.576Zm0,0" transform="translate(-139.967 -24.286)" fill="#c2c7cc" fill-rule="evenodd"/>
    <path id="Path_1642" data-name="Path 1642" d="M263.013,175.437a6.763,6.763,0,0,1-2.768-1.257v2.42c0,3.78-2.413,7-5.45,9.073a13.78,13.78,0,0,1-6.714,2.467c-.075,0-.15.008-.228.008a8.02,8.02,0,0,0,3,.569,13.813,13.813,0,0,0,6.714-2.467c3.038-2.074,5.446-5.293,5.446-9.074Zm0,0" transform="translate(-76.493 -151.751)" fill="#fcc368" fill-rule="evenodd"/>
    <path id="Path_1657" data-name="Path 1657" d="M334.941,140.419q-2.239-.527-4.489-.861c-.528,4.753,4.189,5.663,4.489,5.716Zm0,0" transform="translate(-148.422 -121.588)" fill="gray" fill-rule="evenodd"/>
    <path id="Path_1658" data-name="Path 1658" d="M181.767,139.559q-2.222.337-4.447.861v4.847C177.967,145.14,182.269,144.1,181.767,139.559Zm0,0" transform="translate(-15.043 -121.589)" fill="gray" fill-rule="evenodd"/>
    <path id="Path_1659" data-name="Path 1659" d="M346.862,142.342q-1.38-.325-2.768-.576v4.173a6.768,6.768,0,0,0,2.768,1.258Zm0,0" transform="translate(-160.342 -123.511)" fill="#666" fill-rule="evenodd"/>
    <path id="Path_1660" data-name="Path 1660" d="M217.5,171.707a1,1,0,0,1-.716-1.705,3.643,3.643,0,0,1,2.458-.818h.02a3.684,3.684,0,0,1,2.485.812,1,1,0,0,1-1.422,1.413,2.667,2.667,0,0,0-2.11,0A1,1,0,0,1,217.5,171.707Zm0,0" transform="translate(-49.178 -147.398)" fill="#666"/>
    <path id="Path_1661" data-name="Path 1661" d="M280.568,171.707a1,1,0,0,1-.716-1.705,3.645,3.645,0,0,1,2.458-.818h.02a3.686,3.686,0,0,1,2.485.812,1,1,0,1,1-1.423,1.413,2.665,2.665,0,0,0-2.109,0,1,1,0,0,1-.715.3Zm0,0" transform="translate(-104.123 -147.398)" fill="#666"/>
    <path id="Path_1662" data-name="Path 1662" d="M263.523,48.589a1,1,0,0,1-1-1v-4.6a1,1,0,0,1,2.005,0v4.6a1,1,0,0,1-1.005,1Zm0,0" transform="translate(-89.272 -36.575)" fill="#c2c7cc"/>
    <path id="Path_1663" data-name="Path 1663" d="M210.652,64.75a1,1,0,0,1-1-1v-4.6a1,1,0,0,1,2.005,0v4.6a1,1,0,0,1-1.005,1Zm0,0" transform="translate(-43.21 -50.658)" fill="#c2c7cc"/>
    <path id="Path_1664" data-name="Path 1664" d="M316.393,64.75a1,1,0,0,1-1-1v-4.6a1,1,0,0,1,2.005,0v4.6a1,1,0,0,1-1.005,1Zm0,0" transform="translate(-135.335 -50.658)" fill="#c2c7cc"/>
  </g>
</svg>
