<svg xmlns="http://www.w3.org/2000/svg" width="14.984" height="14.984" viewBox="0 0 14.984 14.984">
  <g id="doc_shift_timw" transform="translate(-1.5 -1.5)">
    <path id="Path_1606" data-name="Path 1606" d="M9.992,2.5a7.492,7.492,0,1,0,7.492,7.492A7.5,7.5,0,0,0,9.992,2.5ZM13.7,10.465H11.585A1.666,1.666,0,1,1,9.519,8.4V5.639a.475.475,0,0,1,.473-.473.465.465,0,0,1,.473.473V8.4A1.706,1.706,0,0,1,11.6,9.535h2.114a.466.466,0,1,1-.016.931Z" transform="translate(-1 -1)" fill="#438cec"/>
    <circle id="Ellipse_162" data-name="Ellipse 162" cx="0.682" cy="0.682" r="0.682" transform="translate(8.31 8.31)" fill="#438cec"/>
  </g>
</svg>
