<svg xmlns="http://www.w3.org/2000/svg" width="23.078" height="22.14" viewBox="0 0 23.078 22.14">
  <g id="Favourite" transform="translate(163.902 -6.786)">
    <path id="Path_1598" data-name="Path 1598" d="M27.223,12.43a1.053,1.053,0,0,0-.846-.719l-5.994-.9L17.7,5.372a1.052,1.052,0,0,0-1.887,0l-2.687,5.443-5.994.9a1.052,1.052,0,0,0-.577,1.8l4.335,4.2L9.854,23.7A1.052,1.052,0,0,0,11.38,24.8l5.372-2.824L22.125,24.8a1.052,1.052,0,0,0,1.526-1.11l-1.033-5.99,4.335-4.2A1.053,1.053,0,0,0,27.223,12.43Z" transform="translate(-169.116 3)" fill="none" stroke="#666" stroke-width="2"/>
  </g>
</svg>
