<svg xmlns="http://www.w3.org/2000/svg" width="25.486" height="32.312" viewBox="0 0 25.486 32.312">
  <g id="Gardening" transform="translate(-54.068)">
    <path id="Path_1585" data-name="Path 1585" d="M292.816,45.536a12.789,12.789,0,0,1-1.524,10.514,6.827,6.827,0,0,1-5.27,3.561,6.827,6.827,0,0,1-.49-6.342A12.789,12.789,0,0,1,292.816,45.536Z" transform="translate(-216.354 -42.662)" fill="#80c56e"/>
    <path id="Path_1586" data-name="Path 1586" d="M308.029,45.536l-6.8,14.076h0a6.827,6.827,0,0,0,5.27-3.561A12.788,12.788,0,0,0,308.029,45.536Z" transform="translate(-231.567 -42.662)" fill="#66ad66"/>
    <path id="Path_1588" data-name="Path 1588" d="M95.5,45.536A12.789,12.789,0,0,0,97.024,56.05a6.827,6.827,0,0,0,5.27,3.561,6.827,6.827,0,0,0,.49-6.342A12.789,12.789,0,0,0,95.5,45.536Z" transform="translate(-38.336 -42.662)" fill="#80c56e"/>
    <path id="Path_1589" data-name="Path 1589" d="M110.379,53.27a12.789,12.789,0,0,0-7.285-7.734c4.018,7.674,6.185,12.59,6.811,14.052a6.848,6.848,0,0,0,.474-6.318Z" transform="translate(-45.931 -42.662)" fill="#66ad66"/>
    <path id="Path_1590" data-name="Path 1590" d="M177.475,0c-.484.47-6.084,6.144-5.193,16.452a11.091,11.091,0,0,0,5.193,8.929c.42-.227,4.652-2.667,5.193-8.929C183.559,6.144,177.96.47,177.475,0Z" transform="translate(-110.663)" fill="#80c56e"/>
    <path id="Path_1591" data-name="Path 1591" d="M256,0V25.381c.42-.227,4.652-2.667,5.193-8.929C262.084,6.144,256.484.47,256,0Z" transform="translate(-189.188)" fill="#66ad66"/>
    <path id="Path_1592" data-name="Path 1592" d="M267.988,146.32a20.285,20.285,0,0,0,.7-6.986,63.48,63.48,0,0,0-7.128,4.2c-3.963,2.561-5.19,7.052-5.557,8.262h4.658a7.625,7.625,0,0,0,7.327-5.476Z" transform="translate(-189.188 -130.541)" fill="#80c56e"/>
    <path id="Path_1593" data-name="Path 1593" d="M268.685,139.333s-5.24,10.352-12.685,12.461h4.658a7.625,7.625,0,0,0,7.33-5.474A20.29,20.29,0,0,0,268.685,139.333Z" transform="translate(-189.188 -130.54)" fill="#66ad66"/>
    <path id="Path_1594" data-name="Path 1594" d="M54.824,146.32a20.287,20.287,0,0,1-.7-6.986,63.477,63.477,0,0,1,7.128,4.2c3.963,2.561,5.19,7.052,5.557,8.262H62.154a7.625,7.625,0,0,1-7.33-5.476Z" transform="translate(0 -130.541)" fill="#80c56e"/>
    <path id="Path_1595" data-name="Path 1595" d="M67.674,151.794c-.368-1.21-1.594-5.7-5.557-8.262a63.486,63.486,0,0,0-7.128-4.2S60.229,149.685,67.674,151.794Z" transform="translate(-0.862 -130.54)" fill="#66ad66"/>
    <path id="Path_1596" data-name="Path 1596" d="M133.783,351.7h-6.737a3.709,3.709,0,0,1-3.646-3.03l-1.444-7.767h16.918l-1.444,7.766a3.709,3.709,0,0,1-3.647,3.031Z" transform="translate(-63.603 -319.388)" fill="#fec37d"/>
    <path id="Path_1597" data-name="Path 1597" d="M262.614,340.9l-1.444,7.767a3.709,3.709,0,0,1-3.646,3.031H260.8a3.709,3.709,0,0,0,3.646-3.03l1.444-7.767h-3.272Z" transform="translate(-190.615 -319.388)" fill="#f9ae5d"/>
    <path id="Path_1598" data-name="Path 1598" d="M115.718,330.416H98.211a1.285,1.285,0,0,1-1.285-1.285h0a1.285,1.285,0,0,1,1.285-1.285h17.508A1.285,1.285,0,0,1,117,329.132h0a1.285,1.285,0,0,1-1.282,1.284Z" transform="translate(-40.152 -307.158)" fill="#f2a559"/>
    <path id="Path_1599" data-name="Path 1599" d="M364.162,327.846H362.1v2.569h2.058a1.285,1.285,0,0,0,1.285-1.285h0a1.285,1.285,0,0,0-1.281-1.284Z" transform="translate(-288.596 -307.157)" fill="#ea8f3d"/>
  </g>
</svg>
