<svg xmlns="http://www.w3.org/2000/svg" width="33.166" height="33.171" viewBox="0 0 33.166 33.171">
  <g id="Health" transform="translate(-0.018)">
    <path id="Path_1528" data-name="Path 1528" d="M105.577,0a5.309,5.309,0,0,0-3.887,1.751A5.309,5.309,0,0,0,97.8,0,6.867,6.867,0,0,0,91,6.867c0,3.772,2.768,5.72,5.974,7.976a48.977,48.977,0,0,1,4.079,3.1l.636.552h0l.636-.551c1.571-1.359,3.064-2.423,4.382-3.361,3.169-2.256,5.672-4.038,5.672-7.713A6.867,6.867,0,0,0,105.577,0Z" transform="translate(-85.089)" fill="#ff6e83"/>
    <path id="Path_1529" data-name="Path 1529" d="M261.017,14.58c3.169-2.256,5.672-4.038,5.672-7.713A6.866,6.866,0,0,0,259.886,0,5.308,5.308,0,0,0,256,1.751V18.492l.636-.551C258.206,16.583,259.7,15.519,261.017,14.58Z" transform="translate(-239.399)" fill="#ff3b7f"/>
    <path id="Path_1530" data-name="Path 1530" d="M32.021,137.2c-1.983,0-2.494,9.213-2.533,9.407a7.555,7.555,0,0,1-2.754,4.551l-4.209,3.056-1.165-1.556,4.209-3.055c1.667-1.25,2.427-3.385.343-3.385-1.866,0-6.327,2.161-7.361,3.018A5.686,5.686,0,0,0,16.6,153.26a5.169,5.169,0,0,0-2.177-4.2,15.556,15.556,0,0,0-7.133-2.838c-2.084,0-1.324,2.135.343,3.385l4.209,3.055-1.165,1.556L6.47,151.157a7.554,7.554,0,0,1-2.754-4.551c-.039-.194-.551-9.407-2.533-9.407-1.088.1-1.212,3.265-1.153,6.3.039,2.216.22,4.373.317,5.17.311,2.255,2.689,4.47,4.982,6.628a27.634,27.634,0,0,1,3.188,3.265A4.975,4.975,0,0,1,9.8,161.481H23.4a4.975,4.975,0,0,1,1.283-2.922,27.643,27.643,0,0,1,3.188-3.265c2.293-2.157,4.671-4.373,4.982-6.628.1-.8.279-2.954.317-5.17C33.232,140.464,33.109,137.3,32.021,137.2Z" transform="translate(0 -128.31)" fill="#ffe1ba"/>
    <path id="Path_1531" data-name="Path 1531" d="M264.084,158.559a27.641,27.641,0,0,1,3.187-3.265c2.294-2.157,4.671-4.373,4.982-6.628.1-.8.279-2.954.317-5.17.058-3.032-.065-6.2-1.153-6.3-1.983,0-2.494,9.213-2.533,9.407a7.554,7.554,0,0,1-2.754,4.551l-4.209,3.056-1.165-1.556,4.209-3.055c1.667-1.25,2.427-3.385.343-3.385-1.866,0-6.327,2.161-7.361,3.018A5.686,5.686,0,0,0,256,153.259v8.222h6.8a4.976,4.976,0,0,1,1.284-2.922Z" transform="translate(-239.398 -128.31)" fill="#ffbfab"/>
    <path id="Path_1532" data-name="Path 1532" d="M214.887,92.944V91h-1.944v1.944H211v1.944h1.944v1.944h1.944V94.887h1.944V92.944Z" transform="translate(-197.314 -85.104)" fill="#ffe1ba"/>
    <path id="Path_1533" data-name="Path 1533" d="M256.972,94.887h1.944V92.944h-1.944V91H256v5.831h.972Z" transform="translate(-239.399 -85.104)" fill="#ffbfab"/>
  </g>
</svg>
