<svg xmlns="http://www.w3.org/2000/svg" width="20.694" height="19.104" viewBox="0 0 20.694 19.104">
  <g id="Health_Filled" transform="translate(0 -25.006)">
    <path id="Path_1509" data-name="Path 1509" d="M10.341,26.723a6.067,6.067,0,0,0-9.33,7.66h4.46l.793-1.322A.606.606,0,0,1,7.3,33.047l1.674,2.63,2.44-5.151a.607.607,0,0,1,1.082-.028l2.092,3.884h5.088c3.769-5.891-3.68-12.6-9.33-7.66Z" transform="translate(0 0)" fill="#055f9b"/>
    <path id="Path_1510" data-name="Path 1510" d="M60.463,204.411l-1.695-3.148-2.4,5.059a.607.607,0,0,1-1.059.066l-1.737-2.729-.465.775a.606.606,0,0,1-.52.294H48.746c.121.126-.522-.515,7.943,7.906a.606.606,0,0,0,.855,0c8.335-8.292,7.823-7.781,7.943-7.906H61A.606.606,0,0,1,60.463,204.411Z" transform="translate(-46.776 -168.702)" fill="#055f9b"/>
  </g>
</svg>
