<svg xmlns="http://www.w3.org/2000/svg" width="40" height="40" viewBox="0 0 40 40">
  <g id="My_Location" transform="translate(-31 -477)">
    <rect id="Rectangle_3231" data-name="Rectangle 3231" width="40" height="40" rx="6" transform="translate(31 477)" fill="#d8eafe"/>
    <g id="noun_Detect_Location_1666879" data-name="noun_Detect Location_1666879" transform="translate(136.5 455.375)">
      <g id="Group_16704" data-name="Group 16704" transform="translate(-105.575 20.425)">
        <path id="Path_1689" data-name="Path 1689" d="M30.3,19.923H28.056a7.52,7.52,0,0,0-6.83-6.83V10.852a.652.652,0,1,0-1.3,0v2.242a7.52,7.52,0,0,0-6.83,6.83H10.852a.652.652,0,1,0,0,1.3h2.242a7.52,7.52,0,0,0,6.83,6.83V30.3a.652.652,0,0,0,1.3,0V28.056a7.52,7.52,0,0,0,6.83-6.83H30.3a.652.652,0,0,0,0-1.3Zm-3.545,1.3a6.238,6.238,0,0,1-5.526,5.526,5.449,5.449,0,0,1-.652.026,5.449,5.449,0,0,1-.652-.026A6.238,6.238,0,0,1,14.4,21.227a5.449,5.449,0,0,1-.026-.652,5.449,5.449,0,0,1,.026-.652A6.238,6.238,0,0,1,19.923,14.4a5.449,5.449,0,0,1,.652-.026,5.449,5.449,0,0,1,.652.026,6.263,6.263,0,0,1,5.526,5.526,5.235,5.235,0,0,1,.026.652A5.448,5.448,0,0,1,26.753,21.227Z" fill="#95b9e4"/>
        <circle id="Ellipse_181" data-name="Ellipse 181" cx="2.789" cy="2.789" r="2.789" transform="translate(17.786 17.786)" fill="#95b9e4"/>
      </g>
    </g>
  </g>
</svg>
