<svg xmlns="http://www.w3.org/2000/svg" width="41.791" height="32.648" viewBox="0 0 41.791 32.648">
  <g id="Politics" transform="translate(0 -56)">
    <g id="Group_16804" data-name="Group 16804" transform="translate(5.679 61.861)">
      <path id="Path_1534" data-name="Path 1534" d="M78.716,127.821,71.244,130l-1.667,6.613c.288,2.429.744,4.7,2.245,5.975l12.392,10.071,1.5,1.154c2.257,1.736,4.4-.69,2.679-2.484-.024-.026-.05-.053-.076-.079a2.215,2.215,0,0,0,1.8.533,1.585,1.585,0,0,0,.958-2.77c2.255,1.8,4.181-1.068,2.415-2.641a2.356,2.356,0,0,0,2.069-4.1c-.014-.017-.031-.036-.048-.053l-5.127-7.633-6.877-4.406Z" transform="translate(-69.577 -127.821)" fill="#ffbc85" fill-rule="evenodd"/>
    </g>
    <g id="Group_16805" data-name="Group 16805" transform="translate(15.62 83.513)">
      <path id="Path_1535" data-name="Path 1535" d="M195.874,396.482c1.907-2.032-.875-4.371-2.412-2.993l-1.647,1.567a.517.517,0,0,1-.055.05c-1.382,1.39,1.13,4.557,3.208,2.341Z" transform="translate(-191.363 -393.076)" fill="#ffe5c1" fill-rule="evenodd"/>
    </g>
    <g id="Group_16806" data-name="Group 16806" transform="translate(12.68 80.228)">
      <path id="Path_1536" data-name="Path 1536" d="M157.517,353.7l-1.74,1.825-.007.01a1.912,1.912,0,0,0,.765,2.9,1.8,1.8,0,0,0,2.152-.284l1.864-.029-.162-1.588.238-.224a2.027,2.027,0,1,0-2.927-2.8Z" transform="translate(-155.351 -352.833)" fill="#ffe5c1" fill-rule="evenodd"/>
    </g>
    <g id="Group_16807" data-name="Group 16807" transform="translate(9.406 76.914)">
      <path id="Path_1537" data-name="Path 1537" d="M117.573,313.906l-1.63,1.732-.229.246c-1.609,1.708,1.273,4.4,2.934,2.653l.286-.3c.024-.026,1.771-.208,1.962-.229l-.031-1.8.558-.585a1.992,1.992,0,1,0-2.906-2.723Z" transform="translate(-115.241 -312.229)" fill="#ffe5c1" fill-rule="evenodd"/>
    </g>
    <g id="Group_16808" data-name="Group 16808" transform="translate(6.81 75.22)">
      <path id="Path_1538" data-name="Path 1538" d="M84.551,292.894l-.553.6c-1.7,1.849.834,4.8,2.736,3.09l1.561-.241.069-1.49A2.073,2.073,0,0,0,85.1,292.3Z" transform="translate(-83.437 -291.482)" fill="#ffe5c1" fill-rule="evenodd"/>
    </g>
    <g id="Group_16809" data-name="Group 16809" transform="translate(0 56.183)">
      <path id="Path_1539" data-name="Path 1539" d="M10.26,58.744,2.692,66.031.54,68.1a1.776,1.776,0,0,0-.05,2.5L3.7,73.95a.494.494,0,0,0,.694.014l1.285-1.237,9.139-8.8,1.135-1.094a.491.491,0,0,0,.014-.695L12.756,58.79a1.767,1.767,0,0,0-2.5-.05Z" transform="translate(0 -58.253)" fill="#7bacdf" fill-rule="evenodd"/>
    </g>
    <g id="Group_16810" data-name="Group 16810" transform="translate(22.355 69.341)">
      <path id="Path_1540" data-name="Path 1540" d="M276.17,219.46l-2.3.525.9.915,6.96,6.921.048.053a2.523,2.523,0,0,1,.706,2.613,2.394,2.394,0,0,0,.691-4.053l-.048-.053-2.088-2.075Z" transform="translate(-273.872 -219.46)" fill="#f5a96c" fill-rule="evenodd"/>
    </g>
    <g id="Group_16811" data-name="Group 16811" transform="translate(13.354 61.861)">
      <path id="Path_1541" data-name="Path 1541" d="M165.07,127.821l-1.464,1.407,4.574,2.257,1.68-1.3Z" transform="translate(-163.606 -127.821)" fill="#f5a96c" fill-rule="evenodd"/>
    </g>
    <g id="Group_16812" data-name="Group 16812" transform="translate(14.48 61.338)">
      <path id="Path_1542" data-name="Path 1542" d="M182.526,124.3l-1.68,1.3-1.583,1.223c-4,3.1-.682,6.152,1.69,5.1l2.667-1.607,1.652-.377,2.3-.525,4.872,4.846,2.088,2.075c1.313-.492,3.17-1.911,5.175-5.14l-3.047-6.375-7.116-3.409-1.826,1.459c-.3.239-.21.193-.589.182a6.875,6.875,0,0,0-4.136.884Z" transform="translate(-177.397 -121.414)" fill="#ffe5c1" fill-rule="evenodd"/>
    </g>
    <g id="Group_16813" data-name="Group 16813" transform="translate(14.722 68.525)">
      <path id="Path_1543" data-name="Path 1543" d="M185.247,210.12l-2.667,1.607a2.6,2.6,0,0,1-2.212-.076,2.628,2.628,0,0,0,3.313,1.139l2.667-1.607,1.652-.377,2.269-.518c-1.051-.9-1.239-1.032-3.373-.542Z" transform="translate(-180.368 -209.464)" fill="#fed1a3" fill-rule="evenodd"/>
    </g>
    <g id="Group_16814" data-name="Group 16814" transform="translate(29.992 69.525)">
      <path id="Path_1544" data-name="Path 1544" d="M372.571,221.713c-1.785,2.873-3.451,4.313-4.722,4.944a4.321,4.321,0,0,1-.415.182l1.621,1.612c1.313-.492,3.17-1.911,5.175-5.14Z" transform="translate(-367.434 -221.713)" fill="#fed1a3" fill-rule="evenodd"/>
    </g>
    <g id="Group_16815" data-name="Group 16815" transform="translate(7.672 56.183)">
      <path id="Path_1545" data-name="Path 1545" d="M93.99,61.236a1.767,1.767,0,0,1,2.486.057l3.211,3.348a.494.494,0,0,1-.014.695l1.464-1.407,1.135-1.094a.491.491,0,0,0,.014-.695l-3.211-3.348a1.767,1.767,0,0,0-2.5-.05Z" transform="translate(-93.99 -58.251)" fill="#3987d0" fill-rule="evenodd"/>
    </g>
    <g id="Group_16816" data-name="Group 16816" transform="translate(6.811 76.21)">
      <path id="Path_1546" data-name="Path 1546" d="M83.448,306.046c.017,1.564,1.843,2.98,3.3,1.677l1.023-1.084.608-.647a1.926,1.926,0,0,0,.086-2.381A1.79,1.79,0,0,1,88,304.8l-1.082,1.149-.546.583a1.877,1.877,0,0,1-2.924-.486Z" transform="translate(-83.448 -303.61)" fill="#fed1a3" fill-rule="evenodd"/>
    </g>
    <g id="Group_16817" data-name="Group 16817" transform="translate(9.481 77.321)">
      <path id="Path_1547" data-name="Path 1547" d="M116.154,322.09c.381,1.28,2.162,2.257,3.332,1.027l.286-.3a.031.031,0,0,1,.007-.01l1.74-1.825c.062-.069.122-.134.184-.193l.558-.585a1.91,1.91,0,0,0-.229-2.993,1.927,1.927,0,0,1-.555,1.875l-.558.585c-.062.06-.122.124-.184.191h0L119,321.693l-.01.007-.284.3a1.823,1.823,0,0,1-2.552.09Z" transform="translate(-116.154 -317.215)" fill="#fed1a3" fill-rule="evenodd"/>
    </g>
    <g id="Group_16818" data-name="Group 16818" transform="translate(12.749 80.738)">
      <path id="Path_1548" data-name="Path 1548" d="M159.511,363.84l1.27-1.206.377-.361.238-.224a1.955,1.955,0,0,0-.122-2.964,1.857,1.857,0,0,1-.555,1.9l-.236.224-.672.638-.977.931-.055.048a1.8,1.8,0,0,1-2.152.287,2.255,2.255,0,0,1-.439-.313,2.311,2.311,0,0,0,1.115,1.376,1.8,1.8,0,0,0,2.152-.284Z" transform="translate(-156.188 -359.085)" fill="#fed1a3" fill-rule="evenodd"/>
    </g>
    <g id="Group_16819" data-name="Group 16819" transform="translate(15.621 84.144)">
      <path id="Path_1549" data-name="Path 1549" d="M195.886,403.583a1.9,1.9,0,0,0,.086-2.775,2.144,2.144,0,0,1-.644,1.4l-.906.967a1.922,1.922,0,0,1-3.046.029,2.043,2.043,0,0,0,3.6,1.342Z" transform="translate(-191.376 -400.808)" fill="#fed1a3" fill-rule="evenodd"/>
    </g>
    <g id="Group_16820" data-name="Group 16820" transform="translate(26.419 77.418)">
      <path id="Path_1550" data-name="Path 1550" d="M326.843,322.036a.629.629,0,0,1-.43-.169l-2.541-2.367a.631.631,0,0,1,.859-.924l2.541,2.367a.631.631,0,0,1-.43,1.093Z" transform="translate(-323.671 -318.407)" fill="#f5a96c"/>
    </g>
    <g id="Group_16821" data-name="Group 16821" transform="translate(24.002 80.057)">
      <path id="Path_1551" data-name="Path 1551" d="M297.235,354.37a.628.628,0,0,1-.43-.169l-2.543-2.369a.631.631,0,0,1,.859-.924l2.543,2.369a.631.631,0,0,1-.43,1.093Z" transform="translate(-294.061 -350.739)" fill="#f5a96c"/>
    </g>
    <g id="Group_16822" data-name="Group 16822" transform="translate(22.577 83.544)">
      <path id="Path_1552" data-name="Path 1552" d="M278.524,395.923a.629.629,0,0,1-.429-.169l-1.294-1.2a.631.631,0,1,1,.859-.925l1.294,1.2a.631.631,0,0,1-.43,1.093Z" transform="translate(-276.599 -393.458)" fill="#f5a96c"/>
    </g>
    <g id="Group_16823" data-name="Group 16823" transform="translate(25.688 55.999)">
      <path id="Path_1553" data-name="Path 1553" d="M315.648,61.338l8.5,8.187,1.659,1.6.61.588a.494.494,0,0,0,.694-.014l1.676-1.748,1.535-1.6a1.776,1.776,0,0,0-.05-2.5l-1.485-1.428-8.235-7.929a1.767,1.767,0,0,0-2.5.05l-3.211,3.348a.492.492,0,0,0,.014.695Z" transform="translate(-314.712 -55.999)" fill="#fe636e" fill-rule="evenodd"/>
    </g>
    <g id="Group_16824" data-name="Group 16824" transform="translate(35.278 63.813)">
      <path id="Path_1554" data-name="Path 1554" d="M436.063,151.725Zm-1.492,4.094-1.676,1.751a.491.491,0,0,1-.694.012l1.509,1.454.61.588a.494.494,0,0,0,.694-.014l1.676-1.748,1.535-1.6a1.776,1.776,0,0,0-.05-2.5l-1.878-1.808.16.155-.393-.38a1.775,1.775,0,0,1,.043,2.491Z" transform="translate(-432.202 -151.725)" fill="#fb2a39" fill-rule="evenodd"/>
    </g>
  </g>
</svg>
