<svg xmlns="http://www.w3.org/2000/svg" width="11.044" height="11.044" viewBox="0 0 11.044 11.044">
  <g id="Public" transform="translate(-26.478 39.522)">
    <path id="Path_1546" data-name="Path 1546" d="M29.883,24.461A5.422,5.422,0,0,0,28.811,35.2h0a5.411,5.411,0,0,0,4.8-1.383.3.3,0,0,0,.058-.055,5.418,5.418,0,0,0-3.784-9.3ZM34.7,30.026a4.8,4.8,0,0,1-1.15,2.98c-.232-.551-.678-1.321-1.346-1.263a1.611,1.611,0,0,0-1.19.955c-.194.314-.362.586-.629.636a2.8,2.8,0,0,0-1.639,1.23,4.814,4.814,0,0,1-1.479-8.72,2.213,2.213,0,0,1-.36,1.467c-.045.08-.092.163-.14.246-.383.668-.984,1.218-.742,1.823.2.5.941.308,1.481.749.625.511.763,1.632,1.806,1.393,1.148-.262.573-2.465,2.914-2.571A3.3,3.3,0,0,1,34.7,30.026Z" transform="translate(2.117 -63.883)" fill="#707070" stroke="#707070" stroke-width="0.2"/>
  </g>
</svg>
