<svg xmlns="http://www.w3.org/2000/svg" width="330" height="210" viewBox="0 0 330 210">
  <g id="Purple_Box" transform="translate(-16 -140)">
    <rect id="Rectangle_4" data-name="Rectangle 4" width="330" height="210" rx="7" transform="translate(16 140)" fill="#8e2d8e"/>
    <g id="Group_16677" data-name="Group 16677" transform="translate(-8.866 111.623)" opacity="0.5">
      <g id="Group_16673" data-name="Group 16673" transform="translate(140.307 91.257)">
        <line id="Line_57" data-name="Line 57" x1="8.762" y1="8.218" transform="translate(0 0.27)" fill="none" stroke="#a739a7" stroke-linecap="round" stroke-linejoin="round" stroke-width="3"/>
        <line id="Line_58" data-name="Line 58" y1="8.762" x2="8.219" transform="translate(0.271)" fill="none" stroke="#a739a7" stroke-linecap="round" stroke-linejoin="round" stroke-width="3"/>
      </g>
      <g id="Group_16674" data-name="Group 16674" transform="translate(39.931 79.264)">
        <line id="Line_59" data-name="Line 59" x1="8.762" y1="8.218" transform="translate(0 0.27)" fill="none" stroke="#a739a7" stroke-linecap="round" stroke-linejoin="round" stroke-width="3"/>
        <line id="Line_60" data-name="Line 60" y1="8.762" x2="8.219" transform="translate(0.271 0)" fill="none" stroke="#a739a7" stroke-linecap="round" stroke-linejoin="round" stroke-width="3"/>
      </g>
      <path id="Path_1547" data-name="Path 1547" d="M140.5,74.756l3.112-11.644L131.98,66.242l-11.64,3.127,8.527,8.512,8.525,8.517Z" transform="translate(-35.521 -10.427)" fill="none" stroke="#a739a7" stroke-linecap="round" stroke-linejoin="round" stroke-width="3"/>
      <path id="Path_1548" data-name="Path 1548" d="M132.87,302.189l10.434-6.033-10.439-6.014-10.441-6.02.011,12.048.006,12.052Z" transform="translate(-36.407 -104.473)" fill="none" stroke="#a739a7" stroke-linecap="round" stroke-linejoin="round" stroke-width="3"/>
      <path id="Path_1549" data-name="Path 1549" d="M226.268,298.326a9.142,9.142,0,1,1,18.284,0" transform="translate(-80.596 -106.627)" fill="none" stroke="#a739a7" stroke-linecap="round" stroke-linejoin="round" stroke-width="3"/>
      <path id="Path_1550" data-name="Path 1550" d="M58.85,169.123a9.1,9.1,0,1,1,18.2,0" transform="translate(-9.355 -51.647)" fill="none" stroke="#a739a7" stroke-linecap="round" stroke-linejoin="round" stroke-width="3"/>
      <rect id="Rectangle_3225" data-name="Rectangle 3225" width="18.184" height="18.185" transform="translate(115.393 123.345)" fill="none" stroke="#a739a7" stroke-linecap="round" stroke-linejoin="round" stroke-width="3"/>
      <g id="Group_16675" data-name="Group 16675" transform="translate(49.18 148.24)">
        <path id="Path_1551" data-name="Path 1551" d="M66.652,236.487c-3.97,0-3.285-7.04-8.351-7.04" transform="translate(-58.301 -229.447)" fill="none" stroke="#a739a7" stroke-linecap="round" stroke-linejoin="round" stroke-width="3"/>
        <path id="Path_1552" data-name="Path 1552" d="M95.725,236.488c-3.97,0-3.285-7.04-8.35-7.04" transform="translate(-70.673 -229.447)" fill="none" stroke="#a739a7" stroke-linecap="round" stroke-linejoin="round" stroke-width="3"/>
        <path id="Path_1553" data-name="Path 1553" d="M72.837,236.488c3.97,0,3.286-7.04,8.352-7.04" transform="translate(-64.486 -229.447)" fill="none" stroke="#a739a7" stroke-linecap="round" stroke-linejoin="round" stroke-width="3"/>
        <path id="Path_1554" data-name="Path 1554" d="M116.446,229.448" transform="translate(-83.043 -229.447)" fill="none" stroke="#a739a7" stroke-linecap="round" stroke-linejoin="round" stroke-width="3"/>
        <path id="Path_1555" data-name="Path 1555" d="M101.91,236.488c3.969,0,3.285-7.04,8.351-7.04" transform="translate(-76.858 -229.447)" fill="none" stroke="#a739a7" stroke-linecap="round" stroke-linejoin="round" stroke-width="3"/>
      </g>
      <g id="Group_16676" data-name="Group 16676" transform="translate(162.563 123.344)">
        <path id="Path_1556" data-name="Path 1556" d="M262.71,229.72c0,3.97-7.04,3.285-7.04,8.351" transform="translate(-255.67 -204.668)" fill="none" stroke="#a739a7" stroke-linecap="round" stroke-linejoin="round" stroke-width="3"/>
        <path id="Path_1557" data-name="Path 1557" d="M262.71,200.647c0,3.97-7.04,3.285-7.04,8.351" transform="translate(-255.67 -192.296)" fill="none" stroke="#a739a7" stroke-linecap="round" stroke-linejoin="round" stroke-width="3"/>
        <path id="Path_1558" data-name="Path 1558" d="M262.71,223.534c0-3.97-7.04-3.286-7.04-8.351" transform="translate(-255.67 -198.482)" fill="none" stroke="#a739a7" stroke-linecap="round" stroke-linejoin="round" stroke-width="3"/>
        <path id="Path_1559" data-name="Path 1559" d="M255.67,186.111" transform="translate(-255.67 -186.111)" fill="none" stroke="#a739a7" stroke-linecap="round" stroke-linejoin="round" stroke-width="3"/>
        <path id="Path_1560" data-name="Path 1560" d="M262.71,194.462c0-3.969-7.04-3.285-7.04-8.351" transform="translate(-255.67 -186.111)" fill="none" stroke="#a739a7" stroke-linecap="round" stroke-linejoin="round" stroke-width="3"/>
      </g>
      <line id="Line_61" data-name="Line 61" x2="20.606" transform="translate(36.866 180.895)" fill="none" stroke="#a739a7" stroke-linecap="round" stroke-linejoin="round" stroke-width="3"/>
      <line id="Line_62" data-name="Line 62" y1="14.57" x2="14.571" transform="translate(51.311 38.608)" fill="none" stroke="#a739a7" stroke-linecap="round" stroke-linejoin="round" stroke-width="3"/>
      <path id="Path_1561" data-name="Path 1561" d="M84.079,350.543a3.6,3.6,0,1,1,1.128-4.964A3.6,3.6,0,0,1,84.079,350.543Z" transform="translate(-17.743 -129.908)" fill="none" stroke="#a739a7" stroke-linecap="round" stroke-linejoin="round" stroke-width="3"/>
      <path id="Path_1562" data-name="Path 1562" d="M148.3,153.26a3.6,3.6,0,1,1,1.128-4.963A3.6,3.6,0,0,1,148.3,153.26Z" transform="translate(-45.072 -45.959)" fill="none" stroke="#a739a7" stroke-linecap="round" stroke-linejoin="round" stroke-width="3"/>
    </g>
    <g id="Group_16678" data-name="Group 16678" transform="translate(367.234 382.42) rotate(180)" opacity="0.5">
      <g id="Group_16673-2" data-name="Group 16673" transform="translate(140.307 91.257)">
        <line id="Line_57-2" data-name="Line 57" x1="8.762" y1="8.218" transform="translate(0 0.27)" fill="none" stroke="#a739a7" stroke-linecap="round" stroke-linejoin="round" stroke-width="3"/>
        <line id="Line_58-2" data-name="Line 58" y1="8.762" x2="8.219" transform="translate(0.271)" fill="none" stroke="#a739a7" stroke-linecap="round" stroke-linejoin="round" stroke-width="3"/>
      </g>
      <g id="Group_16674-2" data-name="Group 16674" transform="translate(39.931 79.264)">
        <line id="Line_59-2" data-name="Line 59" x1="8.762" y1="8.218" transform="translate(0 0.27)" fill="none" stroke="#a739a7" stroke-linecap="round" stroke-linejoin="round" stroke-width="3"/>
        <line id="Line_60-2" data-name="Line 60" y1="8.762" x2="8.219" transform="translate(0.271 0)" fill="none" stroke="#a739a7" stroke-linecap="round" stroke-linejoin="round" stroke-width="3"/>
      </g>
      <path id="Path_1547-2" data-name="Path 1547" d="M140.5,74.756l3.112-11.644L131.98,66.242l-11.64,3.127,8.527,8.512,8.525,8.517Z" transform="translate(-35.521 -10.427)" fill="none" stroke="#a739a7" stroke-linecap="round" stroke-linejoin="round" stroke-width="3"/>
      <path id="Path_1548-2" data-name="Path 1548" d="M132.87,302.189l10.434-6.033-10.439-6.014-10.441-6.02.011,12.048.006,12.052Z" transform="translate(-36.407 -104.473)" fill="none" stroke="#a739a7" stroke-linecap="round" stroke-linejoin="round" stroke-width="3"/>
      <path id="Path_1563" data-name="Path 1563" d="M132.87,302.189l10.434-6.033-10.439-6.014-10.441-6.02.011,12.048.006,12.052Z" transform="translate(-104.499 346.801) rotate(-90)" fill="none" stroke="#a739a7" stroke-linecap="round" stroke-linejoin="round" stroke-width="3"/>
      <path id="Path_1549-2" data-name="Path 1549" d="M226.268,298.326a9.142,9.142,0,1,1,18.284,0" transform="translate(-80.596 -106.627)" fill="none" stroke="#a739a7" stroke-linecap="round" stroke-linejoin="round" stroke-width="3"/>
      <path id="Path_1550-2" data-name="Path 1550" d="M58.85,169.123a9.1,9.1,0,1,1,18.2,0" transform="translate(-9.355 -51.647)" fill="none" stroke="#a739a7" stroke-linecap="round" stroke-linejoin="round" stroke-width="3"/>
      <rect id="Rectangle_3225-2" data-name="Rectangle 3225" width="18.184" height="18.185" transform="translate(115.393 123.345)" fill="none" stroke="#a739a7" stroke-linecap="round" stroke-linejoin="round" stroke-width="3"/>
      <g id="Group_16675-2" data-name="Group 16675" transform="translate(49.18 148.24)">
        <path id="Path_1551-2" data-name="Path 1551" d="M66.652,236.487c-3.97,0-3.285-7.04-8.351-7.04" transform="translate(-58.301 -229.447)" fill="none" stroke="#a739a7" stroke-linecap="round" stroke-linejoin="round" stroke-width="3"/>
        <path id="Path_1552-2" data-name="Path 1552" d="M95.725,236.488c-3.97,0-3.285-7.04-8.35-7.04" transform="translate(-70.673 -229.447)" fill="none" stroke="#a739a7" stroke-linecap="round" stroke-linejoin="round" stroke-width="3"/>
        <path id="Path_1553-2" data-name="Path 1553" d="M72.837,236.488c3.97,0,3.286-7.04,8.352-7.04" transform="translate(-64.486 -229.447)" fill="none" stroke="#a739a7" stroke-linecap="round" stroke-linejoin="round" stroke-width="3"/>
        <path id="Path_1554-2" data-name="Path 1554" d="M116.446,229.448" transform="translate(-83.043 -229.447)" fill="none" stroke="#a739a7" stroke-linecap="round" stroke-linejoin="round" stroke-width="3"/>
        <path id="Path_1555-2" data-name="Path 1555" d="M101.91,236.488c3.969,0,3.285-7.04,8.351-7.04" transform="translate(-76.858 -229.447)" fill="none" stroke="#a739a7" stroke-linecap="round" stroke-linejoin="round" stroke-width="3"/>
      </g>
      <g id="Group_16676-2" data-name="Group 16676" transform="translate(162.563 123.344)">
        <path id="Path_1556-2" data-name="Path 1556" d="M262.71,229.72c0,3.97-7.04,3.285-7.04,8.351" transform="translate(-255.67 -204.668)" fill="none" stroke="#a739a7" stroke-linecap="round" stroke-linejoin="round" stroke-width="3"/>
        <path id="Path_1557-2" data-name="Path 1557" d="M262.71,200.647c0,3.97-7.04,3.285-7.04,8.351" transform="translate(-255.67 -192.296)" fill="none" stroke="#a739a7" stroke-linecap="round" stroke-linejoin="round" stroke-width="3"/>
        <path id="Path_1558-2" data-name="Path 1558" d="M262.71,223.534c0-3.97-7.04-3.286-7.04-8.351" transform="translate(-255.67 -198.482)" fill="none" stroke="#a739a7" stroke-linecap="round" stroke-linejoin="round" stroke-width="3"/>
        <path id="Path_1559-2" data-name="Path 1559" d="M255.67,186.111" transform="translate(-255.67 -186.111)" fill="none" stroke="#a739a7" stroke-linecap="round" stroke-linejoin="round" stroke-width="3"/>
        <path id="Path_1560-2" data-name="Path 1560" d="M262.71,194.462c0-3.969-7.04-3.285-7.04-8.351" transform="translate(-255.67 -186.111)" fill="none" stroke="#a739a7" stroke-linecap="round" stroke-linejoin="round" stroke-width="3"/>
      </g>
      <line id="Line_61-2" data-name="Line 61" x2="20.606" transform="translate(36.866 180.895)" fill="none" stroke="#a739a7" stroke-linecap="round" stroke-linejoin="round" stroke-width="3"/>
      <line id="Line_62-2" data-name="Line 62" y1="14.57" x2="14.571" transform="translate(51.311 48.608)" fill="none" stroke="#a739a7" stroke-linecap="round" stroke-linejoin="round" stroke-width="3"/>
      <path id="Path_1561-2" data-name="Path 1561" d="M84.079,350.543a3.6,3.6,0,1,1,1.128-4.964A3.6,3.6,0,0,1,84.079,350.543Z" transform="translate(-17.743 -129.908)" fill="none" stroke="#a739a7" stroke-linecap="round" stroke-linejoin="round" stroke-width="3"/>
      <path id="Path_1562-2" data-name="Path 1562" d="M148.3,153.26a3.6,3.6,0,1,1,1.128-4.963A3.6,3.6,0,0,1,148.3,153.26Z" transform="translate(-45.072 -45.959)" fill="none" stroke="#a739a7" stroke-linecap="round" stroke-linejoin="round" stroke-width="3"/>
    </g>
    <g id="Group_16679" data-name="Group 16679" transform="translate(-8.554 500.221) rotate(-90)" opacity="0.5">
      <path id="Path_1563-2" data-name="Path 1563" d="M132.87,302.189l10.434-6.033-10.439-6.014-10.441-6.02.011,12.048.006,12.052Z" transform="translate(-104.499 346.801) rotate(-90)" fill="none" stroke="#a739a7" stroke-linecap="round" stroke-linejoin="round" stroke-width="3"/>
      <rect id="Rectangle_3225-3" data-name="Rectangle 3225" width="18.184" height="18.185" transform="translate(168.393 127.345)" fill="none" stroke="#a739a7" stroke-linecap="round" stroke-linejoin="round" stroke-width="3"/>
    </g>
  </g>
</svg>
