<svg xmlns="http://www.w3.org/2000/svg" width="18.945" height="21.74" viewBox="0 0 18.945 21.74">
  <g id="Share" transform="translate(49.251 83.25)">
    <g id="Group_16515" data-name="Group 16515" transform="translate(-49 -83)">
      <path id="Path_1599" data-name="Path 1599" d="M32.092,964.362a3.365,3.365,0,0,0-3.118,4.6L22.6,972.5a3.35,3.35,0,1,0,.009,4.961L28.982,981a3.307,3.307,0,0,0-.245,1.249,3.366,3.366,0,1,0,.83-2.2l-6.262-3.476a3.345,3.345,0,0,0,0-3.179l6.262-3.476a3.352,3.352,0,1,0,2.524-5.555Z" transform="translate(-17 -964.362)" fill="#666" stroke="#666" stroke-width="0.5"/>
    </g>
  </g>
</svg>
