<svg xmlns="http://www.w3.org/2000/svg" width="30.481" height="30.486" viewBox="0 0 30.481 30.486">
  <g id="Sorts" transform="translate(0 0.001)">
    <path id="Path_1555" data-name="Path 1555" d="M255.766,290.738l5.659-4.112,5.154,1.706,1.338,5.66a15.52,15.52,0,0,1-1.373,1.573,15.182,15.182,0,0,1-5.807,3.638l-4.971-3.062Z" transform="translate(-240.524 -269.545)" fill="#f6f9f9"/>
    <path id="Path_1556" data-name="Path 1556" d="M166.452,185.743l-5.66-4.112,2.162-6.654h7l2.162,6.654Z" transform="translate(-151.21 -164.549)" fill="#135772"/>
    <path id="Path_1557" data-name="Path 1557" d="M58.523,286.625l5.66,4.112v5.4L59.222,299.2a15.18,15.18,0,0,1-5.817-3.642A15.469,15.469,0,0,1,52.042,294l1.332-5.713Z" transform="translate(-48.941 -269.544)" fill="#f6f9f9"/>
    <path id="Path_1558" data-name="Path 1558" d="M182.459,449.343a15.366,15.366,0,0,1-9.932,0l4.961-3.066Z" transform="translate(-162.245 -419.685)" fill="#135772"/>
    <path id="Path_1559" data-name="Path 1559" d="M11.81,105.66l-2.162,6.654L4.5,113.979.07,110.131A15.119,15.119,0,0,1,2.838,101.7l5.826-.436Z" transform="translate(-0.066 -95.232)" fill="#ececef"/>
    <path id="Path_1560" data-name="Path 1560" d="M154.41,10.428h-7l-3.147-4.393L146.484.65a15.41,15.41,0,0,1,8.861,0L157.6,6.057Z" transform="translate(-135.669)" fill="#f6f9f9"/>
    <path id="Path_1561" data-name="Path 1561" d="M321.778,114.373l-5.154-1.706-2.162-6.654,3.191-4.37,5.8.437a15.12,15.12,0,0,1,2.751,8.436Z" transform="translate(-295.723 -95.586)" fill="#ececef"/>
    <g id="Group_16826" data-name="Group 16826" transform="translate(0 0.65)">
      <path id="Path_1562" data-name="Path 1562" d="M3.1,259.57A15.126,15.126,0,0,1,0,250.352c0-.115,0-.229,0-.343l4.429,3.848Z" transform="translate(0 -235.76)" fill="#135772"/>
      <path id="Path_1563" data-name="Path 1563" d="M46.514,16.725a15.427,15.427,0,0,1,1.692-2.007,15.166,15.166,0,0,1,6.35-3.815l-2.217,5.385Z" transform="translate(-43.742 -10.904)" fill="#135772"/>
      <path id="Path_1564" data-name="Path 1564" d="M338.208,16.773l-5.8-.437-2.256-5.406a15.166,15.166,0,0,1,6.345,3.813,15.433,15.433,0,0,1,1.711,2.03Z" transform="translate(-310.479 -10.928)" fill="#135772"/>
      <path id="Path_1565" data-name="Path 1565" d="M441.643,250.537v.312a15.128,15.128,0,0,1-3.091,9.2l-1.338-5.66Z" transform="translate(-411.162 -236.256)" fill="#135772"/>
    </g>
    <path id="Path_1566" data-name="Path 1566" d="M255.766,290.738l5.659-4.112,5.154,1.706,1.338,5.66a15.52,15.52,0,0,1-1.373,1.573,15.182,15.182,0,0,1-5.807,3.638l-4.971-3.062Z" transform="translate(-240.524 -269.545)" fill="#ececef"/>
    <path id="Path_1567" data-name="Path 1567" d="M321.778,114.373l-5.154-1.706-2.162-6.654,3.191-4.37,5.8.437a15.12,15.12,0,0,1,2.751,8.436Z" transform="translate(-295.723 -95.586)" fill="#dddddf"/>
    <path id="Path_1568" data-name="Path 1568" d="M338.208,16.773l-5.8-.437-2.256-5.406a15.166,15.166,0,0,1,6.345,3.813,15.433,15.433,0,0,1,1.711,2.03Z" transform="translate(-310.479 -10.279)" fill="#093f61"/>
    <path id="Path_1569" data-name="Path 1569" d="M441.643,250.537v.312a15.128,15.128,0,0,1-3.091,9.2l-1.338-5.66Z" transform="translate(-411.162 -235.606)" fill="#093f61"/>
    <path id="Path_1570" data-name="Path 1570" d="M255.767,450.17a15.265,15.265,0,0,0,4.971-.826l-4.971-3.062Z" transform="translate(-240.525 -419.685)" fill="#093f61"/>
    <path id="Path_1571" data-name="Path 1571" d="M262.456,6.057,260.2.651A15.3,15.3,0,0,0,255.767,0V10.428h3.5Z" transform="translate(-240.525)" fill="#ececef"/>
    <path id="Path_1572" data-name="Path 1572" d="M259.265,174.977h-3.5v10.766l5.66-4.112Z" transform="translate(-240.525 -164.549)" fill="#093f61"/>
  </g>
</svg>
