<svg xmlns="http://www.w3.org/2000/svg" width="438.722" height="34" viewBox="0 0 438.722 34">
  <path id="sound_wave" d="M10026,1000.015s146.678.067,151.438,0c5-.312,2.433,26,9.538,26s7.61-33,12.07-33,5.187,18.662,9.012,20.412,3.491-13.412,8.287-13.412,2.336,18.512,6.853,18.512,1.024-23.512,4.758-23.512,1.242,13.75,3.667,15,2.817-12.5,6.031-10,2.314,26,6.825,26,4.485-33,7.851-33,6.132,15.25,8.645,17,4.156-10.034,7.4-10c52.634.424,196.343,0,196.343,0" transform="translate(-10026 -992.515)" fill="none" stroke="#fff" stroke-width="1" opacity="0.4"/>
</svg>
