<svg xmlns="http://www.w3.org/2000/svg" width="20.928" height="22.686" viewBox="0 0 20.928 22.686">
  <g id="Tag_Communities" transform="translate(-2.412 -9.481)">
    <path id="Union_4" data-name="Union 4" d="M-269.4-1298.946a4.7,4.7,0,0,1-.616-.28,4.4,4.4,0,0,1-.548-.383,3.956,3.956,0,0,1-.779-.841,3.961,3.961,0,0,1-.7-2.206,3.891,3.891,0,0,1,.17-1.226l-.2-.116c-.6-.345-1.2-.687-1.8-1.031l-2.076-1.186q-.863-.493-1.724-.984l-.018-.01q-.122.13-.254.246a3.868,3.868,0,0,1-.993.657,4.686,4.686,0,0,1-.662.247,4.732,4.732,0,0,1-.732.121c-.11.01-.22.015-.332.015a4.071,4.071,0,0,1-1.91-.5,4.025,4.025,0,0,1-1.56-1.537,4.026,4.026,0,0,1,.223-4.312,4.773,4.773,0,0,1,.427-.512,4.436,4.436,0,0,1,.5-.419,4,4,0,0,1,.985-.519,3.978,3.978,0,0,1,2.352-.114,3.968,3.968,0,0,1,1.917,1.127l.2-.115q.9-.517,1.8-1.031,1.041-.591,2.079-1.186.861-.494,1.724-.985l.038-.022a3.37,3.37,0,0,1-.084-.374,4.526,4.526,0,0,1-.075-.81,4.924,4.924,0,0,1,.077-.7,3.968,3.968,0,0,1,1.04-2.016,3.961,3.961,0,0,1,1.989-1.134,3.991,3.991,0,0,1,2.336.158,4.669,4.669,0,0,1,.61.289,4.838,4.838,0,0,1,.544.39,3.9,3.9,0,0,1,.765.852,4,4,0,0,1,.671,2.154c0,.023,0,.047,0,.07a4.969,4.969,0,0,1-.067.7,3.955,3.955,0,0,1-1.021,2.042,3.963,3.963,0,0,1-1.96,1.153l-.078.018q0,.1,0,.21v6.406a3.47,3.47,0,0,1,.532.167,4.677,4.677,0,0,1,.611.288,5.026,5.026,0,0,1,.544.39,3.924,3.924,0,0,1,.765.852,3.994,3.994,0,0,1,.671,2.148c0,.023,0,.048,0,.071a4.814,4.814,0,0,1-.067.7,3.951,3.951,0,0,1-1.021,2.043,3.958,3.958,0,0,1-1.96,1.152,4.222,4.222,0,0,1-.99.119A3.713,3.713,0,0,1-269.4-1298.946Zm-7.209-9.695c.6.345,1.2.687,1.8,1.031.691.394,1.385.79,2.076,1.186q.863.493,1.725.985l.013.007a3.939,3.939,0,0,1,2.019-1.192l.044-.01q0-.107,0-.215v-6.4a3.573,3.573,0,0,1-.546-.172l-.132-.056a4.1,4.1,0,0,1-.968-.585q-.057-.046-.114-.094a3.531,3.531,0,0,1-.327-.32l-.182.1c-.6.345-1.2.687-1.8,1.031q-1.041.59-2.079,1.186l-1.724.984-.021.012a3.882,3.882,0,0,1,.189,1.144.767.767,0,0,1,0,.079,4.883,4.883,0,0,1-.083.8,3.521,3.521,0,0,1-.093.384Z" transform="translate(287.248 1330.769)" fill="#50b4ce" stroke="#fff" stroke-width="0.2"/>
  </g>
</svg>
