<svg xmlns="http://www.w3.org/2000/svg" width="20.641" height="16.255" viewBox="0 0 20.641 16.255">
  <g id="Tag_Friends" transform="translate(-2 -4.98)">
    <path id="Path_1564" data-name="Path 1564" d="M22.641,23.788a.816.816,0,0,1-.818.818h-19A.821.821,0,0,1,2,23.788,5.965,5.965,0,0,1,7.978,17.81H9.785a5.989,5.989,0,0,1,4.3,1.828A4.8,4.8,0,0,1,16.463,19h1.393A4.788,4.788,0,0,1,22.641,23.788Z" transform="translate(0 -3.372)" fill="#ff728f"/>
    <path id="Path_1565" data-name="Path 1565" d="M5.4,9.359A4.375,4.375,0,1,1,9.771,13.73,4.383,4.383,0,0,1,5.4,9.359Z" transform="translate(-0.894)" fill="#ff728f"/>
    <path id="Path_1566" data-name="Path 1566" d="M17.75,12.393A3.549,3.549,0,1,1,21.3,15.939,3.555,3.555,0,0,1,17.75,12.393Z" transform="translate(-4.14 -1.015)" fill="#ff728f"/>
  </g>
</svg>
