<svg xmlns="http://www.w3.org/2000/svg" width="31.068" height="31.063" viewBox="0 0 31.068 31.063">
  <g id="Travel" transform="translate(-0.013 -0.004)">
    <g id="Group_16830" data-name="Group 16830" transform="translate(1.283 17.83)">
      <path id="Path_1573" data-name="Path 1573" d="M26.008,299.253l-4.619-3.633a.564.564,0,0,1-.184-.744h0a2.962,2.962,0,0,1,3.568-.916l4.178,2.37Z" transform="translate(-21.13 -293.724)" fill="#ff2c5c"/>
      <path id="Path_1574" data-name="Path 1574" d="M127.039,364.952l3.643,4.629a.564.564,0,0,0,.744.183l.275-.19a2.506,2.506,0,0,0,.775-3.018l-2.5-4.538Z" transform="translate(-120.61 -357.873)" fill="#ff2c5c"/>
    </g>
    <path id="Path_1575" data-name="Path 1575" d="M65.5,311.655l-2.614,2.6L65.23,316.1l2.943-2.924Z" transform="translate(-59.067 -292.737)" fill="#e62753"/>
    <g id="Group_16831" data-name="Group 16831" transform="translate(6.946 3.293)">
      <path id="Path_1576" data-name="Path 1576" d="M114.879,60.081h0a1.6,1.6,0,0,1-.108-2.141c.741-.91,1.67-1.923,2.227-2.48a5.584,5.584,0,0,1,1.643-1.17.3.3,0,0,1,.374.044l1.61,1.61a.3.3,0,0,1,.044.374,5.584,5.584,0,0,1-1.17,1.643c-.557.557-1.57,1.486-2.48,2.227a1.6,1.6,0,0,1-2.14-.107Z" transform="translate(-114.412 -54.246)" fill="#c3d3db"/>
      <path id="Path_1577" data-name="Path 1577" d="M354.383,299.585h0a1.6,1.6,0,0,1-.108-2.14c.741-.91,1.67-1.923,2.227-2.48a5.581,5.581,0,0,1,1.643-1.17.3.3,0,0,1,.374.044l1.61,1.61a.3.3,0,0,1,.044.374,5.587,5.587,0,0,1-1.17,1.643c-.557.557-1.57,1.486-2.48,2.227a1.6,1.6,0,0,1-2.14-.108Z" transform="translate(-339.377 -279.211)" fill="#c3d3db"/>
    </g>
    <path id="Path_1578" data-name="Path 1578" d="M14.686,66.262l5.7-5.7L2.73,55.015a1,1,0,0,0-.965.236L.273,56.743a1.165,1.165,0,0,0,.42,1.794Z" transform="translate(0 -51.642)" fill="#ff2c5c"/>
    <path id="Path_1579" data-name="Path 1579" d="M191.366,126.308l-5.088,5.088,3.378,1.865,5.7-5.7Z" transform="translate(-174.97 -118.641)" fill="#e62753"/>
    <path id="Path_1580" data-name="Path 1580" d="M271.16,181.891l5.7-5.7,5.547,17.655a1,1,0,0,1-.236.965l-1.492,1.492a1.165,1.165,0,0,1-1.794-.42Z" transform="translate(-254.699 -165.497)" fill="#ff2c5c"/>
    <path id="Path_1581" data-name="Path 1581" d="M97.7,8.3l-9.575,9.575a51.9,51.9,0,0,1-5.1,4.477l-4.555,3.5c-1.055.809-2.309.907-2.983.233h0c-.674-.674-.576-1.928.233-2.983l3.5-4.555a51.9,51.9,0,0,1,4.477-5.1l9.575-9.575a15.9,15.9,0,0,1,4.4-3.148c1.368-.645,2.821-1.049,3.527-.343s.3,2.16-.343,3.527A15.9,15.9,0,0,1,97.7,8.3Z" transform="translate(-70.484)" fill="#e0f3fc"/>
    <path id="Path_1582" data-name="Path 1582" d="M101.478.4a1.4,1.4,0,0,0-.987-.37,6.067,6.067,0,0,1-.713,2.564,15.9,15.9,0,0,1-3.148,4.4l-9.575,9.575a51.892,51.892,0,0,1-5.1,4.477L77.4,24.535a2.91,2.91,0,0,1-2.054.664,1.546,1.546,0,0,0,.428.9h0c.674.674,1.928.576,2.983-.233l4.555-3.5a51.9,51.9,0,0,0,5.1-4.477L97.987,8.32a15.9,15.9,0,0,0,3.148-4.4C101.78,2.555,102.184,1.1,101.478.4Z" transform="translate(-70.769 -0.023)" fill="#c3d3db"/>
    <path id="Path_1583" data-name="Path 1583" d="M403.527,50.643l-.327.327c-.3.3-3.7-3.093-3.4-3.4l.327-.327a.687.687,0,0,1,.755-.162h0a5.6,5.6,0,0,1,2.8,2.8h0a.687.687,0,0,1-.155.762Z" transform="translate(-375.515 -44.177)" fill="#51c4f5"/>
    <path id="Path_1584" data-name="Path 1584" d="M92.4,344.453a.455.455,0,0,1-.322-.777l3.976-3.976a.455.455,0,0,1,.644.644l-3.976,3.976A.454.454,0,0,1,92.4,344.453Z" transform="translate(-86.358 -318.953)" fill="#e62753"/>
  </g>
</svg>
