<svg xmlns="http://www.w3.org/2000/svg" width="23.486" height="13.799" viewBox="0 0 23.486 13.799">
  <g id="Video_Story" transform="translate(0 -96.512)">
    <g id="Group_16354" data-name="Group 16354" transform="translate(0 96.512)">
      <g id="Group_16353" data-name="Group 16353" transform="translate(0 0)">
        <path id="Path_1518" data-name="Path 1518" d="M13.285,96.512H2.57A2.577,2.577,0,0,0,0,99.082v8.66a2.577,2.577,0,0,0,2.57,2.57H13.285a2.577,2.577,0,0,0,2.57-2.57v-8.66A2.561,2.561,0,0,0,13.285,96.512Z" transform="translate(0 -96.512)" fill="#22bc6a"/>
      </g>
    </g>
    <g id="Group_16356" data-name="Group 16356" transform="translate(17.139 97.884)">
      <g id="Group_16355" data-name="Group 16355" transform="translate(0 0)">
        <path id="Path_1519" data-name="Path 1519" d="M345.949,123.889a1.309,1.309,0,0,0-.437.18l-4.009,2.313v5.961l4.034,2.313a1.528,1.528,0,0,0,2.107-.565,1.57,1.57,0,0,0,.206-.771v-7.94A1.547,1.547,0,0,0,345.949,123.889Z" transform="translate(-341.504 -123.847)" fill="#22bc6a"/>
      </g>
    </g>
  </g>
</svg>
